Oxanium-Light.ufo
<glyph name="exclam" format="2">
  <advance width="254.60655737704917"/>
  <unicode hex="0021"/>
  <outline>
    <contour>
      <point x="86.68852459016394" y="0.0" type="line"/>
      <point x="86.68852459016394" y="97.0655737704918" type="line"/>
      <point x="168.77049180327867" y="97.0655737704918" type="line"/>
      <point x="168.77049180327867" y="0.0" type="line"/>
    </contour>
    <contour>
      <point x="94.36065573770492" y="206.68852459016392" type="line"/>
      <point x="94.36065573770492" y="690.0" type="line"/>
      <point x="160.95081967213116" y="690.0" type="line"/>
      <point x="160.95081967213116" y="206.68852459016392" type="line"/>
    </contour>
  </outline>
</glyph>
<glyph name="numbersign" format="2">
  <advance width="667.5081967213115"/>
  <unicode hex="0023"/>
  <outline>
    <contour>
      <point x="50.0" y="196.62295081967213" type="line"/>
      <point x="50.0" y="253.37704918032787" type="line"/>
      <point x="190.36065573770492" y="253.37704918032787" type="line"/>
      <point x="190.36065573770492" y="436.62295081967216" type="line"/>
      <point x="50.0" y="436.62295081967216" type="line"/>
      <point x="50.0" y="493.37704918032784" type="line"/>
      <point x="190.36065573770492" y="493.37704918032784" type="line"/>
      <point x="190.36065573770492" y="690.0" type="line"/>
      <point x="250.0" y="690.0" type="line"/>
      <point x="250.0" y="493.37704918032784" type="line"/>
      <point x="418.3606557377049" y="493.37704918032784" type="line"/>
      <point x="418.3606557377049" y="690.0" type="line"/>
      <point x="478.0" y="690.0" type="line"/>
      <point x="478.0" y="493.37704918032784" type="line"/>
      <point x="617.5081967213115" y="493.37704918032784" type="line"/>
      <point x="617.5081967213115" y="436.62295081967216" type="line"/>
      <point x="478.0" y="436.62295081967216" type="line"/>
      <point x="478.0" y="253.37704918032787" type="line"/>
      <point x="617.5081967213115" y="253.37704918032787" type="line"/>
      <point x="617.5081967213115" y="196.62295081967213" type="line"/>
      <point x="478.0" y="196.62295081967213" type="line"/>
      <point x="478.0" y="0.0" type="line"/>
      <point x="418.3606557377049" y="0.0" type="line"/>
      <point x="418.3606557377049" y="196.62295081967213" type="line"/>
      <point x="250.0" y="196.62295081967213" type="line"/>
      <point x="250.0" y="0.0" type="line"/>
      <point x="190.36065573770492" y="0.0" type="line"/>
      <point x="190.36065573770492" y="196.62295081967213" type="line"/>
    </contour>
    <contour>
      <point x="250.0" y="253.37704918032787" type="line"/>
      <point x="418.3606557377049" y="253.37704918032787" type="line"/>
      <point x="418.3606557377049" y="436.62295081967216" type="line"/>
      <point x="250.0" y="436.62295081967216" type="line"/>
    </contour>
  </outline>
</glyph>
<glyph name="dollar" format="2">
  <advance width="578.0"/>
  <unicode hex="0024"/>
  <outline>
    <contour>
      <point x="72.31147540983606" y="30.16393442622951" type="line"/>
      <point x="72.31147540983606" y="60.67213114754098" type="line"/>
      <point x="359.9016393442623" y="60.67213114754098" type="line" smooth="yes"/>
      <point x="439.0983606557377" y="60.67213114754098"/>
      <point x="439.0983606557377" y="139.01639344262296" type="qcurve" smooth="yes"/>
      <point x="439.0983606557377" y="209.21311475409837" type="line" smooth="yes"/>
      <point x="439.0983606557377" y="274.3606557377049"/>
      <point x="380.21311475409834" y="285.73770491803276" type="qcurve" smooth="yes"/>
      <point x="179.40983606557376" y="326.26229508196724" type="line" smooth="yes"/>
      <point x="72.31147540983606" y="346.8524590163934"/>
      <point x="72.31147540983606" y="470.39344262295083" type="qcurve" smooth="yes"/>
      <point x="72.31147540983606" y="509.8032786885246" type="line" smooth="yes"/>
      <point x="72.31147540983606" y="660.0"/>
      <point x="218.81967213114754" y="660.0" type="qcurve" smooth="yes"/>
      <point x="261.1803278688525" y="660.0" type="line"/>
      <point x="261.1803278688525" y="780.0" type="line"/>
      <point x="316.8196721311475" y="780.0" type="line"/>
      <point x="316.8196721311475" y="660.0" type="line"/>
      <point x="446.9016393442623" y="660.0" type="line"/>
      <point x="485.6885245901639" y="629.8360655737705" type="line"/>
      <point x="485.6885245901639" y="599.327868852459" type="line"/>
      <point x="218.0983606557377" y="599.327868852459" type="line" smooth="yes"/>
      <point x="138.9016393442623" y="599.327868852459"/>
      <point x="138.9016393442623" y="520.983606557377" type="qcurve" smooth="yes"/>
      <point x="138.9016393442623" y="463.0163934426229" type="line" smooth="yes"/>
      <point x="138.9016393442623" y="397.0163934426229"/>
      <point x="197.78688524590163" y="385.6393442622951" type="qcurve" smooth="yes"/>
      <point x="398.59016393442624" y="345.672131147541" type="line" smooth="yes"/>
      <point x="505.6885245901639" y="323.9344262295082"/>
      <point x="505.6885245901639" y="201.68852459016392" type="qcurve" smooth="yes"/>
      <point x="505.6885245901639" y="150.19672131147541" type="line" smooth="yes"/>
      <point x="505.6885245901639" y="0.0"/>
      <point x="359.1803278688525" y="0.0" type="qcurve" smooth="yes"/>
      <point x="316.8196721311475" y="0.0" type="line"/>
      <point x="316.8196721311475" y="-120.0" type="line"/>
      <point x="261.1803278688525" y="-120.0" type="line"/>
      <point x="261.1803278688525" y="0.0" type="line"/>
      <point x="111.09836065573771" y="0.0" type="line"/>
    </contour>
  </outline>
</glyph>
<glyph name="ampersand" format="2">
  <advance width="655.016393442623"/>
  <unicode hex="0026"/>
  <outline>
    <contour>
      <point x="72.49180327868852" y="146.68852459016392" type="qcurve" smooth="yes"/>
      <point x="72.49180327868852" y="258.4918032786885" type="line" smooth="yes"/>
      <point x="72.49180327868852" y="310.4918032786885"/>
      <point x="105.49180327868852" y="338.4918032786885" type="qcurve" smooth="yes"/>
      <point x="147.49180327868854" y="373.4918032786885" type="line"/>
      <point x="112.49180327868852" y="415.4918032786885" type="line" smooth="yes"/>
      <point x="92.49180327868852" y="439.4918032786885"/>
      <point x="92.49180327868852" y="473.4918032786885" type="qcurve" smooth="yes"/>
      <point x="92.49180327868852" y="543.311475409836" type="line" smooth="yes"/>
      <point x="92.49180327868852" y="690.0"/>
      <point x="239.18032786885246" y="690.0" type="qcurve" smooth="yes"/>
      <point x="430.8196721311475" y="690.0" type="line"/>
      <point x="465.0163934426229" y="664.4262295081967" type="line"/>
      <point x="465.0163934426229" y="634.5081967213115" type="line"/>
      <point x="236.68852459016392" y="634.5081967213115" type="line" smooth="yes"/>
      <point x="155.49180327868854" y="634.5081967213115"/>
      <point x="155.49180327868854" y="553.311475409836" type="qcurve" smooth="yes"/>
      <point x="155.49180327868854" y="475.39344262295083" type="line" smooth="yes"/>
      <point x="155.49180327868854" y="394.1967213114754"/>
      <point x="236.68852459016392" y="394.1967213114754" type="qcurve" smooth="yes"/>
      <point x="615.016393442623" y="394.1967213114754" type="line"/>
      <point x="615.016393442623" y="338.7049180327869" type="line"/>
      <point x="515.016393442623" y="338.7049180327869" type="line"/>
      <point x="515.016393442623" y="0.0" type="line"/>
      <point x="219.18032786885246" y="0.0" type="line" smooth="yes"/>
      <point x="72.49180327868852" y="0.0"/>
    </contour>
    <contour>
      <point x="135.49180327868854" y="136.68852459016392" type="line" smooth="yes"/>
      <point x="135.49180327868854" y="55.49180327868852"/>
      <point x="216.68852459016392" y="55.49180327868852" type="qcurve" smooth="yes"/>
      <point x="452.0163934426229" y="55.49180327868852" type="line"/>
      <point x="452.0163934426229" y="338.7049180327869" type="line"/>
      <point x="216.68852459016392" y="338.7049180327869" type="line" smooth="yes"/>
      <point x="135.49180327868854" y="338.7049180327869"/>
      <point x="135.49180327868854" y="257.5081967213115" type="qcurve" smooth="yes"/>
    </contour>
  </outline>
</glyph>
<glyph name="quotesingle" format="2">
  <advance width="204.47540983606558"/>
  <unicode hex="0027"/>
  <outline>
    <contour>
      <point x="72.49180327868852" y="495.8032786885246" type="line"/>
      <point x="72.49180327868852" y="740.0" type="line"/>
      <point x="131.98360655737704" y="740.0" type="line"/>
      <point x="131.98360655737704" y="495.8032786885246" type="line"/>
    </contour>
  </outline>
</glyph>
<glyph name="parenleft" format="2">
  <advance width="299.655737704918"/>
  <unicode hex="0028"/>
  <outline>
    <contour>
      <point x="231.37704918032787" y="767.0983606557377" type="qcurve"/>
      <point x="278.39344262295083" y="730.9180327868852" type="line"/>
      <point x="136.78688524590163" y="537.016393442623"/>
      <point x="136.78688524590163" y="42.98360655737705"/>
      <point x="278.39344262295083" y="-150.91803278688525" type="qcurve"/>
      <point x="231.37704918032787" y="-187.0983606557377" type="line"/>
      <point x="73.78688524590164" y="24.524590163934427"/>
      <point x="73.78688524590164" y="555.4754098360655"/>
    </contour>
  </outline>
</glyph>
<glyph name="parenright" format="2">
  <advance width="299.655737704918"/>
  <unicode hex="0029"/>
  <outline>
    <contour>
      <point x="21.262295081967213" y="-150.91803278688525" type="line"/>
      <point x="162.86885245901638" y="42.98360655737705"/>
      <point x="162.86885245901638" y="537.016393442623"/>
      <point x="21.262295081967213" y="730.9180327868852" type="qcurve"/>
      <point x="68.1311475409836" y="767.0983606557377" type="line"/>
      <point x="225.86885245901638" y="555.4754098360655"/>
      <point x="225.86885245901638" y="24.524590163934427"/>
      <point x="68.1311475409836" y="-187.0983606557377" type="qcurve"/>
    </contour>
  </outline>
</glyph>
<glyph name="asterisk" format="2">
  <advance width="496.27868852459017"/>
  <unicode hex="002A"/>
  <outline>
    <contour>
      <point x="41.0" y="522.360655737705" type="line"/>
      <point x="56.131147540983605" y="566.4918032786885" type="line"/>
      <point x="222.4262295081967" y="516.2950819672132" type="line"/>
      <point x="222.4262295081967" y="690.0" type="line"/>
      <point x="274.0" y="690.0" type="line"/>
      <point x="274.0" y="516.2950819672132" type="line"/>
      <point x="439.44262295081967" y="566.4918032786885" type="line"/>
      <point x="455.27868852459017" y="522.360655737705" type="line"/>
      <point x="290.9836065573771" y="466.3114754098361" type="line"/>
      <point x="390.8196721311475" y="324.6885245901639" type="line"/>
      <point x="351.9016393442623" y="296.72131147540983" type="line"/>
      <point x="248.0655737704918" y="433.78688524590166" type="line"/>
      <point x="144.37704918032787" y="296.72131147540983" type="line"/>
      <point x="105.60655737704919" y="324.6885245901639" type="line"/>
      <point x="205.29508196721312" y="466.3114754098361" type="line"/>
    </contour>
  </outline>
</glyph>
<glyph name="plus" format="2">
  <advance width="578.0"/>
  <unicode hex="002B"/>
  <outline>
    <contour>
      <point x="64.81967213114754" y="306.62295081967216" type="line"/>
      <point x="64.81967213114754" y="363.37704918032784" type="line"/>
      <point x="259.1803278688525" y="363.37704918032784" type="line"/>
      <point x="259.1803278688525" y="570.0" type="line"/>
      <point x="318.8196721311475" y="570.0" type="line"/>
      <point x="318.8196721311475" y="363.37704918032784" type="line"/>
      <point x="513.1803278688525" y="363.37704918032784" type="line"/>
      <point x="513.1803278688525" y="306.62295081967216" type="line"/>
      <point x="318.8196721311475" y="306.62295081967216" type="line"/>
      <point x="318.8196721311475" y="100.0" type="line"/>
      <point x="259.1803278688525" y="100.0" type="line"/>
      <point x="259.1803278688525" y="306.62295081967216" type="line"/>
    </contour>
  </outline>
</glyph>
<glyph name="comma" format="2">
  <advance width="254.60655737704917"/>
  <unicode hex="002C"/>
  <outline>
    <contour>
      <point x="34.90163934426229" y="-125.70491803278688" type="line"/>
      <point x="89.93442622950819" y="97.0655737704918" type="line"/>
      <point x="156.4262295081967" y="97.0655737704918" type="line"/>
      <point x="164.04918032786884" y="84.85245901639344" type="line"/>
      <point x="84.59016393442623" y="-137.0983606557377" type="line"/>
    </contour>
  </outline>
</glyph>
<glyph name="hyphen" format="2">
  <advance width="354.1967213114754"/>
  <unicode hex="002D"/>
  <outline>
    <contour>
      <point x="40.0" y="276.62295081967216" type="line"/>
      <point x="40.0" y="333.37704918032784" type="line"/>
      <point x="314.1967213114754" y="333.37704918032784" type="line"/>
      <point x="314.1967213114754" y="276.62295081967216" type="line"/>
    </contour>
  </outline>
</glyph>
<glyph name="period" format="2">
  <advance width="254.60655737704917"/>
  <unicode hex="002E"/>
  <outline>
    <contour>
      <point x="86.68852459016394" y="0.0" type="line"/>
      <point x="86.68852459016394" y="97.0655737704918" type="line"/>
      <point x="168.77049180327867" y="97.0655737704918" type="line"/>
      <point x="168.77049180327867" y="0.0" type="line"/>
    </contour>
  </outline>
</glyph>
<glyph name="zero" format="2">
  <advance width="578.0"/>
  <unicode hex="0030"/>
  <outline>
    <contour>
      <point x="67.31147540983606" y="148.72131147540983" type="qcurve" smooth="yes"/>
      <point x="67.31147540983606" y="541.2786885245902" type="line" smooth="yes"/>
      <point x="67.31147540983606" y="690.0"/>
      <point x="216.0327868852459" y="690.0" type="qcurve" smooth="yes"/>
      <point x="361.9672131147541" y="690.0" type="line" smooth="yes"/>
      <point x="510.6885245901639" y="690.0"/>
      <point x="510.6885245901639" y="541.2786885245902" type="qcurve" smooth="yes"/>
      <point x="510.6885245901639" y="148.72131147540983" type="line" smooth="yes"/>
      <point x="510.6885245901639" y="0.0"/>
      <point x="361.9672131147541" y="0.0" type="qcurve" smooth="yes"/>
      <point x="216.0327868852459" y="0.0" type="line" smooth="yes"/>
      <point x="67.31147540983606" y="0.0"/>
    </contour>
    <contour>
      <point x="133.9016393442623" y="139.01639344262296" type="line" smooth="yes"/>
      <point x="133.9016393442623" y="60.67213114754098"/>
      <point x="213.0983606557377" y="60.67213114754098" type="qcurve" smooth="yes"/>
      <point x="364.9016393442623" y="60.67213114754098" type="line" smooth="yes"/>
      <point x="444.0983606557377" y="60.67213114754098"/>
      <point x="444.0983606557377" y="139.01639344262296" type="qcurve" smooth="yes"/>
      <point x="444.0983606557377" y="550.983606557377" type="line" smooth="yes"/>
      <point x="444.0983606557377" y="629.327868852459"/>
      <point x="364.9016393442623" y="629.327868852459" type="qcurve" smooth="yes"/>
      <point x="213.0983606557377" y="629.327868852459" type="line" smooth="yes"/>
      <point x="133.9016393442623" y="629.327868852459"/>
      <point x="133.9016393442623" y="550.983606557377" type="qcurve" smooth="yes"/>
    </contour>
  </outline>
</glyph>
<glyph name="one" format="2">
  <advance width="578.0"/>
  <unicode hex="0031"/>
  <outline>
    <contour>
      <point x="95.31147540983606" y="0.0" type="line"/>
      <point x="95.31147540983606" y="60.67213114754098" type="line"/>
      <point x="271.7049180327869" y="60.67213114754098" type="line"/>
      <point x="271.7049180327869" y="629.327868852459" type="line"/>
      <point x="133.21311475409837" y="629.327868852459" type="line"/>
      <point x="133.21311475409837" y="659.8360655737705" type="line"/>
      <point x="172.0" y="690.0" type="line"/>
      <point x="338.2950819672131" y="690.0" type="line"/>
      <point x="338.2950819672131" y="60.67213114754098" type="line"/>
      <point x="498.6885245901639" y="60.67213114754098" type="line"/>
      <point x="498.6885245901639" y="0.0" type="line"/>
    </contour>
  </outline>
</glyph>
<glyph name="two" format="2">
  <advance width="578.0"/>
  <unicode hex="0032"/>
  <outline>
    <contour>
      <point x="67.31147540983606" y="0.0" type="line"/>
      <point x="67.31147540983606" y="205.5737704918033" type="line" smooth="yes"/>
      <point x="67.31147540983606" y="328.11475409836066"/>
      <point x="174.40983606557376" y="349.7049180327869" type="qcurve" smooth="yes"/>
      <point x="385.21311475409834" y="392.37704918032784" type="line" smooth="yes"/>
      <point x="444.0983606557377" y="403.9016393442623"/>
      <point x="444.0983606557377" y="468.9016393442623" type="qcurve" smooth="yes"/>
      <point x="444.0983606557377" y="550.983606557377" type="line" smooth="yes"/>
      <point x="444.0983606557377" y="629.327868852459"/>
      <point x="364.9016393442623" y="629.327868852459" type="qcurve" smooth="yes"/>
      <point x="87.31147540983606" y="629.327868852459" type="line"/>
      <point x="87.31147540983606" y="659.8360655737705" type="line"/>
      <point x="126.09836065573771" y="690.0" type="line"/>
      <point x="361.9672131147541" y="690.0" type="line" smooth="yes"/>
      <point x="510.6885245901639" y="690.0"/>
      <point x="510.6885245901639" y="541.2786885245902" type="qcurve" smooth="yes"/>
      <point x="510.6885245901639" y="476.42622950819674" type="line" smooth="yes"/>
      <point x="510.6885245901639" y="353.88524590163934"/>
      <point x="403.59016393442624" y="332.2950819672131" type="qcurve" smooth="yes"/>
      <point x="192.78688524590163" y="289.62295081967216" type="line" smooth="yes"/>
      <point x="133.9016393442623" y="278.0983606557377"/>
      <point x="133.9016393442623" y="213.0983606557377" type="qcurve" smooth="yes"/>
      <point x="133.9016393442623" y="60.67213114754098" type="line"/>
      <point x="510.6885245901639" y="60.67213114754098" type="line"/>
      <point x="510.6885245901639" y="0.0" type="line"/>
    </contour>
  </outline>
</glyph>
<glyph name="three" format="2">
  <advance width="578.0"/>
  <unicode hex="0033"/>
  <outline>
    <contour>
      <point x="77.31147540983606" y="30.16393442622951" type="line"/>
      <point x="77.31147540983606" y="60.67213114754098" type="line"/>
      <point x="364.9016393442623" y="60.67213114754098" type="line" smooth="yes"/>
      <point x="444.0983606557377" y="60.67213114754098"/>
      <point x="444.0983606557377" y="139.01639344262296" type="qcurve" smooth="yes"/>
      <point x="444.0983606557377" y="255.18032786885246" type="line" smooth="yes"/>
      <point x="444.0983606557377" y="333.5245901639344"/>
      <point x="364.9016393442623" y="333.5245901639344" type="qcurve" smooth="yes"/>
      <point x="151.31147540983608" y="333.5245901639344" type="line"/>
      <point x="151.31147540983608" y="394.1967213114754" type="line"/>
      <point x="364.9016393442623" y="394.1967213114754" type="line" smooth="yes"/>
      <point x="444.0983606557377" y="394.1967213114754"/>
      <point x="444.0983606557377" y="473.39344262295083" type="qcurve" smooth="yes"/>
      <point x="444.0983606557377" y="550.983606557377" type="line" smooth="yes"/>
      <point x="444.0983606557377" y="629.327868852459"/>
      <point x="364.9016393442623" y="629.327868852459" type="qcurve" smooth="yes"/>
      <point x="87.31147540983606" y="629.327868852459" type="line"/>
      <point x="87.31147540983606" y="659.8360655737705" type="line"/>
      <point x="126.09836065573771" y="690.0" type="line"/>
      <point x="361.9672131147541" y="690.0" type="line" smooth="yes"/>
      <point x="510.6885245901639" y="690.0"/>
      <point x="510.6885245901639" y="541.2786885245902" type="qcurve" smooth="yes"/>
      <point x="510.6885245901639" y="466.08196721311475" type="line" smooth="yes"/>
      <point x="510.6885245901639" y="426.08196721311475"/>
      <point x="485.6885245901639" y="401.08196721311475" type="qcurve" smooth="yes"/>
      <point x="450.6885245901639" y="366.08196721311475" type="line"/>
      <point x="485.6885245901639" y="331.08196721311475" type="line" smooth="yes"/>
      <point x="510.6885245901639" y="306.08196721311475"/>
      <point x="510.6885245901639" y="266.08196721311475" type="qcurve" smooth="yes"/>
      <point x="510.6885245901639" y="148.72131147540983" type="line" smooth="yes"/>
      <point x="510.6885245901639" y="0.0"/>
      <point x="361.9672131147541" y="0.0" type="qcurve" smooth="yes"/>
      <point x="116.09836065573771" y="0.0" type="line"/>
    </contour>
  </outline>
</glyph>
<glyph name="four" format="2">
  <advance width="578.0"/>
  <unicode hex="0034"/>
  <outline>
    <contour>
      <point x="67.31147540983606" y="136.59016393442624" type="line"/>
      <point x="67.31147540983606" y="192.49180327868854" type="line"/>
      <point x="304.11475409836066" y="690.0" type="line"/>
      <point x="359.1967213114754" y="690.0" type="line"/>
      <point x="368.11475409836066" y="672.9016393442623" type="line"/>
      <point x="141.37704918032787" y="197.40983606557376" type="line"/>
      <point x="444.0983606557377" y="197.40983606557376" type="line"/>
      <point x="444.0983606557377" y="430.0" type="line"/>
      <point x="510.6885245901639" y="430.0" type="line"/>
      <point x="510.6885245901639" y="0.0" type="line"/>
      <point x="444.0983606557377" y="0.0" type="line"/>
      <point x="444.0983606557377" y="136.59016393442624" type="line"/>
    </contour>
  </outline>
</glyph>
<glyph name="five" format="2">
  <advance width="578.0"/>
  <unicode hex="0035"/>
  <outline>
    <contour>
      <point x="57.31147540983606" y="30.16393442622951" type="line"/>
      <point x="57.31147540983606" y="60.67213114754098" type="line"/>
      <point x="364.9016393442623" y="60.67213114754098" type="line" smooth="yes"/>
      <point x="444.0983606557377" y="60.67213114754098"/>
      <point x="444.0983606557377" y="139.01639344262296" type="qcurve" smooth="yes"/>
      <point x="444.0983606557377" y="265.1803278688525" type="line" smooth="yes"/>
      <point x="444.0983606557377" y="343.5245901639344"/>
      <point x="364.9016393442623" y="343.5245901639344" type="qcurve" smooth="yes"/>
      <point x="67.31147540983606" y="343.5245901639344" type="line"/>
      <point x="67.31147540983606" y="690.0" type="line"/>
      <point x="480.6885245901639" y="690.0" type="line"/>
      <point x="480.6885245901639" y="629.327868852459" type="line"/>
      <point x="133.9016393442623" y="629.327868852459" type="line"/>
      <point x="133.9016393442623" y="404.1967213114754" type="line"/>
      <point x="361.9672131147541" y="404.1967213114754" type="line" smooth="yes"/>
      <point x="510.6885245901639" y="404.1967213114754"/>
      <point x="510.6885245901639" y="255.47540983606558" type="qcurve" smooth="yes"/>
      <point x="510.6885245901639" y="148.72131147540983" type="line" smooth="yes"/>
      <point x="510.6885245901639" y="0.0"/>
      <point x="361.9672131147541" y="0.0" type="qcurve" smooth="yes"/>
      <point x="96.09836065573771" y="0.0" type="line"/>
    </contour>
  </outline>
</glyph>
<glyph name="six" format="2">
  <advance width="578.0"/>
  <unicode hex="0036"/>
  <outline>
    <contour>
      <point x="67.31147540983606" y="148.72131147540983" type="qcurve" smooth="yes"/>
      <point x="67.31147540983606" y="511.39344262295083" type="line" smooth="yes"/>
      <point x="67.31147540983606" y="690.0"/>
      <point x="245.91803278688525" y="690.0" type="qcurve" smooth="yes"/>
      <point x="431.9016393442623" y="690.0" type="line"/>
      <point x="470.6885245901639" y="659.8360655737705" type="line"/>
      <point x="470.6885245901639" y="629.327868852459" type="line"/>
      <point x="241.91803278688525" y="629.327868852459" type="line" smooth="yes"/>
      <point x="133.9016393442623" y="629.327868852459"/>
      <point x="133.9016393442623" y="521.311475409836" type="qcurve" smooth="yes"/>
      <point x="133.9016393442623" y="404.1967213114754" type="line"/>
      <point x="361.9672131147541" y="404.1967213114754" type="line" smooth="yes"/>
      <point x="510.6885245901639" y="404.1967213114754"/>
      <point x="510.6885245901639" y="255.47540983606558" type="qcurve" smooth="yes"/>
      <point x="510.6885245901639" y="148.72131147540983" type="line" smooth="yes"/>
      <point x="510.6885245901639" y="0.0"/>
      <point x="361.9672131147541" y="0.0" type="qcurve" smooth="yes"/>
      <point x="216.0327868852459" y="0.0" type="line" smooth="yes"/>
      <point x="67.31147540983606" y="0.0"/>
    </contour>
    <contour>
      <point x="133.9016393442623" y="139.01639344262296" type="line" smooth="yes"/>
      <point x="133.9016393442623" y="60.67213114754098"/>
      <point x="213.0983606557377" y="60.67213114754098" type="qcurve" smooth="yes"/>
      <point x="364.9016393442623" y="60.67213114754098" type="line" smooth="yes"/>
      <point x="444.0983606557377" y="60.67213114754098"/>
      <point x="444.0983606557377" y="139.01639344262296" type="qcurve" smooth="yes"/>
      <point x="444.0983606557377" y="265.1803278688525" type="line" smooth="yes"/>
      <point x="444.0983606557377" y="343.5245901639344"/>
      <point x="364.9016393442623" y="343.5245901639344" type="qcurve" smooth="yes"/>
      <point x="133.9016393442623" y="343.5245901639344" type="line"/>
    </contour>
  </outline>
</glyph>
<glyph name="seven" format="2">
  <advance width="578.0"/>
  <unicode hex="0037"/>
  <outline>
    <contour>
      <point x="67.31147540983606" y="629.327868852459" type="line"/>
      <point x="67.31147540983606" y="690.0" type="line"/>
      <point x="510.6885245901639" y="690.0" type="line"/>
      <point x="510.6885245901639" y="526.6065573770492" type="line"/>
      <point x="234.327868852459" y="0.0" type="line"/>
      <point x="175.50819672131146" y="0.0" type="line"/>
      <point x="165.7377049180328" y="17.098360655737704" type="line"/>
      <point x="444.0983606557377" y="542.0" type="line"/>
      <point x="444.0983606557377" y="629.327868852459" type="line"/>
    </contour>
  </outline>
</glyph>
<glyph name="eight" format="2">
  <advance width="578.0"/>
  <unicode hex="0038"/>
  <outline>
    <contour>
      <point x="67.31147540983606" y="148.72131147540983" type="qcurve" smooth="yes"/>
      <point x="67.31147540983606" y="265.9344262295082" type="line" smooth="yes"/>
      <point x="67.31147540983606" y="305.9344262295082"/>
      <point x="92.31147540983606" y="330.78688524590166" type="qcurve" smooth="yes"/>
      <point x="127.31147540983606" y="365.9344262295082" type="line"/>
      <point x="92.31147540983606" y="400.78688524590166" type="line" smooth="yes"/>
      <point x="67.31147540983606" y="425.9344262295082"/>
      <point x="67.31147540983606" y="465.9344262295082" type="qcurve" smooth="yes"/>
      <point x="67.31147540983606" y="541.2786885245902" type="line" smooth="yes"/>
      <point x="67.31147540983606" y="690.0"/>
      <point x="216.0327868852459" y="690.0" type="qcurve" smooth="yes"/>
      <point x="361.9672131147541" y="690.0" type="line" smooth="yes"/>
      <point x="510.6885245901639" y="690.0"/>
      <point x="510.6885245901639" y="541.2786885245902" type="qcurve" smooth="yes"/>
      <point x="510.6885245901639" y="465.9344262295082" type="line" smooth="yes"/>
      <point x="510.6885245901639" y="425.9344262295082"/>
      <point x="485.6885245901639" y="400.78688524590166" type="qcurve" smooth="yes"/>
      <point x="450.6885245901639" y="365.9344262295082" type="line"/>
      <point x="485.6885245901639" y="330.78688524590166" type="line" smooth="yes"/>
      <point x="510.6885245901639" y="305.9344262295082"/>
      <point x="510.6885245901639" y="265.9344262295082" type="qcurve" smooth="yes"/>
      <point x="510.6885245901639" y="148.72131147540983" type="line" smooth="yes"/>
      <point x="510.6885245901639" y="0.0"/>
      <point x="361.9672131147541" y="0.0" type="qcurve" smooth="yes"/>
      <point x="216.0327868852459" y="0.0" type="line" smooth="yes"/>
      <point x="67.31147540983606" y="0.0"/>
    </contour>
    <contour>
      <point x="133.9016393442623" y="139.01639344262296" type="line" smooth="yes"/>
      <point x="133.9016393442623" y="60.67213114754098"/>
      <point x="213.0983606557377" y="60.67213114754098" type="qcurve" smooth="yes"/>
      <point x="364.9016393442623" y="60.67213114754098" type="line" smooth="yes"/>
      <point x="444.0983606557377" y="60.67213114754098"/>
      <point x="444.0983606557377" y="139.01639344262296" type="qcurve" smooth="yes"/>
      <point x="444.0983606557377" y="255.18032786885246" type="line" smooth="yes"/>
      <point x="444.0983606557377" y="333.5245901639344"/>
      <point x="364.9016393442623" y="333.5245901639344" type="qcurve" smooth="yes"/>
      <point x="213.0983606557377" y="333.5245901639344" type="line" smooth="yes"/>
      <point x="133.9016393442623" y="333.5245901639344"/>
      <point x="133.9016393442623" y="255.18032786885246" type="qcurve" smooth="yes"/>
    </contour>
    <contour>
      <point x="133.9016393442623" y="473.39344262295083" type="line" smooth="yes"/>
      <point x="133.9016393442623" y="394.1967213114754"/>
      <point x="213.0983606557377" y="394.1967213114754" type="qcurve" smooth="yes"/>
      <point x="364.9016393442623" y="394.1967213114754" type="line" smooth="yes"/>
      <point x="444.0983606557377" y="394.1967213114754"/>
      <point x="444.0983606557377" y="473.39344262295083" type="qcurve" smooth="yes"/>
      <point x="444.0983606557377" y="550.983606557377" type="line" smooth="yes"/>
      <point x="444.0983606557377" y="629.327868852459"/>
      <point x="364.9016393442623" y="629.327868852459" type="qcurve" smooth="yes"/>
      <point x="213.0983606557377" y="629.327868852459" type="line" smooth="yes"/>
      <point x="133.9016393442623" y="629.327868852459"/>
      <point x="133.9016393442623" y="550.983606557377" type="qcurve" smooth="yes"/>
    </contour>
  </outline>
</glyph>
<glyph name="nine" format="2">
  <advance width="578.0"/>
  <unicode hex="0039"/>
  <outline>
    <contour>
      <point x="67.31147540983606" y="434.37704918032784" type="qcurve" smooth="yes"/>
      <point x="67.31147540983606" y="541.2786885245902" type="line" smooth="yes"/>
      <point x="67.31147540983606" y="690.0"/>
      <point x="216.0327868852459" y="690.0" type="qcurve" smooth="yes"/>
      <point x="361.9672131147541" y="690.0" type="line" smooth="yes"/>
      <point x="510.6885245901639" y="690.0"/>
      <point x="510.6885245901639" y="541.2786885245902" type="qcurve" smooth="yes"/>
      <point x="510.6885245901639" y="178.60655737704917" type="line" smooth="yes"/>
      <point x="510.6885245901639" y="0.0"/>
      <point x="332.08196721311475" y="0.0" type="qcurve" smooth="yes"/>
      <point x="136.0983606557377" y="0.0" type="line"/>
      <point x="97.31147540983606" y="30.16393442622951" type="line"/>
      <point x="97.31147540983606" y="60.67213114754098" type="line"/>
      <point x="336.08196721311475" y="60.67213114754098" type="line" smooth="yes"/>
      <point x="444.0983606557377" y="60.67213114754098"/>
      <point x="444.0983606557377" y="168.68852459016392" type="qcurve" smooth="yes"/>
      <point x="444.0983606557377" y="285.8032786885246" type="line"/>
      <point x="216.0327868852459" y="285.8032786885246" type="line" smooth="yes"/>
      <point x="67.31147540983606" y="285.8032786885246"/>
    </contour>
    <contour>
      <point x="133.9016393442623" y="425.672131147541" type="line" smooth="yes"/>
      <point x="133.9016393442623" y="346.4754098360656"/>
      <point x="213.0983606557377" y="346.4754098360656" type="qcurve" smooth="yes"/>
      <point x="444.0983606557377" y="346.4754098360656" type="line"/>
      <point x="444.0983606557377" y="550.983606557377" type="line" smooth="yes"/>
      <point x="444.0983606557377" y="629.327868852459"/>
      <point x="364.9016393442623" y="629.327868852459" type="qcurve" smooth="yes"/>
      <point x="213.0983606557377" y="629.327868852459" type="line" smooth="yes"/>
      <point x="133.9016393442623" y="629.327868852459"/>
      <point x="133.9016393442623" y="550.983606557377" type="qcurve" smooth="yes"/>
    </contour>
  </outline>
</glyph>
<glyph name="less" format="2">
  <advance width="578.0"/>
  <unicode hex="003C"/>
  <outline>
    <contour>
      <point x="64.0" y="303.88524590163934" type="line"/>
      <point x="64.0" y="366.11475409836066" type="line"/>
      <point x="486.9016393442623" y="568.4918032786885" type="line"/>
      <point x="511.0983606557377" y="518.360655737705" type="line"/>
      <point x="119.9672131147541" y="335.0" type="line"/>
      <point x="511.0983606557377" y="151.63934426229508" type="line"/>
      <point x="486.9016393442623" y="101.50819672131148" type="line"/>
    </contour>
  </outline>
</glyph>
<glyph name="equal" format="2">
  <advance width="578.0"/>
  <unicode hex="003D"/>
  <outline>
    <contour>
      <point x="64.81967213114754" y="196.62295081967213" type="line"/>
      <point x="64.81967213114754" y="253.37704918032787" type="line"/>
      <point x="513.1803278688525" y="253.37704918032787" type="line"/>
      <point x="513.1803278688525" y="196.62295081967213" type="line"/>
    </contour>
    <contour>
      <point x="64.81967213114754" y="416.62295081967216" type="line"/>
      <point x="64.81967213114754" y="473.37704918032784" type="line"/>
      <point x="513.1803278688525" y="473.37704918032784" type="line"/>
      <point x="513.1803278688525" y="416.62295081967216" type="line"/>
    </contour>
  </outline>
</glyph>
<glyph name="greater" format="2">
  <advance width="578.0"/>
  <unicode hex="003E"/>
  <outline>
    <contour>
      <point x="66.90163934426229" y="151.63934426229508" type="line"/>
      <point x="458.0327868852459" y="335.0" type="line"/>
      <point x="66.90163934426229" y="518.360655737705" type="line"/>
      <point x="91.09836065573771" y="568.4918032786885" type="line"/>
      <point x="514.0" y="366.11475409836066" type="line"/>
      <point x="514.0" y="303.88524590163934" type="line"/>
      <point x="91.09836065573771" y="101.50819672131148" type="line"/>
    </contour>
  </outline>
</glyph>
<glyph name="question" format="2">
  <advance width="493.37704918032784"/>
  <unicode hex="003F"/>
  <outline>
    <contour>
      <point x="40.0" y="629.327868852459" type="line"/>
      <point x="40.0" y="659.8360655737705" type="line"/>
      <point x="78.78688524590164" y="690.0" type="line"/>
      <point x="294.655737704918" y="690.0" type="line" smooth="yes"/>
      <point x="443.37704918032784" y="690.0"/>
      <point x="443.37704918032784" y="541.2786885245902" type="qcurve" smooth="yes"/>
      <point x="443.37704918032784" y="450.8196721311475" type="line" smooth="yes"/>
      <point x="443.37704918032784" y="300.62295081967216"/>
      <point x="296.27868852459017" y="300.62295081967216" type="qcurve" smooth="yes"/>
      <point x="241.98360655737704" y="300.62295081967216" type="line"/>
      <point x="241.98360655737704" y="206.68852459016392" type="line"/>
      <point x="175.39344262295083" y="206.68852459016392" type="line"/>
      <point x="175.39344262295083" y="361.2950819672131" type="line"/>
      <point x="297.59016393442624" y="361.2950819672131" type="line" smooth="yes"/>
      <point x="376.78688524590166" y="361.2950819672131"/>
      <point x="376.78688524590166" y="440.4918032786885" type="qcurve" smooth="yes"/>
      <point x="376.78688524590166" y="550.983606557377" type="line" smooth="yes"/>
      <point x="376.78688524590166" y="629.327868852459"/>
      <point x="297.59016393442624" y="629.327868852459" type="qcurve" smooth="yes"/>
    </contour>
    <contour>
      <point x="167.5737704918033" y="0.0" type="line"/>
      <point x="167.5737704918033" y="97.0655737704918" type="line"/>
      <point x="249.80327868852459" y="97.0655737704918" type="line"/>
      <point x="249.80327868852459" y="0.0" type="line"/>
    </contour>
  </outline>
</glyph>
<glyph name="at" format="2">
  <advance width="797.5081967213115"/>
  <unicode hex="0040"/>
  <outline>
    <contour>
      <point x="92.49180327868852" y="4.655737704918033" type="qcurve" smooth="yes"/>
      <point x="92.49180327868852" y="545.344262295082" type="line" smooth="yes"/>
      <point x="92.49180327868852" y="690.0"/>
      <point x="236.29508196721312" y="690.0" type="qcurve" smooth="yes"/>
      <point x="705.016393442623" y="690.0" type="line"/>
      <point x="705.016393442623" y="60.0" type="line"/>
      <point x="459.1803278688525" y="60.0" type="line" smooth="yes"/>
      <point x="312.4918032786885" y="60.0"/>
      <point x="312.4918032786885" y="206.68852459016392" type="qcurve" smooth="yes"/>
      <point x="312.4918032786885" y="343.3114754098361" type="line" smooth="yes"/>
      <point x="312.4918032786885" y="490.0"/>
      <point x="459.1803278688525" y="490.0" type="qcurve" smooth="yes"/>
      <point x="645.5245901639345" y="490.0" type="line"/>
      <point x="645.5245901639345" y="638.4262295081967" type="line"/>
      <point x="235.47540983606558" y="638.4262295081967" type="line" smooth="yes"/>
      <point x="151.98360655737704" y="638.4262295081967"/>
      <point x="151.98360655737704" y="554.7868852459017" type="qcurve" smooth="yes"/>
      <point x="151.98360655737704" y="-4.786885245901639" type="line" smooth="yes"/>
      <point x="151.98360655737704" y="-88.42622950819673"/>
      <point x="235.47540983606558" y="-88.42622950819673" type="qcurve" smooth="yes"/>
      <point x="685.016393442623" y="-88.42622950819673" type="line"/>
      <point x="685.016393442623" y="-114.42622950819673" type="line"/>
      <point x="650.8196721311475" y="-140.0" type="line"/>
      <point x="236.29508196721312" y="-140.0" type="line" smooth="yes"/>
      <point x="92.49180327868852" y="-140.0"/>
    </contour>
    <contour>
      <point x="375.4918032786885" y="196.68852459016392" type="line" smooth="yes"/>
      <point x="375.4918032786885" y="115.49180327868852"/>
      <point x="456.6885245901639" y="115.49180327868852" type="qcurve" smooth="yes"/>
      <point x="642.016393442623" y="115.49180327868852" type="line"/>
      <point x="642.016393442623" y="434.5081967213115" type="line"/>
      <point x="456.6885245901639" y="434.5081967213115" type="line" smooth="yes"/>
      <point x="375.4918032786885" y="434.5081967213115"/>
      <point x="375.4918032786885" y="353.3114754098361" type="qcurve" smooth="yes"/>
    </contour>
  </outline>
</glyph>
<glyph name="A" format="2">
  <advance width="619.2131147540983"/>
  <unicode hex="0041"/>
  <outline>
    <contour>
      <point x="20.40983606557377" y="15.803278688524589" type="line"/>
      <point x="252.91803278688525" y="690.0" type="line"/>
      <point x="367.1475409836066" y="690.0" type="line"/>
      <point x="598.8032786885246" y="15.803278688524589" type="line"/>
      <point x="588.8852459016393" y="0.0" type="line"/>
      <point x="534.0983606557377" y="0.0" type="line"/>
      <point x="472.8196721311475" y="183.52459016393442" type="line"/>
      <point x="146.39344262295083" y="183.52459016393442" type="line"/>
      <point x="85.11475409836066" y="0.0" type="line"/>
      <point x="31.18032786885246" y="0.0" type="line"/>
    </contour>
    <contour>
      <point x="167.672131147541" y="244.19672131147541" type="line"/>
      <point x="452.39344262295083" y="244.19672131147541" type="line"/>
      <point x="323.27868852459017" y="629.327868852459" type="line"/>
      <point x="296.78688524590166" y="629.327868852459" type="line"/>
    </contour>
  </outline>
</glyph>
<glyph name="B" format="2">
  <advance width="641.5081967213115"/>
  <unicode hex="0042"/>
  <outline>
    <contour>
      <point x="92.49180327868852" y="0.0" type="line"/>
      <point x="92.49180327868852" y="690.0" type="line"/>
      <point x="406.2950819672131" y="690.0" type="line" smooth="yes"/>
      <point x="555.016393442623" y="690.0"/>
      <point x="555.016393442623" y="541.2786885245902" type="qcurve" smooth="yes"/>
      <point x="555.016393442623" y="470.08196721311475" type="line" smooth="yes"/>
      <point x="555.016393442623" y="436.08196721311475"/>
      <point x="535.016393442623" y="412.08196721311475" type="qcurve" smooth="yes"/>
      <point x="500.0163934426229" y="370.08196721311475" type="line"/>
      <point x="542.016393442623" y="335.08196721311475" type="line" smooth="yes"/>
      <point x="575.016393442623" y="308.08196721311475"/>
      <point x="575.016393442623" y="255.08196721311475" type="qcurve" smooth="yes"/>
      <point x="575.016393442623" y="148.72131147540983" type="line" smooth="yes"/>
      <point x="575.016393442623" y="0.0"/>
      <point x="426.2950819672131" y="0.0" type="qcurve" smooth="yes"/>
    </contour>
    <contour>
      <point x="159.08196721311475" y="60.67213114754098" type="line"/>
      <point x="430.08196721311475" y="60.67213114754098" type="line" smooth="yes"/>
      <point x="508.42622950819674" y="60.67213114754098"/>
      <point x="508.42622950819674" y="139.01639344262296" type="qcurve" smooth="yes"/>
      <point x="508.42622950819674" y="255.18032786885246" type="line" smooth="yes"/>
      <point x="508.42622950819674" y="333.5245901639344"/>
      <point x="430.08196721311475" y="333.5245901639344" type="qcurve" smooth="yes"/>
      <point x="159.08196721311475" y="333.5245901639344" type="line"/>
    </contour>
    <contour>
      <point x="159.08196721311475" y="394.1967213114754" type="line"/>
      <point x="410.08196721311475" y="394.1967213114754" type="line" smooth="yes"/>
      <point x="488.42622950819674" y="394.1967213114754"/>
      <point x="488.42622950819674" y="473.39344262295083" type="qcurve" smooth="yes"/>
      <point x="488.42622950819674" y="550.983606557377" type="line" smooth="yes"/>
      <point x="488.42622950819674" y="629.327868852459"/>
      <point x="410.08196721311475" y="629.327868852459" type="qcurve" smooth="yes"/>
      <point x="159.08196721311475" y="629.327868852459" type="line"/>
    </contour>
  </outline>
</glyph>
<glyph name="C" format="2">
  <advance width="606.2786885245902"/>
  <unicode hex="0043"/>
  <outline>
    <contour>
      <point x="82.49180327868852" y="148.72131147540983" type="qcurve" smooth="yes"/>
      <point x="82.49180327868852" y="541.2786885245902" type="line" smooth="yes"/>
      <point x="82.49180327868852" y="690.0"/>
      <point x="231.21311475409837" y="690.0" type="qcurve" smooth="yes"/>
      <point x="517.4918032786885" y="690.0" type="line"/>
      <point x="556.2786885245902" y="659.8360655737705" type="line"/>
      <point x="556.2786885245902" y="629.327868852459" type="line"/>
      <point x="228.27868852459017" y="629.327868852459" type="line" smooth="yes"/>
      <point x="149.08196721311475" y="629.327868852459"/>
      <point x="149.08196721311475" y="550.983606557377" type="qcurve" smooth="yes"/>
      <point x="149.08196721311475" y="139.01639344262296" type="line" smooth="yes"/>
      <point x="149.08196721311475" y="60.67213114754098"/>
      <point x="228.27868852459017" y="60.67213114754098" type="qcurve" smooth="yes"/>
      <point x="556.2786885245902" y="60.67213114754098" type="line"/>
      <point x="556.2786885245902" y="30.16393442622951" type="line"/>
      <point x="517.4918032786885" y="0.0" type="line"/>
      <point x="231.21311475409837" y="0.0" type="line" smooth="yes"/>
      <point x="82.49180327868852" y="0.0"/>
    </contour>
  </outline>
</glyph>
<glyph name="D" format="2">
  <advance width="677.5081967213115"/>
  <unicode hex="0044"/>
  <outline>
    <contour>
      <point x="92.49180327868852" y="0.0" type="line"/>
      <point x="92.49180327868852" y="690.0" type="line"/>
      <point x="364.9836065573771" y="690.0" type="line" smooth="yes"/>
      <point x="605.016393442623" y="690.0"/>
      <point x="605.016393442623" y="449.11475409836066" type="qcurve" smooth="yes"/>
      <point x="605.016393442623" y="240.88524590163934" type="line" smooth="yes"/>
      <point x="605.016393442623" y="0.0"/>
      <point x="364.9836065573771" y="0.0" type="qcurve" smooth="yes"/>
    </contour>
    <contour>
      <point x="159.08196721311475" y="60.67213114754098" type="line"/>
      <point x="369.0163934426229" y="60.67213114754098" type="line" smooth="yes"/>
      <point x="538.4262295081967" y="60.67213114754098"/>
      <point x="538.4262295081967" y="230.2295081967213" type="qcurve" smooth="yes"/>
      <point x="538.4262295081967" y="459.7704918032787" type="line" smooth="yes"/>
      <point x="538.4262295081967" y="629.327868852459"/>
      <point x="369.0163934426229" y="629.327868852459" type="qcurve" smooth="yes"/>
      <point x="159.08196721311475" y="629.327868852459" type="line"/>
    </contour>
  </outline>
</glyph>
<glyph name="E" format="2">
  <advance width="586.2786885245902"/>
  <unicode hex="0045"/>
  <outline>
    <contour>
      <point x="92.49180327868852" y="0.0" type="line"/>
      <point x="92.49180327868852" y="690.0" type="line"/>
      <point x="536.2786885245902" y="690.0" type="line"/>
      <point x="536.2786885245902" y="629.327868852459" type="line"/>
      <point x="159.08196721311475" y="629.327868852459" type="line"/>
      <point x="159.08196721311475" y="394.1967213114754" type="line"/>
      <point x="506.27868852459017" y="394.1967213114754" type="line"/>
      <point x="506.27868852459017" y="333.5245901639344" type="line"/>
      <point x="159.08196721311475" y="333.5245901639344" type="line"/>
      <point x="159.08196721311475" y="60.67213114754098" type="line"/>
      <point x="536.2786885245902" y="60.67213114754098" type="line"/>
      <point x="536.2786885245902" y="0.0" type="line"/>
    </contour>
  </outline>
</glyph>
<glyph name="F" format="2">
  <advance width="566.2786885245902"/>
  <unicode hex="0046"/>
  <outline>
    <contour>
      <point x="92.49180327868852" y="0.0" type="line"/>
      <point x="92.49180327868852" y="690.0" type="line"/>
      <point x="536.2786885245902" y="690.0" type="line"/>
      <point x="536.2786885245902" y="629.327868852459" type="line"/>
      <point x="159.08196721311475" y="629.327868852459" type="line"/>
      <point x="159.08196721311475" y="364.1967213114754" type="line"/>
      <point x="506.27868852459017" y="364.1967213114754" type="line"/>
      <point x="506.27868852459017" y="303.5245901639344" type="line"/>
      <point x="159.08196721311475" y="303.5245901639344" type="line"/>
      <point x="159.08196721311475" y="0.0" type="line"/>
    </contour>
  </outline>
</glyph>
<glyph name="G" format="2">
  <advance width="667.5081967213115"/>
  <unicode hex="0047"/>
  <outline>
    <contour>
      <point x="82.49180327868852" y="148.72131147540983" type="qcurve" smooth="yes"/>
      <point x="82.49180327868852" y="541.2786885245902" type="line" smooth="yes"/>
      <point x="82.49180327868852" y="690.0"/>
      <point x="231.21311475409837" y="690.0" type="qcurve" smooth="yes"/>
      <point x="537.0819672131148" y="690.0" type="line"/>
      <point x="575.016393442623" y="659.8360655737705" type="line"/>
      <point x="575.016393442623" y="629.327868852459" type="line"/>
      <point x="228.27868852459017" y="629.327868852459" type="line" smooth="yes"/>
      <point x="149.08196721311475" y="629.327868852459"/>
      <point x="149.08196721311475" y="550.983606557377" type="qcurve" smooth="yes"/>
      <point x="149.08196721311475" y="139.01639344262296" type="line" smooth="yes"/>
      <point x="149.08196721311475" y="60.67213114754098"/>
      <point x="228.27868852459017" y="60.67213114754098" type="qcurve" smooth="yes"/>
      <point x="528.4262295081967" y="60.67213114754098" type="line"/>
      <point x="528.4262295081967" y="333.5245901639344" type="line"/>
      <point x="348.08196721311475" y="333.5245901639344" type="line"/>
      <point x="348.08196721311475" y="394.1967213114754" type="line"/>
      <point x="595.016393442623" y="394.1967213114754" type="line"/>
      <point x="595.016393442623" y="0.0" type="line"/>
      <point x="231.21311475409837" y="0.0" type="line" smooth="yes"/>
      <point x="82.49180327868852" y="0.0"/>
    </contour>
  </outline>
</glyph>
<glyph name="H" format="2">
  <advance width="697.5081967213115"/>
  <unicode hex="0048"/>
  <outline>
    <contour>
      <point x="92.49180327868852" y="0.0" type="line"/>
      <point x="92.49180327868852" y="690.0" type="line"/>
      <point x="159.08196721311475" y="690.0" type="line"/>
      <point x="159.08196721311475" y="394.1967213114754" type="line"/>
      <point x="538.4262295081967" y="394.1967213114754" type="line"/>
      <point x="538.4262295081967" y="690.0" type="line"/>
      <point x="605.016393442623" y="690.0" type="line"/>
      <point x="605.016393442623" y="0.0" type="line"/>
      <point x="538.4262295081967" y="0.0" type="line"/>
      <point x="538.4262295081967" y="333.5245901639344" type="line"/>
      <point x="159.08196721311475" y="333.5245901639344" type="line"/>
      <point x="159.08196721311475" y="0.0" type="line"/>
    </contour>
  </outline>
</glyph>
<glyph name="I" format="2">
  <advance width="251.5737704918033"/>
  <unicode hex="0049"/>
  <outline>
    <contour>
      <point x="92.49180327868852" y="0.0" type="line"/>
      <point x="92.49180327868852" y="690.0" type="line"/>
      <point x="159.08196721311475" y="690.0" type="line"/>
      <point x="159.08196721311475" y="0.0" type="line"/>
    </contour>
  </outline>
</glyph>
<glyph name="J" format="2">
  <advance width="601.5081967213115"/>
  <unicode hex="004A"/>
  <outline>
    <contour>
      <point x="62.49180327868852" y="148.72131147540983" type="qcurve" smooth="yes"/>
      <point x="62.49180327868852" y="248.39344262295083" type="line"/>
      <point x="129.08196721311475" y="248.39344262295083" type="line"/>
      <point x="129.08196721311475" y="139.01639344262296" type="line" smooth="yes"/>
      <point x="129.08196721311475" y="60.67213114754098"/>
      <point x="208.27868852459017" y="60.67213114754098" type="qcurve" smooth="yes"/>
      <point x="370.08196721311475" y="60.67213114754098" type="line" smooth="yes"/>
      <point x="448.42622950819674" y="60.67213114754098"/>
      <point x="448.42622950819674" y="139.01639344262296" type="qcurve" smooth="yes"/>
      <point x="448.42622950819674" y="629.327868852459" type="line"/>
      <point x="212.08196721311475" y="629.327868852459" type="line"/>
      <point x="212.08196721311475" y="690.0" type="line"/>
      <point x="515.016393442623" y="690.0" type="line"/>
      <point x="515.016393442623" y="148.72131147540983" type="line" smooth="yes"/>
      <point x="515.016393442623" y="0.0"/>
      <point x="366.2950819672131" y="0.0" type="qcurve" smooth="yes"/>
      <point x="211.21311475409837" y="0.0" type="line" smooth="yes"/>
      <point x="62.49180327868852" y="0.0"/>
    </contour>
  </outline>
</glyph>
<glyph name="K" format="2">
  <advance width="617.983606557377"/>
  <unicode hex="004B"/>
  <outline>
    <contour>
      <point x="92.49180327868852" y="0.0" type="line"/>
      <point x="92.49180327868852" y="690.0" type="line"/>
      <point x="159.08196721311475" y="690.0" type="line"/>
      <point x="159.08196721311475" y="312.2295081967213" type="line"/>
      <point x="497.5081967213115" y="690.0" type="line"/>
      <point x="557.5081967213115" y="690.0" type="line"/>
      <point x="564.983606557377" y="673.9016393442623" type="line"/>
      <point x="323.9344262295082" y="406.0" type="line"/>
      <point x="587.5737704918033" y="16.098360655737704" type="line"/>
      <point x="580.0983606557377" y="0.0" type="line"/>
      <point x="518.983606557377" y="0.0" type="line"/>
      <point x="280.1311475409836" y="357.57377049180326" type="line"/>
      <point x="159.08196721311475" y="223.44262295081967" type="line"/>
      <point x="159.08196721311475" y="0.0" type="line"/>
    </contour>
  </outline>
</glyph>
<glyph name="L" format="2">
  <advance width="530.2786885245902"/>
  <unicode hex="004C"/>
  <outline>
    <contour>
      <point x="92.49180327868852" y="0.0" type="line"/>
      <point x="92.49180327868852" y="690.0" type="line"/>
      <point x="159.08196721311475" y="690.0" type="line"/>
      <point x="159.08196721311475" y="60.67213114754098" type="line"/>
      <point x="506.27868852459017" y="60.67213114754098" type="line"/>
      <point x="506.27868852459017" y="0.0" type="line"/>
    </contour>
  </outline>
</glyph>
<glyph name="M" format="2">
  <advance width="853.1803278688525"/>
  <unicode hex="004D"/>
  <outline>
    <contour>
      <point x="92.49180327868852" y="0.0" type="line"/>
      <point x="92.49180327868852" y="690.0" type="line"/>
      <point x="185.37704918032787" y="690.0" type="line"/>
      <point x="427.0163934426229" y="177.60655737704917" type="line"/>
      <point x="667.8032786885246" y="690.0" type="line"/>
      <point x="760.688524590164" y="690.0" type="line"/>
      <point x="760.688524590164" y="0.0" type="line"/>
      <point x="694.0983606557377" y="0.0" type="line"/>
      <point x="694.0983606557377" y="601.311475409836" type="line"/>
      <point x="460.3606557377049" y="102.90163934426229" type="line"/>
      <point x="392.8196721311475" y="102.90163934426229" type="line"/>
      <point x="159.08196721311475" y="601.311475409836" type="line"/>
      <point x="159.08196721311475" y="0.0" type="line"/>
    </contour>
  </outline>
</glyph>
<glyph name="N" format="2">
  <advance width="714.6065573770492"/>
  <unicode hex="004E"/>
  <outline>
    <contour>
      <point x="92.49180327868852" y="0.0" type="line"/>
      <point x="92.49180327868852" y="690.0" type="line"/>
      <point x="167.11475409836066" y="690.0" type="line"/>
      <point x="555.5245901639345" y="99.04918032786885" type="line"/>
      <point x="555.5245901639345" y="690.0" type="line"/>
      <point x="622.1147540983607" y="690.0" type="line"/>
      <point x="622.1147540983607" y="0.0" type="line"/>
      <point x="547.639344262295" y="0.0" type="line"/>
      <point x="159.08196721311475" y="590.9508196721312" type="line"/>
      <point x="159.08196721311475" y="0.0" type="line"/>
    </contour>
  </outline>
</glyph>
<glyph name="O" format="2">
  <advance width="697.5081967213115"/>
  <unicode hex="004F"/>
  <outline>
    <contour>
      <point x="82.49180327868852" y="148.72131147540983" type="qcurve" smooth="yes"/>
      <point x="82.49180327868852" y="541.2786885245902" type="line" smooth="yes"/>
      <point x="82.49180327868852" y="690.0"/>
      <point x="231.21311475409837" y="690.0" type="qcurve" smooth="yes"/>
      <point x="466.2950819672131" y="690.0" type="line" smooth="yes"/>
      <point x="615.016393442623" y="690.0"/>
      <point x="615.016393442623" y="541.2786885245902" type="qcurve" smooth="yes"/>
      <point x="615.016393442623" y="148.72131147540983" type="line" smooth="yes"/>
      <point x="615.016393442623" y="0.0"/>
      <point x="466.2950819672131" y="0.0" type="qcurve" smooth="yes"/>
      <point x="231.21311475409837" y="0.0" type="line" smooth="yes"/>
      <point x="82.49180327868852" y="0.0"/>
    </contour>
    <contour>
      <point x="149.08196721311475" y="139.01639344262296" type="line" smooth="yes"/>
      <point x="149.08196721311475" y="60.67213114754098"/>
      <point x="228.27868852459017" y="60.67213114754098" type="qcurve" smooth="yes"/>
      <point x="470.08196721311475" y="60.67213114754098" type="line" smooth="yes"/>
      <point x="548.4262295081967" y="60.67213114754098"/>
      <point x="548.4262295081967" y="139.01639344262296" type="qcurve" smooth="yes"/>
      <point x="548.4262295081967" y="550.983606557377" type="line" smooth="yes"/>
      <point x="548.4262295081967" y="629.327868852459"/>
      <point x="470.08196721311475" y="629.327868852459" type="qcurve" smooth="yes"/>
      <point x="228.27868852459017" y="629.327868852459" type="line" smooth="yes"/>
      <point x="149.08196721311475" y="629.327868852459"/>
      <point x="149.08196721311475" y="550.983606557377" type="qcurve" smooth="yes"/>
    </contour>
  </outline>
</glyph>
<glyph name="P" format="2">
  <advance width="627.5081967213115"/>
  <unicode hex="0050"/>
  <outline>
    <contour>
      <point x="92.49180327868852" y="0.0" type="line"/>
      <point x="92.49180327868852" y="690.0" type="line"/>
      <point x="416.2950819672131" y="690.0" type="line" smooth="yes"/>
      <point x="565.016393442623" y="690.0"/>
      <point x="565.016393442623" y="541.2786885245902" type="qcurve" smooth="yes"/>
      <point x="565.016393442623" y="412.0983606557377" type="line" smooth="yes"/>
      <point x="565.016393442623" y="263.5245901639344"/>
      <point x="416.2950819672131" y="263.5245901639344" type="qcurve" smooth="yes"/>
      <point x="159.08196721311475" y="263.5245901639344" type="line"/>
      <point x="159.08196721311475" y="0.0" type="line"/>
    </contour>
    <contour>
      <point x="159.08196721311475" y="324.1967213114754" type="line"/>
      <point x="420.08196721311475" y="324.1967213114754" type="line" smooth="yes"/>
      <point x="498.42622950819674" y="324.1967213114754"/>
      <point x="498.42622950819674" y="403.39344262295083" type="qcurve" smooth="yes"/>
      <point x="498.42622950819674" y="550.983606557377" type="line" smooth="yes"/>
      <point x="498.42622950819674" y="629.327868852459"/>
      <point x="420.08196721311475" y="629.327868852459" type="qcurve" smooth="yes"/>
      <point x="159.08196721311475" y="629.327868852459" type="line"/>
    </contour>
  </outline>
</glyph>
<glyph name="Q" format="2">
  <advance width="697.5081967213115"/>
  <unicode hex="0051"/>
  <outline>
    <contour>
      <point x="82.49180327868852" y="148.72131147540983" type="qcurve" smooth="yes"/>
      <point x="82.49180327868852" y="541.2786885245902" type="line" smooth="yes"/>
      <point x="82.49180327868852" y="690.0"/>
      <point x="231.21311475409837" y="690.0" type="qcurve" smooth="yes"/>
      <point x="466.2950819672131" y="690.0" type="line" smooth="yes"/>
      <point x="615.016393442623" y="690.0"/>
      <point x="615.016393442623" y="541.2786885245902" type="qcurve" smooth="yes"/>
      <point x="615.016393442623" y="147.86885245901638" type="line" smooth="yes"/>
      <point x="615.016393442623" y="7.60655737704918"/>
      <point x="479.4754098360656" y="1.4754098360655736" type="qcurve"/>
      <point x="547.7377049180328" y="-132.9016393442623" type="line"/>
      <point x="538.8196721311475" y="-150.0" type="line"/>
      <point x="483.2950819672131" y="-150.0" type="line"/>
      <point x="407.2950819672131" y="0.0" type="line"/>
      <point x="231.21311475409837" y="0.0" type="line" smooth="yes"/>
      <point x="82.49180327868852" y="0.0"/>
    </contour>
    <contour>
      <point x="149.08196721311475" y="139.01639344262296" type="line" smooth="yes"/>
      <point x="149.08196721311475" y="60.67213114754098"/>
      <point x="228.27868852459017" y="60.67213114754098" type="qcurve" smooth="yes"/>
      <point x="470.08196721311475" y="60.67213114754098" type="line" smooth="yes"/>
      <point x="548.4262295081967" y="60.67213114754098"/>
      <point x="548.4262295081967" y="139.01639344262296" type="qcurve" smooth="yes"/>
      <point x="548.4262295081967" y="550.983606557377" type="line" smooth="yes"/>
      <point x="548.4262295081967" y="629.327868852459"/>
      <point x="470.08196721311475" y="629.327868852459" type="qcurve" smooth="yes"/>
      <point x="228.27868852459017" y="629.327868852459" type="line" smooth="yes"/>
      <point x="149.08196721311475" y="629.327868852459"/>
      <point x="149.08196721311475" y="550.983606557377" type="qcurve" smooth="yes"/>
    </contour>
  </outline>
</glyph>
<glyph name="R" format="2">
  <advance width="637.5081967213115"/>
  <unicode hex="0052"/>
  <outline>
    <contour>
      <point x="92.49180327868852" y="0.0" type="line"/>
      <point x="92.49180327868852" y="690.0" type="line"/>
      <point x="416.2950819672131" y="690.0" type="line" smooth="yes"/>
      <point x="565.016393442623" y="690.0"/>
      <point x="565.016393442623" y="541.2786885245902" type="qcurve" smooth="yes"/>
      <point x="565.016393442623" y="432.0983606557377" type="line" smooth="yes"/>
      <point x="565.016393442623" y="300.72131147540983"/>
      <point x="448.62295081967216" y="286.59016393442624" type="qcurve"/>
      <point x="585.016393442623" y="17.098360655737704" type="line"/>
      <point x="576.0983606557377" y="0.0" type="line"/>
      <point x="520.7213114754098" y="0.0" type="line"/>
      <point x="376.88524590163934" y="283.5245901639344" type="line"/>
      <point x="159.08196721311475" y="283.5245901639344" type="line"/>
      <point x="159.08196721311475" y="0.0" type="line"/>
    </contour>
    <contour>
      <point x="159.08196721311475" y="344.1967213114754" type="line"/>
      <point x="420.08196721311475" y="344.1967213114754" type="line" smooth="yes"/>
      <point x="498.42622950819674" y="344.1967213114754"/>
      <point x="498.42622950819674" y="423.39344262295083" type="qcurve" smooth="yes"/>
      <point x="498.42622950819674" y="550.983606557377" type="line" smooth="yes"/>
      <point x="498.42622950819674" y="629.327868852459"/>
      <point x="420.08196721311475" y="629.327868852459" type="qcurve" smooth="yes"/>
      <point x="159.08196721311475" y="629.327868852459" type="line"/>
    </contour>
  </outline>
</glyph>
<glyph name="S" format="2">
  <advance width="577.5081967213115"/>
  <unicode hex="0053"/>
  <outline>
    <contour>
      <point x="62.49180327868852" y="30.16393442622951" type="line"/>
      <point x="62.49180327868852" y="60.67213114754098" type="line"/>
      <point x="370.08196721311475" y="60.67213114754098" type="line" smooth="yes"/>
      <point x="448.42622950819674" y="60.67213114754098"/>
      <point x="448.42622950819674" y="139.01639344262296" type="qcurve" smooth="yes"/>
      <point x="448.42622950819674" y="223.21311475409837" type="line" smooth="yes"/>
      <point x="448.42622950819674" y="288.3606557377049"/>
      <point x="390.39344262295083" y="299.73770491803276" type="qcurve" smooth="yes"/>
      <point x="169.59016393442624" y="344.55737704918033" type="line" smooth="yes"/>
      <point x="62.49180327868852" y="366.0"/>
      <point x="62.49180327868852" y="488.5409836065574" type="qcurve" smooth="yes"/>
      <point x="62.49180327868852" y="541.2786885245902" type="line" smooth="yes"/>
      <point x="62.49180327868852" y="690.0"/>
      <point x="211.21311475409837" y="690.0" type="qcurve" smooth="yes"/>
      <point x="457.08196721311475" y="690.0" type="line"/>
      <point x="495.0163934426229" y="659.8360655737705" type="line"/>
      <point x="495.0163934426229" y="629.327868852459" type="line"/>
      <point x="208.27868852459017" y="629.327868852459" type="line" smooth="yes"/>
      <point x="129.08196721311475" y="629.327868852459"/>
      <point x="129.08196721311475" y="550.983606557377" type="qcurve" smooth="yes"/>
      <point x="129.08196721311475" y="481.8688524590164" type="line" smooth="yes"/>
      <point x="129.08196721311475" y="416.0163934426229"/>
      <point x="187.11475409836066" y="404.4918032786885" type="qcurve" smooth="yes"/>
      <point x="407.91803278688525" y="360.8196721311475" type="line" smooth="yes"/>
      <point x="515.016393442623" y="339.08196721311475"/>
      <point x="515.016393442623" y="216.68852459016392" type="qcurve" smooth="yes"/>
      <point x="515.016393442623" y="148.72131147540983" type="line" smooth="yes"/>
      <point x="515.016393442623" y="0.0"/>
      <point x="366.2950819672131" y="0.0" type="qcurve" smooth="yes"/>
      <point x="101.27868852459017" y="0.0" type="line"/>
    </contour>
  </outline>
</glyph>
<glyph name="T" format="2">
  <advance width="586.1967213114754"/>
  <unicode hex="0054"/>
  <outline>
    <contour>
      <point x="24.0" y="629.327868852459" type="line"/>
      <point x="24.0" y="690.0" type="line"/>
      <point x="562.1967213114754" y="690.0" type="line"/>
      <point x="562.1967213114754" y="629.327868852459" type="line"/>
      <point x="326.39344262295083" y="629.327868852459" type="line"/>
      <point x="326.39344262295083" y="0.0" type="line"/>
      <point x="259.8032786885246" y="0.0" type="line"/>
      <point x="259.8032786885246" y="629.327868852459" type="line"/>
    </contour>
  </outline>
</glyph>
<glyph name="U" format="2">
  <advance width="685.5081967213115"/>
  <unicode hex="0055"/>
  <outline>
    <contour>
      <point x="86.49180327868852" y="148.72131147540983" type="qcurve" smooth="yes"/>
      <point x="86.49180327868852" y="690.0" type="line"/>
      <point x="153.08196721311475" y="690.0" type="line"/>
      <point x="153.08196721311475" y="139.01639344262296" type="line" smooth="yes"/>
      <point x="153.08196721311475" y="60.67213114754098"/>
      <point x="232.27868852459017" y="60.67213114754098" type="qcurve" smooth="yes"/>
      <point x="454.08196721311475" y="60.67213114754098" type="line" smooth="yes"/>
      <point x="532.4262295081967" y="60.67213114754098"/>
      <point x="532.4262295081967" y="139.01639344262296" type="qcurve" smooth="yes"/>
      <point x="532.4262295081967" y="690.0" type="line"/>
      <point x="599.016393442623" y="690.0" type="line"/>
      <point x="599.016393442623" y="148.72131147540983" type="line" smooth="yes"/>
      <point x="599.016393442623" y="0.0"/>
      <point x="450.2950819672131" y="0.0" type="qcurve" smooth="yes"/>
      <point x="235.21311475409837" y="0.0" type="line" smooth="yes"/>
      <point x="86.49180327868852" y="0.0"/>
    </contour>
  </outline>
</glyph>
<glyph name="V" format="2">
  <advance width="609.2131147540983"/>
  <unicode hex="0056"/>
  <outline>
    <contour>
      <point x="20.40983606557377" y="674.1967213114754" type="line"/>
      <point x="31.18032786885246" y="690.0" type="line"/>
      <point x="86.29508196721312" y="690.0" type="line"/>
      <point x="291.78688524590166" y="60.67213114754098" type="line"/>
      <point x="318.27868852459017" y="60.67213114754098" type="line"/>
      <point x="523.7704918032787" y="690.0" type="line"/>
      <point x="578.8852459016393" y="690.0" type="line"/>
      <point x="588.8032786885246" y="674.1967213114754" type="line"/>
      <point x="364.59016393442624" y="0.0" type="line"/>
      <point x="244.62295081967213" y="0.0" type="line"/>
    </contour>
  </outline>
</glyph>
<glyph name="W" format="2">
  <advance width="909.2131147540983"/>
  <unicode hex="0057"/>
  <outline>
    <contour>
      <point x="30.40983606557377" y="674.1967213114754" type="line"/>
      <point x="41.47540983606557" y="690.0" type="line"/>
      <point x="93.40983606557377" y="690.0" type="line"/>
      <point x="247.2295081967213" y="60.67213114754098" type="line"/>
      <point x="261.344262295082" y="60.67213114754098" type="line"/>
      <point x="421.60655737704917" y="611.0983606557377" type="line"/>
      <point x="488.4590163934426" y="611.0983606557377" type="line"/>
      <point x="647.8688524590164" y="60.67213114754098" type="line"/>
      <point x="662.8360655737705" y="60.67213114754098" type="line"/>
      <point x="815.8032786885246" y="690.0" type="line"/>
      <point x="867.7377049180328" y="690.0" type="line"/>
      <point x="878.8032786885246" y="674.1967213114754" type="line"/>
      <point x="713.1803278688525" y="0.0" type="line"/>
      <point x="600.2950819672132" y="0.0" type="line"/>
      <point x="454.60655737704917" y="511.7377049180328" type="line"/>
      <point x="308.91803278688525" y="0.0" type="line"/>
      <point x="196.88524590163934" y="0.0" type="line"/>
    </contour>
  </outline>
</glyph>
<glyph name="X" format="2">
  <advance width="599.2131147540983"/>
  <unicode hex="0058"/>
  <outline>
    <contour>
      <point x="30.40983606557377" y="16.098360655737704" type="line"/>
      <point x="261.72131147540983" y="355.0" type="line"/>
      <point x="43.40983606557377" y="673.9016393442623" type="line"/>
      <point x="50.885245901639344" y="690.0" type="line"/>
      <point x="108.40983606557377" y="690.0" type="line"/>
      <point x="299.60655737704917" y="405.4918032786885" type="line"/>
      <point x="490.8032786885246" y="690.0" type="line"/>
      <point x="548.327868852459" y="690.0" type="line"/>
      <point x="555.8032786885246" y="673.9016393442623" type="line"/>
      <point x="337.4918032786885" y="355.0" type="line"/>
      <point x="568.8032786885246" y="16.098360655737704" type="line"/>
      <point x="561.1803278688525" y="0.0" type="line"/>
      <point x="503.8032786885246" y="0.0" type="line"/>
      <point x="299.60655737704917" y="305.21311475409834" type="line"/>
      <point x="95.40983606557377" y="0.0" type="line"/>
      <point x="38.032786885245905" y="0.0" type="line"/>
    </contour>
  </outline>
</glyph>
<glyph name="Y" format="2">
  <advance width="569.2131147540983"/>
  <unicode hex="0059"/>
  <outline>
    <contour>
      <point x="20.40983606557377" y="674.1967213114754" type="line"/>
      <point x="30.18032786885246" y="690.0" type="line"/>
      <point x="85.40983606557377" y="690.0" type="line"/>
      <point x="284.60655737704917" y="324.40983606557376" type="line"/>
      <point x="483.8032786885246" y="690.0" type="line"/>
      <point x="539.8852459016393" y="690.0" type="line"/>
      <point x="548.8032786885246" y="674.1967213114754" type="line"/>
      <point x="317.9016393442623" y="259.3114754098361" type="line"/>
      <point x="317.9016393442623" y="0.0" type="line"/>
      <point x="251.31147540983608" y="0.0" type="line"/>
      <point x="251.31147540983608" y="259.3114754098361" type="line"/>
    </contour>
  </outline>
</glyph>
<glyph name="Z" format="2">
  <advance width="597.5081967213115"/>
  <unicode hex="005A"/>
  <outline>
    <contour>
      <point x="52.49180327868852" y="0.0" type="line"/>
      <point x="52.49180327868852" y="53.868852459016395" type="line"/>
      <point x="453.8196721311475" y="629.327868852459" type="line"/>
      <point x="62.49180327868852" y="629.327868852459" type="line"/>
      <point x="62.49180327868852" y="690.0" type="line"/>
      <point x="535.016393442623" y="690.0" type="line"/>
      <point x="535.016393442623" y="636.1311475409836" type="line"/>
      <point x="133.68852459016392" y="60.67213114754098" type="line"/>
      <point x="545.016393442623" y="60.67213114754098" type="line"/>
      <point x="545.016393442623" y="0.0" type="line"/>
    </contour>
  </outline>
</glyph>
<glyph name="bracketleft" format="2">
  <advance width="327.9836065573771"/>
  <unicode hex="005B"/>
  <outline>
    <contour>
      <point x="92.49180327868852" y="-180.0" type="line"/>
      <point x="92.49180327868852" y="760.0" type="line"/>
      <point x="297.9836065573771" y="760.0" type="line"/>
      <point x="297.9836065573771" y="704.5081967213115" type="line"/>
      <point x="155.49180327868854" y="704.5081967213115" type="line"/>
      <point x="155.49180327868854" y="-124.50819672131148" type="line"/>
      <point x="297.9836065573771" y="-124.50819672131148" type="line"/>
      <point x="297.9836065573771" y="-180.0" type="line"/>
    </contour>
  </outline>
</glyph>
<glyph name="backslash" format="2">
  <advance width="376.3114754098361"/>
  <unicode hex="005C"/>
  <outline>
    <contour>
      <point x="20.0" y="717.344262295082" type="line"/>
      <point x="75.60655737704919" y="737.5081967213115" type="line"/>
      <point x="356.3114754098361" y="-27.34426229508197" type="line"/>
      <point x="301.7049180327869" y="-47.50819672131148" type="line"/>
    </contour>
  </outline>
</glyph>
<glyph name="bracketright" format="2">
  <advance width="327.9836065573771"/>
  <unicode hex="005D"/>
  <outline>
    <contour>
      <point x="30.0" y="-124.50819672131148" type="line"/>
      <point x="172.49180327868854" y="-124.50819672131148" type="line"/>
      <point x="172.49180327868854" y="704.5081967213115" type="line"/>
      <point x="30.0" y="704.5081967213115" type="line"/>
      <point x="30.0" y="760.0" type="line"/>
      <point x="235.49180327868854" y="760.0" type="line"/>
      <point x="235.49180327868854" y="-180.0" type="line"/>
      <point x="30.0" y="-180.0" type="line"/>
    </contour>
  </outline>
</glyph>
<glyph name="asciicircum" format="2">
  <advance width="533.3770491803278"/>
  <unicode hex="005E"/>
  <outline>
    <contour>
      <point x="42.49180327868852" y="341.5409836065574" type="line"/>
      <point x="235.27868852459017" y="690.0" type="line"/>
      <point x="298.0983606557377" y="690.0" type="line"/>
      <point x="490.88524590163934" y="341.5409836065574" type="line"/>
      <point x="439.9016393442623" y="313.3114754098361" type="line"/>
      <point x="266.6885245901639" y="630.0655737704918" type="line"/>
      <point x="93.47540983606558" y="313.3114754098361" type="line"/>
    </contour>
  </outline>
</glyph>
<glyph name="underscore" format="2">
  <advance width="580.0"/>
  <unicode hex="005F"/>
  <outline>
    <contour>
      <point x="40.0" y="-144.0983606557377" type="line"/>
      <point x="540.0" y="-144.0983606557377" type="line"/>
      <point x="540.0" y="-200.0" type="line"/>
      <point x="40.0" y="-200.0" type="line"/>
    </contour>
  </outline>
</glyph>
<glyph name="a" format="2">
  <advance width="539.5081967213115"/>
  <unicode hex="0061"/>
  <outline>
    <contour>
      <point x="202.0327868852459" y="0.0" type="line" smooth="yes"/>
      <point x="54.49180327868852" y="0.0"/>
      <point x="54.49180327868852" y="297.0163934426229"/>
      <point x="202.0327868852459" y="297.0163934426229" type="qcurve" smooth="yes"/>
      <point x="398.0163934426229" y="297.0163934426229" type="line"/>
      <point x="398.0163934426229" y="380.8196721311475" type="line" smooth="yes"/>
      <point x="398.0163934426229" y="462.0163934426229"/>
      <point x="316.8196721311475" y="462.0163934426229" type="qcurve" smooth="yes"/>
      <point x="102.40983606557377" y="462.0163934426229" type="line"/>
      <point x="102.40983606557377" y="491.9344262295082" type="line"/>
      <point x="136.60655737704917" y="517.5081967213115" type="line"/>
      <point x="315.1803278688525" y="517.5081967213115" type="line" smooth="yes"/>
      <point x="461.0163934426229" y="517.5081967213115"/>
      <point x="461.0163934426229" y="370.8196721311475" type="qcurve" smooth="yes"/>
      <point x="461.0163934426229" y="0.0" type="line"/>
    </contour>
    <contour>
      <point x="117.49180327868852" y="136.68852459016392" type="line" smooth="yes"/>
      <point x="117.49180327868852" y="55.49180327868852"/>
      <point x="198.68852459016392" y="55.49180327868852" type="qcurve" smooth="yes"/>
      <point x="398.0163934426229" y="55.49180327868852" type="line"/>
      <point x="398.0163934426229" y="244.327868852459" type="line"/>
      <point x="198.68852459016392" y="244.327868852459" type="line" smooth="yes"/>
      <point x="117.49180327868852" y="244.327868852459"/>
      <point x="117.49180327868852" y="163.13114754098362" type="qcurve" smooth="yes"/>
    </contour>
  </outline>
</glyph>
<glyph name="c" format="2">
  <advance width="500.27868852459017"/>
  <unicode hex="0063"/>
  <outline>
    <contour>
      <point x="74.49180327868852" y="146.68852459016392" type="qcurve" smooth="yes"/>
      <point x="74.49180327868852" y="370.8196721311475" type="line" smooth="yes"/>
      <point x="74.49180327868852" y="517.5081967213115"/>
      <point x="221.18032786885246" y="517.5081967213115" type="qcurve" smooth="yes"/>
      <point x="420.08196721311475" y="517.5081967213115" type="line"/>
      <point x="454.27868852459017" y="491.9344262295082" type="line"/>
      <point x="454.27868852459017" y="462.0163934426229" type="line"/>
      <point x="218.68852459016392" y="462.0163934426229" type="line" smooth="yes"/>
      <point x="137.49180327868854" y="462.0163934426229"/>
      <point x="137.49180327868854" y="380.8196721311475" type="qcurve" smooth="yes"/>
      <point x="137.49180327868854" y="136.68852459016392" type="line" smooth="yes"/>
      <point x="137.49180327868854" y="55.49180327868852"/>
      <point x="218.68852459016392" y="55.49180327868852" type="qcurve" smooth="yes"/>
      <point x="454.27868852459017" y="55.49180327868852" type="line"/>
      <point x="454.27868852459017" y="25.57377049180328" type="line"/>
      <point x="420.08196721311475" y="0.0" type="line"/>
      <point x="221.18032786885246" y="0.0" type="line" smooth="yes"/>
      <point x="74.49180327868852" y="0.0"/>
    </contour>
  </outline>
</glyph>
<glyph name="d" format="2">
  <advance width="579.5081967213115"/>
  <unicode hex="0064"/>
  <outline>
    <contour>
      <point x="74.49180327868852" y="146.68852459016392" type="qcurve" smooth="yes"/>
      <point x="74.49180327868852" y="370.8196721311475" type="line" smooth="yes"/>
      <point x="74.49180327868852" y="517.5081967213115"/>
      <point x="221.18032786885246" y="517.5081967213115" type="qcurve" smooth="yes"/>
      <point x="434.0163934426229" y="517.5081967213115" type="line"/>
      <point x="434.0163934426229" y="740.0" type="line"/>
      <point x="497.0163934426229" y="740.0" type="line"/>
      <point x="497.0163934426229" y="0.0" type="line"/>
      <point x="221.18032786885246" y="0.0" type="line" smooth="yes"/>
      <point x="74.49180327868852" y="0.0"/>
    </contour>
    <contour>
      <point x="137.49180327868854" y="136.68852459016392" type="line" smooth="yes"/>
      <point x="137.49180327868854" y="55.49180327868852"/>
      <point x="218.68852459016392" y="55.49180327868852" type="qcurve" smooth="yes"/>
      <point x="434.0163934426229" y="55.49180327868852" type="line"/>
      <point x="434.0163934426229" y="462.0163934426229" type="line"/>
      <point x="218.68852459016392" y="462.0163934426229" type="line" smooth="yes"/>
      <point x="137.49180327868854" y="462.0163934426229"/>
      <point x="137.49180327868854" y="380.8196721311475" type="qcurve" smooth="yes"/>
    </contour>
  </outline>
</glyph>
<glyph name="f" format="2">
  <advance width="370.88524590163934"/>
  <unicode hex="0066"/>
  <outline>
    <contour>
      <point x="82.49180327868852" y="0.0" type="line"/>
      <point x="82.49180327868852" y="593.311475409836" type="line" smooth="yes"/>
      <point x="82.49180327868852" y="740.0"/>
      <point x="229.18032786885246" y="740.0" type="qcurve" smooth="yes"/>
      <point x="316.6885245901639" y="740.0" type="line"/>
      <point x="350.88524590163934" y="714.4262295081967" type="line"/>
      <point x="350.88524590163934" y="684.5081967213115" type="line"/>
      <point x="226.68852459016392" y="684.5081967213115" type="line" smooth="yes"/>
      <point x="145.49180327868854" y="684.5081967213115"/>
      <point x="145.49180327868854" y="603.311475409836" type="qcurve" smooth="yes"/>
      <point x="145.49180327868854" y="517.5081967213115" type="line"/>
      <point x="340.88524590163934" y="517.5081967213115" type="line"/>
      <point x="340.88524590163934" y="462.0163934426229" type="line"/>
      <point x="145.49180327868854" y="462.0163934426229" type="line"/>
      <point x="145.49180327868854" y="0.0" type="line"/>
    </contour>
  </outline>
</glyph>
<glyph name="g" format="2">
  <advance width="582.0"/>
  <unicode hex="0067"/>
  <outline>
    <contour>
      <point x="75.31147540983606" y="146.68852459016392" type="qcurve" smooth="yes"/>
      <point x="75.31147540983606" y="370.8196721311475" type="line" smooth="yes"/>
      <point x="75.31147540983606" y="517.5081967213115"/>
      <point x="222.0" y="517.5081967213115" type="qcurve" smooth="yes"/>
      <point x="498.6885245901639" y="517.5081967213115" type="line"/>
      <point x="498.6885245901639" y="-53.31147540983606" type="line" smooth="yes"/>
      <point x="498.6885245901639" y="-200.0"/>
      <point x="352.0" y="-200.0" type="qcurve" smooth="yes"/>
      <point x="148.13114754098362" y="-200.0" type="line"/>
      <point x="113.93442622950819" y="-174.4262295081967" type="line"/>
      <point x="113.93442622950819" y="-144.50819672131146" type="line"/>
      <point x="354.4918032786885" y="-144.50819672131146" type="line" smooth="yes"/>
      <point x="435.6885245901639" y="-144.50819672131146"/>
      <point x="435.6885245901639" y="-63.31147540983606" type="qcurve" smooth="yes"/>
      <point x="435.6885245901639" y="0.0" type="line"/>
      <point x="222.0" y="0.0" type="line" smooth="yes"/>
      <point x="75.31147540983606" y="0.0"/>
    </contour>
    <contour>
      <point x="138.31147540983608" y="136.68852459016392" type="line" smooth="yes"/>
      <point x="138.31147540983608" y="55.49180327868852"/>
      <point x="219.50819672131146" y="55.49180327868852" type="qcurve" smooth="yes"/>
      <point x="435.6885245901639" y="55.49180327868852" type="line"/>
      <point x="435.6885245901639" y="462.0163934426229" type="line"/>
      <point x="219.50819672131146" y="462.0163934426229" type="line" smooth="yes"/>
      <point x="138.31147540983608" y="462.0163934426229"/>
      <point x="138.31147540983608" y="380.8196721311475" type="qcurve" smooth="yes"/>
    </contour>
  </outline>
</glyph>
<glyph name="j" format="2">
  <advance width="227.98360655737704"/>
  <unicode hex="006A"/>
  <outline>
    <contour>
      <point x="-7.590163934426229" y="-153.54098360655738" type="line"/>
      <point x="82.49180327868852" y="-150.95081967213116"/>
      <point x="82.49180327868852" y="-61.01639344262295" type="qcurve" smooth="yes"/>
      <point x="82.49180327868852" y="517.5081967213115" type="line"/>
      <point x="145.49180327868854" y="517.5081967213115" type="line"/>
      <point x="145.49180327868854" y="-54.50819672131148" type="line" smooth="yes"/>
      <point x="145.49180327868854" y="-207.59016393442624"/>
      <point x="-7.590163934426229" y="-207.59016393442624" type="qcurve"/>
    </contour>
    <contour>
      <point x="77.93442622950819" y="617.4098360655738" type="line"/>
      <point x="77.93442622950819" y="699.0983606557377" type="line"/>
      <point x="150.04918032786884" y="699.0983606557377" type="line"/>
      <point x="150.04918032786884" y="617.4098360655738" type="line"/>
    </contour>
  </outline>
</glyph>
<glyph name="k" format="2">
  <advance width="513.0819672131148"/>
  <unicode hex="006B"/>
  <outline>
    <contour>
      <point x="82.49180327868852" y="0.0" type="line"/>
      <point x="82.49180327868852" y="740.0" type="line"/>
      <point x="145.49180327868854" y="740.0" type="line"/>
      <point x="145.49180327868854" y="233.86885245901638" type="line"/>
      <point x="403.4918032786885" y="517.5081967213115" type="line"/>
      <point x="464.4918032786885" y="517.5081967213115" type="line"/>
      <point x="470.672131147541" y="505.0" type="line"/>
      <point x="283.7049180327869" y="299.91803278688525" type="line"/>
      <point x="484.672131147541" y="12.508196721311474" type="line"/>
      <point x="478.4918032786885" y="0.0" type="line"/>
      <point x="416.78688524590166" y="0.0" type="line"/>
      <point x="241.9016393442623" y="254.22950819672133" type="line"/>
      <point x="145.49180327868854" y="150.40983606557376" type="line"/>
      <point x="145.49180327868854" y="0.0" type="line"/>
    </contour>
  </outline>
</glyph>
<glyph name="l" format="2">
  <advance width="245.49180327868854"/>
  <unicode hex="006C"/>
  <outline>
    <contour>
      <point x="78.49180327868852" y="127.49180327868852" type="qcurve" smooth="yes"/>
      <point x="78.49180327868852" y="740.0" type="line"/>
      <point x="141.49180327868854" y="740.0" type="line"/>
      <point x="141.49180327868854" y="121.57377049180327" type="line" smooth="yes"/>
      <point x="141.49180327868854" y="49.78688524590164"/>
      <point x="213.5737704918033" y="47.049180327868854" type="qcurve"/>
      <point x="213.5737704918033" y="-7.590163934426229" type="line"/>
      <point x="78.49180327868852" y="-7.590163934426229"/>
    </contour>
  </outline>
</glyph>
<glyph name="m" format="2">
  <advance width="893.5081967213115"/>
  <unicode hex="006D"/>
  <outline>
    <contour>
      <point x="82.49180327868852" y="0.0" type="line"/>
      <point x="82.49180327868852" y="517.5081967213115" type="line"/>
      <point x="669.1803278688525" y="517.5081967213115" type="line" smooth="yes"/>
      <point x="815.016393442623" y="517.5081967213115"/>
      <point x="815.016393442623" y="370.8196721311475" type="qcurve" smooth="yes"/>
      <point x="815.016393442623" y="0.0" type="line"/>
      <point x="752.016393442623" y="0.0" type="line"/>
      <point x="752.016393442623" y="380.8196721311475" type="line" smooth="yes"/>
      <point x="752.016393442623" y="462.0163934426229"/>
      <point x="670.8196721311475" y="462.0163934426229" type="qcurve" smooth="yes"/>
      <point x="480.327868852459" y="462.0163934426229" type="line"/>
      <point x="480.327868852459" y="0.0" type="line"/>
      <point x="417.1803278688525" y="0.0" type="line"/>
      <point x="417.1803278688525" y="462.0163934426229" type="line"/>
      <point x="145.49180327868854" y="462.0163934426229" type="line"/>
      <point x="145.49180327868854" y="0.0" type="line"/>
    </contour>
  </outline>
</glyph>
<glyph name="n" format="2">
  <advance width="583.5081967213115"/>
  <unicode hex="006E"/>
  <outline>
    <contour>
      <point x="82.49180327868852" y="0.0" type="line"/>
      <point x="82.49180327868852" y="517.5081967213115" type="line"/>
      <point x="359.1803278688525" y="517.5081967213115" type="line" smooth="yes"/>
      <point x="505.0163934426229" y="517.5081967213115"/>
      <point x="505.0163934426229" y="370.8196721311475" type="qcurve" smooth="yes"/>
      <point x="505.0163934426229" y="0.0" type="line"/>
      <point x="442.0163934426229" y="0.0" type="line"/>
      <point x="442.0163934426229" y="380.8196721311475" type="line" smooth="yes"/>
      <point x="442.0163934426229" y="462.0163934426229"/>
      <point x="360.8196721311475" y="462.0163934426229" type="qcurve" smooth="yes"/>
      <point x="145.49180327868854" y="462.0163934426229" type="line"/>
      <point x="145.49180327868854" y="0.0" type="line"/>
    </contour>
  </outline>
</glyph>
<glyph name="o" format="2">
  <advance width="581.5081967213115"/>
  <unicode hex="006F"/>
  <outline>
    <contour>
      <point x="74.49180327868852" y="146.68852459016392" type="qcurve" smooth="yes"/>
      <point x="74.49180327868852" y="370.8196721311475" type="line" smooth="yes"/>
      <point x="74.49180327868852" y="517.5081967213115"/>
      <point x="221.18032786885246" y="517.5081967213115" type="qcurve" smooth="yes"/>
      <point x="361.1803278688525" y="517.5081967213115" type="line" smooth="yes"/>
      <point x="507.0163934426229" y="517.5081967213115"/>
      <point x="507.0163934426229" y="370.8196721311475" type="qcurve" smooth="yes"/>
      <point x="507.0163934426229" y="146.68852459016392" type="line" smooth="yes"/>
      <point x="507.0163934426229" y="0.0"/>
      <point x="361.1803278688525" y="0.0" type="qcurve" smooth="yes"/>
      <point x="221.18032786885246" y="0.0" type="line" smooth="yes"/>
      <point x="74.49180327868852" y="0.0"/>
    </contour>
    <contour>
      <point x="137.49180327868854" y="136.68852459016392" type="line" smooth="yes"/>
      <point x="137.49180327868854" y="55.49180327868852"/>
      <point x="218.68852459016392" y="55.49180327868852" type="qcurve" smooth="yes"/>
      <point x="362.8196721311475" y="55.49180327868852" type="line" smooth="yes"/>
      <point x="444.0163934426229" y="55.49180327868852"/>
      <point x="444.0163934426229" y="136.68852459016392" type="qcurve" smooth="yes"/>
      <point x="444.0163934426229" y="380.8196721311475" type="line" smooth="yes"/>
      <point x="444.0163934426229" y="462.0163934426229"/>
      <point x="362.8196721311475" y="462.0163934426229" type="qcurve" smooth="yes"/>
      <point x="218.68852459016392" y="462.0163934426229" type="line" smooth="yes"/>
      <point x="137.49180327868854" y="462.0163934426229"/>
      <point x="137.49180327868854" y="380.8196721311475" type="qcurve" smooth="yes"/>
    </contour>
  </outline>
</glyph>
<glyph name="r" format="2">
  <advance width="362.88524590163934"/>
  <unicode hex="0072"/>
  <outline>
    <contour>
      <point x="78.49180327868852" y="0.0" type="line"/>
      <point x="78.49180327868852" y="460.0" type="line"/>
      <point x="113.08196721311475" y="517.5081967213115"/>
      <point x="205.18032786885246" y="517.5081967213115" type="qcurve" smooth="yes"/>
      <point x="302.6885245901639" y="517.5081967213115" type="line"/>
      <point x="336.88524590163934" y="491.9344262295082" type="line"/>
      <point x="336.88524590163934" y="462.0163934426229" type="line"/>
      <point x="208.29508196721312" y="462.0163934426229" type="line" smooth="yes"/>
      <point x="162.13114754098362" y="462.0163934426229"/>
      <point x="141.49180327868854" y="437.37704918032784" type="qcurve"/>
      <point x="141.49180327868854" y="0.0" type="line"/>
    </contour>
  </outline>
</glyph>
<glyph name="s" format="2">
  <advance width="497.5081967213115"/>
  <unicode hex="0073"/>
  <outline>
    <contour>
      <point x="61.22950819672131" y="25.57377049180328" type="line"/>
      <point x="61.22950819672131" y="55.49180327868852" type="line"/>
      <point x="292.9344262295082" y="55.49180327868852" type="line" smooth="yes"/>
      <point x="372.8688524590164" y="55.49180327868852"/>
      <point x="372.8688524590164" y="134.60655737704917" type="qcurve" smooth="yes"/>
      <point x="372.8688524590164" y="214.72131147540983"/>
      <point x="309.27868852459017" y="225.39344262295083" type="qcurve" smooth="yes"/>
      <point x="186.81967213114754" y="245.80327868852459" type="line" smooth="yes"/>
      <point x="61.22950819672131" y="266.95081967213116"/>
      <point x="61.22950819672131" y="379.1967213114754" type="qcurve" smooth="yes"/>
      <point x="61.22950819672131" y="517.5081967213115"/>
      <point x="208.7704918032787" y="517.5081967213115" type="qcurve" smooth="yes"/>
      <point x="378.2295081967213" y="517.5081967213115" type="line"/>
      <point x="412.42622950819674" y="491.9344262295082" type="line"/>
      <point x="412.42622950819674" y="462.0163934426229" type="line"/>
      <point x="204.72131147540983" y="462.0163934426229" type="line" smooth="yes"/>
      <point x="123.93442622950819" y="462.0163934426229"/>
      <point x="123.93442622950819" y="382.9016393442623" type="qcurve" smooth="yes"/>
      <point x="123.93442622950819" y="312.9836065573771"/>
      <point x="191.08196721311475" y="301.60655737704917" type="qcurve" smooth="yes"/>
      <point x="313.5409836065574" y="281.1967213114754" type="line" smooth="yes"/>
      <point x="436.42622950819674" y="261.04918032786884"/>
      <point x="436.42622950819674" y="139.1639344262295" type="qcurve" smooth="yes"/>
      <point x="436.42622950819674" y="0.0"/>
      <point x="288.0327868852459" y="0.0" type="qcurve" smooth="yes"/>
      <point x="95.42622950819673" y="0.0" type="line"/>
    </contour>
  </outline>
</glyph>
<glyph name="t" format="2">
  <advance width="382.88524590163934"/>
  <unicode hex="0074"/>
  <outline>
    <contour>
      <point x="78.49180327868852" y="146.68852459016392" type="qcurve" smooth="yes"/>
      <point x="78.49180327868852" y="690.0" type="line"/>
      <point x="141.49180327868854" y="690.0" type="line"/>
      <point x="141.49180327868854" y="517.5081967213115" type="line"/>
      <point x="336.88524590163934" y="517.5081967213115" type="line"/>
      <point x="336.88524590163934" y="462.0163934426229" type="line"/>
      <point x="141.49180327868854" y="462.0163934426229" type="line"/>
      <point x="141.49180327868854" y="136.68852459016392" type="line" smooth="yes"/>
      <point x="141.49180327868854" y="55.49180327868852"/>
      <point x="222.68852459016392" y="55.49180327868852" type="qcurve" smooth="yes"/>
      <point x="346.88524590163934" y="55.49180327868852" type="line"/>
      <point x="346.88524590163934" y="25.57377049180328" type="line"/>
      <point x="312.6885245901639" y="0.0" type="line"/>
      <point x="225.18032786885246" y="0.0" type="line" smooth="yes"/>
      <point x="78.49180327868852" y="0.0"/>
    </contour>
  </outline>
</glyph>
<glyph name="u" format="2">
  <advance width="583.5081967213115"/>
  <unicode hex="0075"/>
  <outline>
    <contour>
      <point x="78.49180327868852" y="146.68852459016392" type="qcurve" smooth="yes"/>
      <point x="78.49180327868852" y="517.5081967213115" type="line"/>
      <point x="141.49180327868854" y="517.5081967213115" type="line"/>
      <point x="141.49180327868854" y="136.68852459016392" type="line" smooth="yes"/>
      <point x="141.49180327868854" y="55.49180327868852"/>
      <point x="222.68852459016392" y="55.49180327868852" type="qcurve" smooth="yes"/>
      <point x="438.0163934426229" y="55.49180327868852" type="line"/>
      <point x="438.0163934426229" y="517.5081967213115" type="line"/>
      <point x="501.0163934426229" y="517.5081967213115" type="line"/>
      <point x="501.0163934426229" y="0.0" type="line"/>
      <point x="225.18032786885246" y="0.0" type="line" smooth="yes"/>
      <point x="78.49180327868852" y="0.0"/>
    </contour>
  </outline>
</glyph>
<glyph name="v" format="2">
  <advance width="509.21311475409834"/>
  <unicode hex="0076"/>
  <outline>
    <contour>
      <point x="20.40983606557377" y="505.44262295081967" type="line"/>
      <point x="28.0327868852459" y="517.5081967213115" type="line"/>
      <point x="82.52459016393442" y="517.5081967213115" type="line"/>
      <point x="243.08196721311475" y="55.49180327868852" type="line"/>
      <point x="266.1311475409836" y="55.49180327868852" type="line"/>
      <point x="426.6885245901639" y="517.5081967213115" type="line"/>
      <point x="481.1803278688525" y="517.5081967213115" type="line"/>
      <point x="488.8032786885246" y="505.44262295081967" type="line"/>
      <point x="309.672131147541" y="0.0" type="line"/>
      <point x="200.39344262295083" y="0.0" type="line"/>
    </contour>
  </outline>
</glyph>
<glyph name="w" format="2">
  <advance width="772.688524590164"/>
  <unicode hex="0077"/>
  <outline>
    <contour>
      <point x="24.40983606557377" y="505.44262295081967" type="line"/>
      <point x="32.885245901639344" y="517.5081967213115" type="line"/>
      <point x="84.37704918032787" y="517.5081967213115" type="line"/>
      <point x="198.2622950819672" y="55.49180327868852" type="line"/>
      <point x="214.19672131147541" y="55.49180327868852" type="line"/>
      <point x="349.75409836065575" y="517.5081967213115" type="line"/>
      <point x="422.9344262295082" y="517.5081967213115" type="line"/>
      <point x="558.4918032786885" y="55.49180327868852" type="line"/>
      <point x="575.2786885245902" y="55.49180327868852" type="line"/>
      <point x="689.1639344262295" y="517.5081967213115" type="line"/>
      <point x="739.8032786885246" y="517.5081967213115" type="line"/>
      <point x="748.2786885245902" y="505.44262295081967" type="line"/>
      <point x="622.1475409836065" y="0.0" type="line"/>
      <point x="516.0983606557377" y="0.0" type="line"/>
      <point x="386.344262295082" y="447.6393442622951" type="line"/>
      <point x="256.59016393442624" y="0.0" type="line"/>
      <point x="151.39344262295083" y="0.0" type="line"/>
    </contour>
  </outline>
</glyph>
<glyph name="x" format="2">
  <advance width="509.21311475409834"/>
  <unicode hex="0078"/>
  <outline>
    <contour>
      <point x="30.40983606557377" y="12.508196721311474" type="line"/>
      <point x="217.86885245901638" y="264.59016393442624" type="line"/>
      <point x="37.81967213114754" y="505.0" type="line"/>
      <point x="44.0" y="517.5081967213115" type="line"/>
      <point x="102.52459016393442" y="517.5081967213115" type="line"/>
      <point x="254.60655737704917" y="309.60655737704917" type="line"/>
      <point x="406.6885245901639" y="517.5081967213115" type="line"/>
      <point x="465.21311475409834" y="517.5081967213115" type="line"/>
      <point x="471.39344262295083" y="505.0" type="line"/>
      <point x="292.1967213114754" y="264.59016393442624" type="line"/>
      <point x="478.8032786885246" y="12.508196721311474" type="line"/>
      <point x="473.4754098360656" y="0.0" type="line"/>
      <point x="414.0983606557377" y="0.0" type="line"/>
      <point x="254.60655737704917" y="219.4262295081967" type="line"/>
      <point x="95.11475409836066" y="0.0" type="line"/>
      <point x="36.59016393442623" y="0.0" type="line"/>
    </contour>
  </outline>
</glyph>
<glyph name="y" format="2">
  <advance width="509.21311475409834"/>
  <unicode hex="0079"/>
  <outline>
    <contour>
      <point x="20.40983606557377" y="505.44262295081967" type="line"/>
      <point x="28.0327868852459" y="517.5081967213115" type="line"/>
      <point x="82.52459016393442" y="517.5081967213115" type="line"/>
      <point x="243.08196721311475" y="55.49180327868852" type="line"/>
      <point x="266.1311475409836" y="55.49180327868852" type="line"/>
      <point x="426.6885245901639" y="517.5081967213115" type="line"/>
      <point x="481.1803278688525" y="517.5081967213115" type="line"/>
      <point x="488.8032786885246" y="505.44262295081967" type="line"/>
      <point x="238.0327868852459" y="-200.0" type="line"/>
      <point x="183.54098360655738" y="-200.0" type="line"/>
      <point x="175.91803278688525" y="-187.9344262295082" type="line"/>
      <point x="245.70491803278688" y="0.0" type="line"/>
      <point x="200.39344262295083" y="0.0" type="line"/>
    </contour>
  </outline>
</glyph>
<glyph name="z" format="2">
  <advance width="507.5081967213115"/>
  <unicode hex="007A"/>
  <outline>
    <contour>
      <point x="52.49180327868852" y="0.0" type="line"/>
      <point x="52.49180327868852" y="49.98360655737705" type="line"/>
      <point x="366.40983606557376" y="462.0163934426229" type="line"/>
      <point x="62.49180327868852" y="462.0163934426229" type="line"/>
      <point x="62.49180327868852" y="517.5081967213115" type="line"/>
      <point x="445.0163934426229" y="517.5081967213115" type="line"/>
      <point x="445.0163934426229" y="467.5245901639344" type="line"/>
      <point x="131.24590163934425" y="55.49180327868852" type="line"/>
      <point x="455.0163934426229" y="55.49180327868852" type="line"/>
      <point x="455.0163934426229" y="0.0" type="line"/>
    </contour>
  </outline>
</glyph>
<glyph name="braceleft" format="2">
  <advance width="368.39344262295083"/>
  <unicode hex="007B"/>
  <outline>
    <contour>
      <point x="50.0" y="275.24590163934425" type="line"/>
      <point x="50.0" y="307.8032786885246" type="line"/>
      <point x="142.9016393442623" y="400.55737704918033" type="line"/>
      <point x="142.9016393442623" y="613.311475409836" type="line" smooth="yes"/>
      <point x="142.9016393442623" y="760.0"/>
      <point x="289.59016393442624" y="760.0" type="qcurve" smooth="yes"/>
      <point x="338.39344262295083" y="760.0" type="line"/>
      <point x="338.39344262295083" y="704.5081967213115" type="line"/>
      <point x="287.0983606557377" y="704.5081967213115" type="line" smooth="yes"/>
      <point x="205.9016393442623" y="704.5081967213115"/>
      <point x="205.9016393442623" y="623.311475409836" type="qcurve" smooth="yes"/>
      <point x="205.9016393442623" y="383.8688524590164" type="line"/>
      <point x="111.70491803278688" y="291.37704918032784" type="line"/>
      <point x="205.9016393442623" y="198.88524590163934" type="line"/>
      <point x="205.9016393442623" y="-43.31147540983606" type="line" smooth="yes"/>
      <point x="205.9016393442623" y="-124.50819672131148"/>
      <point x="287.0983606557377" y="-124.50819672131148" type="qcurve" smooth="yes"/>
      <point x="338.39344262295083" y="-124.50819672131148" type="line"/>
      <point x="338.39344262295083" y="-180.0" type="line"/>
      <point x="289.59016393442624" y="-180.0" type="line" smooth="yes"/>
      <point x="142.9016393442623" y="-180.0"/>
      <point x="142.9016393442623" y="-33.31147540983606" type="qcurve" smooth="yes"/>
      <point x="142.9016393442623" y="182.19672131147541" type="line"/>
    </contour>
  </outline>
</glyph>
<glyph name="bar" format="2">
  <advance width="262.8032786885246"/>
  <unicode hex="007C"/>
  <outline>
    <contour>
      <point x="102.08196721311475" y="-200.0" type="line"/>
      <point x="102.08196721311475" y="740.0" type="line"/>
      <point x="161.5737704918033" y="740.0" type="line"/>
      <point x="161.5737704918033" y="-200.0" type="line"/>
    </contour>
  </outline>
</glyph>
<glyph name="braceright" format="2">
  <advance width="368.39344262295083"/>
  <unicode hex="007D"/>
  <outline>
    <contour>
      <point x="30.0" y="-124.50819672131148" type="line"/>
      <point x="81.29508196721312" y="-124.50819672131148" type="line" smooth="yes"/>
      <point x="162.49180327868854" y="-124.50819672131148"/>
      <point x="162.49180327868854" y="-43.31147540983606" type="qcurve" smooth="yes"/>
      <point x="162.49180327868854" y="198.88524590163934" type="line"/>
      <point x="256.6885245901639" y="291.37704918032784" type="line"/>
      <point x="162.49180327868854" y="383.8688524590164" type="line"/>
      <point x="162.49180327868854" y="623.311475409836" type="line" smooth="yes"/>
      <point x="162.49180327868854" y="704.5081967213115"/>
      <point x="81.29508196721312" y="704.5081967213115" type="qcurve" smooth="yes"/>
      <point x="30.0" y="704.5081967213115" type="line"/>
      <point x="30.0" y="760.0" type="line"/>
      <point x="78.80327868852459" y="760.0" type="line" smooth="yes"/>
      <point x="225.49180327868854" y="760.0"/>
      <point x="225.49180327868854" y="613.311475409836" type="qcurve" smooth="yes"/>
      <point x="225.49180327868854" y="400.55737704918033" type="line"/>
      <point x="318.39344262295083" y="307.8032786885246" type="line"/>
      <point x="318.39344262295083" y="275.24590163934425" type="line"/>
      <point x="225.49180327868854" y="182.19672131147541" type="line"/>
      <point x="225.49180327868854" y="-33.31147540983606" type="line" smooth="yes"/>
      <point x="225.49180327868854" y="-180.0"/>
      <point x="78.80327868852459" y="-180.0" type="qcurve" smooth="yes"/>
      <point x="30.0" y="-180.0" type="line"/>
    </contour>
  </outline>
</glyph>
<glyph name="asciitilde" format="2">
  <advance width="578.0"/>
  <unicode hex="007E"/>
  <outline>
    <contour>
      <point x="53.83606557377049" y="300.1639344262295" type="line"/>
      <point x="142.1639344262295" y="387.6393442622951" type="line" smooth="yes"/>
      <point x="171.34426229508196" y="417.672131147541"/>
      <point x="246.65573770491804" y="417.672131147541"/>
      <point x="275.8360655737705" y="387.6393442622951" type="qcurve" smooth="yes"/>
      <point x="335.27868852459017" y="329.04918032786884" type="line" smooth="yes"/>
      <point x="353.0655737704918" y="311.26229508196724"/>
      <point x="384.9344262295082" y="311.26229508196724"/>
      <point x="402.72131147540983" y="329.04918032786884" type="qcurve" smooth="yes"/>
      <point x="483.8360655737705" y="410.1639344262295" type="line"/>
      <point x="524.1639344262295" y="369.8360655737705" type="line"/>
      <point x="435.8360655737705" y="282.3606557377049" type="line" smooth="yes"/>
      <point x="406.655737704918" y="252.327868852459"/>
      <point x="331.344262295082" y="252.327868852459"/>
      <point x="302.1639344262295" y="282.3606557377049" type="qcurve" smooth="yes"/>
      <point x="242.72131147540983" y="340.95081967213116" type="line" smooth="yes"/>
      <point x="224.9344262295082" y="358.73770491803276"/>
      <point x="193.0655737704918" y="358.73770491803276"/>
      <point x="175.27868852459017" y="340.95081967213116" type="qcurve" smooth="yes"/>
      <point x="94.1639344262295" y="259.8360655737705" type="line"/>
    </contour>
  </outline>
</glyph>
<glyph name="exclamdown" format="2">
  <advance width="254.60655737704917"/>
  <unicode hex="00A1"/>
  <outline>
    <contour>
      <point x="86.68852459016394" y="421.2950819672131" type="line"/>
      <point x="86.68852459016394" y="517.5081967213115" type="line"/>
      <point x="168.77049180327867" y="517.5081967213115" type="line"/>
      <point x="168.77049180327867" y="421.2950819672131" type="line"/>
    </contour>
    <contour>
      <point x="94.36065573770492" y="-172.49180327868854" type="line"/>
      <point x="94.36065573770492" y="310.8196721311475" type="line"/>
      <point x="160.95081967213116" y="310.8196721311475" type="line"/>
      <point x="160.95081967213116" y="-172.49180327868854" type="line"/>
    </contour>
  </outline>
</glyph>
<glyph name="cent" format="2">
  <advance width="578.0"/>
  <unicode hex="00A2"/>
  <outline>
    <contour>
      <point x="97.31147540983606" y="146.68852459016392" type="qcurve" smooth="yes"/>
      <point x="97.31147540983606" y="370.8196721311475" type="line" smooth="yes"/>
      <point x="97.31147540983606" y="517.5081967213115"/>
      <point x="244.0" y="517.5081967213115" type="qcurve" smooth="yes"/>
      <point x="289.62295081967216" y="517.5081967213115" type="line"/>
      <point x="289.62295081967216" y="627.5081967213115" type="line"/>
      <point x="342.37704918032784" y="627.5081967213115" type="line"/>
      <point x="342.37704918032784" y="517.5081967213115" type="line"/>
      <point x="442.9016393442623" y="517.5081967213115" type="line"/>
      <point x="477.0983606557377" y="491.9344262295082" type="line"/>
      <point x="477.0983606557377" y="462.0163934426229" type="line"/>
      <point x="241.50819672131146" y="462.0163934426229" type="line" smooth="yes"/>
      <point x="160.31147540983608" y="462.0163934426229"/>
      <point x="160.31147540983608" y="380.8196721311475" type="qcurve" smooth="yes"/>
      <point x="160.31147540983608" y="136.68852459016392" type="line" smooth="yes"/>
      <point x="160.31147540983608" y="55.49180327868852"/>
      <point x="241.50819672131146" y="55.49180327868852" type="qcurve" smooth="yes"/>
      <point x="477.0983606557377" y="55.49180327868852" type="line"/>
      <point x="477.0983606557377" y="25.57377049180328" type="line"/>
      <point x="442.9016393442623" y="0.0" type="line"/>
      <point x="342.37704918032784" y="0.0" type="line"/>
      <point x="342.37704918032784" y="-110.0" type="line"/>
      <point x="289.62295081967216" y="-110.0" type="line"/>
      <point x="289.62295081967216" y="0.0" type="line"/>
      <point x="244.0" y="0.0" type="line" smooth="yes"/>
      <point x="97.31147540983606" y="0.0"/>
    </contour>
  </outline>
</glyph>
<glyph name="sterling" format="2">
  <advance width="578.0"/>
  <unicode hex="00A3"/>
  <outline>
    <contour>
      <point x="66.90163934426229" y="0.0" type="line"/>
      <point x="66.90163934426229" y="60.67213114754098" type="line"/>
      <point x="157.31147540983608" y="60.67213114754098" type="line"/>
      <point x="157.31147540983608" y="318.62295081967216" type="line"/>
      <point x="66.90163934426229" y="318.62295081967216" type="line"/>
      <point x="66.90163934426229" y="371.37704918032784" type="line"/>
      <point x="157.31147540983608" y="371.37704918032784" type="line"/>
      <point x="157.31147540983608" y="541.2786885245902" type="line" smooth="yes"/>
      <point x="157.31147540983608" y="690.0"/>
      <point x="306.0327868852459" y="690.0" type="qcurve" smooth="yes"/>
      <point x="462.3114754098361" y="690.0" type="line"/>
      <point x="501.0983606557377" y="659.8360655737705" type="line"/>
      <point x="501.0983606557377" y="629.327868852459" type="line"/>
      <point x="303.0983606557377" y="629.327868852459" type="line" smooth="yes"/>
      <point x="223.9016393442623" y="629.327868852459"/>
      <point x="223.9016393442623" y="550.983606557377" type="qcurve" smooth="yes"/>
      <point x="223.9016393442623" y="371.37704918032784" type="line"/>
      <point x="415.0983606557377" y="371.37704918032784" type="line"/>
      <point x="415.0983606557377" y="318.62295081967216" type="line"/>
      <point x="223.9016393442623" y="318.62295081967216" type="line"/>
      <point x="223.9016393442623" y="60.67213114754098" type="line"/>
      <point x="521.0983606557377" y="60.67213114754098" type="line"/>
      <point x="521.0983606557377" y="0.0" type="line"/>
    </contour>
  </outline>
</glyph>
<glyph name="currency" format="2">
  <advance width="578.0"/>
  <unicode hex="00A4"/>
  <outline>
    <contour>
      <point x="62.42622950819672" y="152.72131147540983" type="line"/>
      <point x="136.08196721311475" y="226.37704918032787" type="line"/>
      <point x="136.08196721311475" y="473.62295081967216" type="line"/>
      <point x="62.42622950819672" y="547.2786885245902" type="line"/>
      <point x="96.72131147540983" y="581.5737704918033" type="line"/>
      <point x="170.37704918032787" y="507.91803278688525" type="line"/>
      <point x="407.62295081967216" y="507.91803278688525" type="line"/>
      <point x="481.27868852459017" y="581.5737704918033" type="line"/>
      <point x="515.5737704918033" y="547.2786885245902" type="line"/>
      <point x="441.91803278688525" y="473.62295081967216" type="line"/>
      <point x="441.91803278688525" y="226.37704918032787" type="line"/>
      <point x="515.5737704918033" y="152.72131147540983" type="line"/>
      <point x="481.27868852459017" y="118.42622950819673" type="line"/>
      <point x="407.62295081967216" y="192.08196721311475" type="line"/>
      <point x="170.37704918032787" y="192.08196721311475" type="line"/>
      <point x="96.72131147540983" y="118.42622950819673" type="line"/>
    </contour>
    <contour>
      <point x="186.80327868852459" y="275.04918032786884" type="line" smooth="yes"/>
      <point x="186.80327868852459" y="236.95081967213116"/>
      <point x="224.9016393442623" y="236.95081967213116" type="qcurve" smooth="yes"/>
      <point x="353.0983606557377" y="236.95081967213116" type="line" smooth="yes"/>
      <point x="391.1967213114754" y="236.95081967213116"/>
      <point x="391.1967213114754" y="275.04918032786884" type="qcurve" smooth="yes"/>
      <point x="391.1967213114754" y="424.95081967213116" type="line" smooth="yes"/>
      <point x="391.1967213114754" y="463.04918032786884"/>
      <point x="353.0983606557377" y="463.04918032786884" type="qcurve" smooth="yes"/>
      <point x="224.9016393442623" y="463.04918032786884" type="line" smooth="yes"/>
      <point x="186.80327868852459" y="463.04918032786884"/>
      <point x="186.80327868852459" y="424.95081967213116" type="qcurve" smooth="yes"/>
    </contour>
  </outline>
</glyph>
<glyph name="yen" format="2">
  <advance width="578.0"/>
  <unicode hex="00A5"/>
  <outline>
    <contour>
      <point x="36.36065573770492" y="674.1967213114754" type="line"/>
      <point x="45.278688524590166" y="690.0" type="line"/>
      <point x="101.36065573770492" y="690.0" type="line"/>
      <point x="289.0" y="344.40983606557376" type="line"/>
      <point x="476.6393442622951" y="690.0" type="line"/>
      <point x="532.7213114754098" y="690.0" type="line"/>
      <point x="541.639344262295" y="674.1967213114754" type="line"/>
      <point x="339.27868852459017" y="310.42622950819674" type="line"/>
      <point x="478.0983606557377" y="310.42622950819674" type="line"/>
      <point x="478.0983606557377" y="261.9016393442623" type="line"/>
      <point x="322.2950819672131" y="261.9016393442623" type="line"/>
      <point x="322.2950819672131" y="176.327868852459" type="line"/>
      <point x="478.0983606557377" y="176.327868852459" type="line"/>
      <point x="478.0983606557377" y="127.80327868852459" type="line"/>
      <point x="322.2950819672131" y="127.80327868852459" type="line"/>
      <point x="322.2950819672131" y="0.0" type="line"/>
      <point x="255.70491803278688" y="0.0" type="line"/>
      <point x="255.70491803278688" y="127.80327868852459" type="line"/>
      <point x="99.90163934426229" y="127.80327868852459" type="line"/>
      <point x="99.90163934426229" y="176.327868852459" type="line"/>
      <point x="255.70491803278688" y="176.327868852459" type="line"/>
      <point x="255.70491803278688" y="261.9016393442623" type="line"/>
      <point x="99.90163934426229" y="261.9016393442623" type="line"/>
      <point x="99.90163934426229" y="310.42622950819674" type="line"/>
      <point x="238.72131147540983" y="310.42622950819674" type="line"/>
    </contour>
  </outline>
</glyph>
<glyph name="brokenbar" format="2">
  <advance width="262.8032786885246"/>
  <unicode hex="00A6"/>
  <outline>
    <contour>
      <point x="102.08196721311475" y="167.91803278688525" type="line"/>
      <point x="161.5737704918033" y="167.91803278688525" type="line"/>
      <point x="161.5737704918033" y="-200.0" type="line"/>
      <point x="102.08196721311475" y="-200.0" type="line"/>
    </contour>
    <contour>
      <point x="102.08196721311475" y="372.08196721311475" type="line"/>
      <point x="102.08196721311475" y="740.0" type="line"/>
      <point x="161.5737704918033" y="740.0" type="line"/>
      <point x="161.5737704918033" y="372.08196721311475" type="line"/>
    </contour>
  </outline>
</glyph>
<glyph name="section" format="2">
  <advance width="539.1803278688525"/>
  <unicode hex="00A7"/>
  <outline>
    <contour>
      <point x="83.34426229508196" y="-44.50819672131148" type="line"/>
      <point x="309.9344262295082" y="-44.50819672131148" type="line" smooth="yes"/>
      <point x="392.42622950819674" y="-44.50819672131148"/>
      <point x="392.42622950819674" y="34.60655737704918" type="qcurve" smooth="yes"/>
      <point x="392.42622950819674" y="95.9672131147541"/>
      <point x="356.11475409836066" y="104.93442622950819" type="qcurve" smooth="yes"/>
      <point x="180.80327868852459" y="147.50819672131146" type="line" smooth="yes"/>
      <point x="83.34426229508196" y="170.36065573770492"/>
      <point x="83.34426229508196" y="279.1967213114754" type="qcurve" smooth="yes"/>
      <point x="83.34426229508196" y="423.6393442622951" type="line"/>
      <point x="115.14754098360656" y="455.44262295081967" type="line"/>
      <point x="83.34426229508196" y="487.4754098360656"/>
      <point x="83.34426229508196" y="549.983606557377" type="qcurve" smooth="yes"/>
      <point x="83.34426229508196" y="690.0"/>
      <point x="226.62295081967213" y="690.0" type="qcurve" smooth="yes"/>
      <point x="398.78688524590166" y="690.0" type="line"/>
      <point x="432.9836065573771" y="664.4262295081967" type="line"/>
      <point x="432.9836065573771" y="634.5081967213115" type="line"/>
      <point x="229.54098360655738" y="634.5081967213115" type="line" smooth="yes"/>
      <point x="147.04918032786884" y="634.5081967213115"/>
      <point x="147.04918032786884" y="555.3934426229508" type="qcurve" smooth="yes"/>
      <point x="147.04918032786884" y="494.0327868852459"/>
      <point x="183.21311475409837" y="485.0655737704918" type="qcurve" smooth="yes"/>
      <point x="358.5245901639344" y="442.4918032786885" type="line" smooth="yes"/>
      <point x="456.1311475409836" y="419.6393442622951"/>
      <point x="456.1311475409836" y="310.8032786885246" type="qcurve" smooth="yes"/>
      <point x="456.1311475409836" y="166.36065573770492" type="line"/>
      <point x="424.327868852459" y="134.55737704918033" type="line"/>
      <point x="456.1311475409836" y="102.52459016393442"/>
      <point x="456.1311475409836" y="40.01639344262295" type="qcurve" smooth="yes"/>
      <point x="456.1311475409836" y="-100.0"/>
      <point x="312.8524590163934" y="-100.0" type="qcurve" smooth="yes"/>
      <point x="117.54098360655738" y="-100.0" type="line"/>
      <point x="83.34426229508196" y="-74.42622950819673" type="line"/>
    </contour>
    <contour>
      <point x="147.04918032786884" y="282.04918032786884" type="line" smooth="yes"/>
      <point x="147.04918032786884" y="216.39344262295083"/>
      <point x="201.9672131147541" y="202.45901639344262" type="qcurve" smooth="yes"/>
      <point x="392.42622950819674" y="155.80327868852459" type="line"/>
      <point x="392.42622950819674" y="307.95081967213116" type="line" smooth="yes"/>
      <point x="392.42622950819674" y="373.60655737704917"/>
      <point x="337.3606557377049" y="387.5409836065574" type="qcurve" smooth="yes"/>
      <point x="147.04918032786884" y="434.1967213114754" type="line"/>
    </contour>
  </outline>
</glyph>
<glyph name="copyright" format="2">
  <advance width="839.1803278688525"/>
  <unicode hex="00A9"/>
  <outline>
    <contour>
      <point x="82.49180327868852" y="90.90163934426229" type="qcurve" smooth="yes"/>
      <point x="82.49180327868852" y="599.0983606557377" type="line" smooth="yes"/>
      <point x="82.49180327868852" y="690.0"/>
      <point x="173.39344262295083" y="690.0" type="qcurve" smooth="yes"/>
      <point x="665.7868852459017" y="690.0" type="line" smooth="yes"/>
      <point x="756.688524590164" y="690.0"/>
      <point x="756.688524590164" y="599.0983606557377" type="qcurve" smooth="yes"/>
      <point x="756.688524590164" y="90.90163934426229" type="line" smooth="yes"/>
      <point x="756.688524590164" y="0.0"/>
      <point x="665.7868852459017" y="0.0" type="qcurve" smooth="yes"/>
      <point x="173.39344262295083" y="0.0" type="line" smooth="yes"/>
      <point x="82.49180327868852" y="0.0"/>
    </contour>
    <contour>
      <point x="130.47540983606558" y="84.31147540983606" type="line" smooth="yes"/>
      <point x="130.47540983606558" y="42.803278688524586"/>
      <point x="171.13114754098362" y="42.803278688524586" type="qcurve" smooth="yes"/>
      <point x="667.1967213114754" y="42.803278688524586" type="line" smooth="yes"/>
      <point x="708.7049180327868" y="42.803278688524586"/>
      <point x="708.7049180327868" y="84.31147540983606" type="qcurve" smooth="yes"/>
      <point x="708.7049180327868" y="605.688524590164" type="line" smooth="yes"/>
      <point x="708.7049180327868" y="647.1967213114754"/>
      <point x="667.1967213114754" y="647.1967213114754" type="qcurve" smooth="yes"/>
      <point x="171.13114754098362" y="647.1967213114754" type="line" smooth="yes"/>
      <point x="130.47540983606558" y="647.1967213114754"/>
      <point x="130.47540983606558" y="605.688524590164" type="qcurve" smooth="yes"/>
    </contour>
    <contour>
      <point x="261.11475409836066" y="240.44262295081967" type="qcurve" smooth="yes"/>
      <point x="261.11475409836066" y="449.55737704918033" type="line" smooth="yes"/>
      <point x="261.11475409836066" y="542.4918032786885"/>
      <point x="353.9016393442623" y="542.4918032786885" type="qcurve" smooth="yes"/>
      <point x="520.4918032786885" y="542.4918032786885" type="line"/>
      <point x="548.0655737704918" y="520.8032786885246" type="line"/>
      <point x="548.0655737704918" y="496.0983606557377" type="line"/>
      <point x="351.6393442622951" y="496.0983606557377" type="line" smooth="yes"/>
      <point x="311.8360655737705" y="496.0983606557377"/>
      <point x="311.8360655737705" y="456.2950819672131" type="qcurve" smooth="yes"/>
      <point x="311.8360655737705" y="233.70491803278688" type="line" smooth="yes"/>
      <point x="311.8360655737705" y="193.9016393442623"/>
      <point x="351.6393442622951" y="193.9016393442623" type="qcurve" smooth="yes"/>
      <point x="548.0655737704918" y="193.9016393442623" type="line"/>
      <point x="548.0655737704918" y="169.19672131147541" type="line"/>
      <point x="520.4918032786885" y="147.50819672131146" type="line"/>
      <point x="353.9016393442623" y="147.50819672131146" type="line" smooth="yes"/>
      <point x="261.11475409836066" y="147.50819672131146"/>
    </contour>
  </outline>
</glyph>
<glyph name="ordfeminine" format="2">
  <advance width="399.1803278688525"/>
  <unicode hex="00AA"/>
  <outline>
    <contour>
      <point x="42.08196721311475" y="392.27868852459017" type="qcurve" smooth="yes"/>
      <point x="42.08196721311475" y="436.04918032786884" type="line" smooth="yes"/>
      <point x="42.08196721311475" y="527.5081967213115"/>
      <point x="136.49180327868854" y="527.5081967213115" type="qcurve" smooth="yes"/>
      <point x="295.5245901639344" y="527.5081967213115" type="line"/>
      <point x="295.5245901639344" y="603.8032786885246" type="line" smooth="yes"/>
      <point x="295.5245901639344" y="643.6065573770492"/>
      <point x="255.72131147540983" y="643.6065573770492" type="qcurve" smooth="yes"/>
      <point x="69.59016393442623" y="643.6065573770492" type="line"/>
      <point x="69.59016393442623" y="668.311475409836" type="line"/>
      <point x="97.31147540983606" y="690.0" type="line"/>
      <point x="254.1639344262295" y="690.0" type="line" smooth="yes"/>
      <point x="347.0983606557377" y="690.0"/>
      <point x="347.0983606557377" y="597.0655737704918" type="qcurve" smooth="yes"/>
      <point x="347.0983606557377" y="300.8196721311475" type="line"/>
      <point x="136.49180327868854" y="300.8196721311475" type="line" smooth="yes"/>
      <point x="42.08196721311475" y="300.8196721311475"/>
    </contour>
    <contour>
      <point x="92.80327868852459" y="387.0163934426229" type="line" smooth="yes"/>
      <point x="92.80327868852459" y="347.21311475409834"/>
      <point x="132.60655737704917" y="347.21311475409834" type="qcurve" smooth="yes"/>
      <point x="295.5245901639344" y="347.21311475409834" type="line"/>
      <point x="295.5245901639344" y="483.7704918032787" type="line"/>
      <point x="132.60655737704917" y="483.7704918032787" type="line" smooth="yes"/>
      <point x="92.80327868852459" y="483.7704918032787"/>
      <point x="92.80327868852459" y="443.9672131147541" type="qcurve" smooth="yes"/>
    </contour>
  </outline>
</glyph>
<glyph name="logicalnot" format="2">
  <advance width="578.0"/>
  <unicode hex="00AC"/>
  <outline>
    <contour>
      <point x="64.81967213114754" y="356.62295081967216" type="line"/>
      <point x="64.81967213114754" y="413.37704918032784" type="line"/>
      <point x="513.1803278688525" y="413.37704918032784" type="line"/>
      <point x="513.1803278688525" y="150.81967213114754" type="line"/>
      <point x="453.6885245901639" y="150.81967213114754" type="line"/>
      <point x="453.6885245901639" y="356.62295081967216" type="line"/>
    </contour>
  </outline>
</glyph>
<glyph name="registered" format="2">
  <advance width="839.1803278688525"/>
  <unicode hex="00AE"/>
  <outline>
    <contour>
      <point x="82.49180327868852" y="90.90163934426229" type="qcurve" smooth="yes"/>
      <point x="82.49180327868852" y="599.0983606557377" type="line" smooth="yes"/>
      <point x="82.49180327868852" y="690.0"/>
      <point x="173.39344262295083" y="690.0" type="qcurve" smooth="yes"/>
      <point x="665.7868852459017" y="690.0" type="line" smooth="yes"/>
      <point x="756.688524590164" y="690.0"/>
      <point x="756.688524590164" y="599.0983606557377" type="qcurve" smooth="yes"/>
      <point x="756.688524590164" y="90.90163934426229" type="line" smooth="yes"/>
      <point x="756.688524590164" y="0.0"/>
      <point x="665.7868852459017" y="0.0" type="qcurve" smooth="yes"/>
      <point x="173.39344262295083" y="0.0" type="line" smooth="yes"/>
      <point x="82.49180327868852" y="0.0"/>
    </contour>
    <contour>
      <point x="130.47540983606558" y="84.31147540983606" type="line" smooth="yes"/>
      <point x="130.47540983606558" y="42.803278688524586"/>
      <point x="171.13114754098362" y="42.803278688524586" type="qcurve" smooth="yes"/>
      <point x="667.1967213114754" y="42.803278688524586" type="line" smooth="yes"/>
      <point x="708.7049180327868" y="42.803278688524586"/>
      <point x="708.7049180327868" y="84.31147540983606" type="qcurve" smooth="yes"/>
      <point x="708.7049180327868" y="605.688524590164" type="line" smooth="yes"/>
      <point x="708.7049180327868" y="647.1967213114754"/>
      <point x="667.1967213114754" y="647.1967213114754" type="qcurve" smooth="yes"/>
      <point x="171.13114754098362" y="647.1967213114754" type="line" smooth="yes"/>
      <point x="130.47540983606558" y="647.1967213114754"/>
      <point x="130.47540983606558" y="605.688524590164" type="qcurve" smooth="yes"/>
    </contour>
    <contour>
      <point x="280.78688524590166" y="147.50819672131146" type="line"/>
      <point x="280.78688524590166" y="542.4918032786885" type="line"/>
      <point x="472.72131147540983" y="542.4918032786885" type="line" smooth="yes"/>
      <point x="565.8032786885246" y="542.4918032786885"/>
      <point x="565.8032786885246" y="449.55737704918033" type="qcurve" smooth="yes"/>
      <point x="565.8032786885246" y="395.11475409836066" type="line" smooth="yes"/>
      <point x="565.8032786885246" y="319.11475409836066"/>
      <point x="503.04918032786884" y="306.1311475409836" type="qcurve"/>
      <point x="576.8852459016393" y="160.01639344262296" type="line"/>
      <point x="570.5573770491803" y="147.50819672131146" type="line"/>
      <point x="527.311475409836" y="147.50819672131146" type="line"/>
      <point x="447.7704918032787" y="302.327868852459" type="line"/>
      <point x="332.3606557377049" y="302.327868852459" type="line"/>
      <point x="332.3606557377049" y="147.50819672131146" type="line"/>
    </contour>
    <contour>
      <point x="332.3606557377049" y="348.72131147540983" type="line"/>
      <point x="474.42622950819674" y="348.72131147540983" type="line" smooth="yes"/>
      <point x="514.2295081967213" y="348.72131147540983"/>
      <point x="514.2295081967213" y="388.5245901639344" type="qcurve" smooth="yes"/>
      <point x="514.2295081967213" y="456.2950819672131" type="line" smooth="yes"/>
      <point x="514.2295081967213" y="496.0983606557377"/>
      <point x="474.42622950819674" y="496.0983606557377" type="qcurve" smooth="yes"/>
      <point x="332.3606557377049" y="496.0983606557377" type="line"/>
    </contour>
  </outline>
</glyph>
<glyph name="degree" format="2">
  <advance width="409.59016393442624"/>
  <unicode hex="00B0"/>
  <outline>
    <contour>
      <point x="62.49180327868852" y="461.75409836065575" type="qcurve" smooth="yes"/>
      <point x="62.49180327868852" y="598.2459016393443" type="line" smooth="yes"/>
      <point x="62.49180327868852" y="690.0"/>
      <point x="154.24590163934425" y="690.0" type="qcurve" smooth="yes"/>
      <point x="255.34426229508196" y="690.0" type="line" smooth="yes"/>
      <point x="347.0983606557377" y="690.0"/>
      <point x="347.0983606557377" y="598.2459016393443" type="qcurve" smooth="yes"/>
      <point x="347.0983606557377" y="461.75409836065575" type="line" smooth="yes"/>
      <point x="347.0983606557377" y="370.0"/>
      <point x="255.34426229508196" y="370.0" type="qcurve" smooth="yes"/>
      <point x="154.24590163934425" y="370.0" type="line" smooth="yes"/>
      <point x="62.49180327868852" y="370.0"/>
    </contour>
    <contour>
      <point x="110.47540983606558" y="456.0163934426229" type="line" smooth="yes"/>
      <point x="110.47540983606558" y="412.8032786885246"/>
      <point x="153.68852459016392" y="412.8032786885246" type="qcurve" smooth="yes"/>
      <point x="255.9016393442623" y="412.8032786885246" type="line" smooth="yes"/>
      <point x="299.11475409836066" y="412.8032786885246"/>
      <point x="299.11475409836066" y="456.0163934426229" type="qcurve" smooth="yes"/>
      <point x="299.11475409836066" y="603.983606557377" type="line" smooth="yes"/>
      <point x="299.11475409836066" y="647.1967213114754"/>
      <point x="255.9016393442623" y="647.1967213114754" type="qcurve" smooth="yes"/>
      <point x="153.68852459016392" y="647.1967213114754" type="line" smooth="yes"/>
      <point x="110.47540983606558" y="647.1967213114754"/>
      <point x="110.47540983606558" y="603.983606557377" type="qcurve" smooth="yes"/>
    </contour>
  </outline>
</glyph>
<glyph name="plusminus" format="2">
  <advance width="578.0"/>
  <unicode hex="00B1"/>
  <outline>
    <contour>
      <point x="64.81967213114754" y="0.0" type="line"/>
      <point x="64.81967213114754" y="55.90163934426229" type="line"/>
      <point x="513.1803278688525" y="55.90163934426229" type="line"/>
      <point x="513.1803278688525" y="0.0" type="line"/>
    </contour>
    <contour>
      <point x="64.81967213114754" y="320.8196721311475" type="line"/>
      <point x="64.81967213114754" y="377.57377049180326" type="line"/>
      <point x="259.1803278688525" y="377.57377049180326" type="line"/>
      <point x="259.1803278688525" y="575.016393442623" type="line"/>
      <point x="318.8196721311475" y="575.016393442623" type="line"/>
      <point x="318.8196721311475" y="377.57377049180326" type="line"/>
      <point x="513.1803278688525" y="377.57377049180326" type="line"/>
      <point x="513.1803278688525" y="320.8196721311475" type="line"/>
      <point x="318.8196721311475" y="320.8196721311475" type="line"/>
      <point x="318.8196721311475" y="123.37704918032787" type="line"/>
      <point x="259.1803278688525" y="123.37704918032787" type="line"/>
      <point x="259.1803278688525" y="320.8196721311475" type="line"/>
    </contour>
  </outline>
</glyph>
<glyph name="uni00B2" format="2">
  <advance width="357.91803278688525"/>
  <unicode hex="00B2"/>
  <outline>
    <contour>
      <point x="42.08196721311475" y="282.08196721311475" type="line"/>
      <point x="42.08196721311475" y="401.327868852459" type="line" smooth="yes"/>
      <point x="42.08196721311475" y="478.8688524590164"/>
      <point x="112.65573770491804" y="492.75409836065575" type="qcurve" smooth="yes"/>
      <point x="229.98360655737704" y="516.1311475409836" type="line" smooth="yes"/>
      <point x="265.11475409836066" y="523.0983606557377"/>
      <point x="265.11475409836066" y="557.672131147541" type="qcurve" smooth="yes"/>
      <point x="265.11475409836066" y="603.8032786885246" type="line" smooth="yes"/>
      <point x="265.11475409836066" y="643.6065573770492"/>
      <point x="225.31147540983608" y="643.6065573770492" type="qcurve" smooth="yes"/>
      <point x="54.08196721311475" y="643.6065573770492" type="line"/>
      <point x="54.08196721311475" y="668.311475409836" type="line"/>
      <point x="81.80327868852459" y="690.0" type="line"/>
      <point x="223.75409836065575" y="690.0" type="line" smooth="yes"/>
      <point x="316.6885245901639" y="690.0"/>
      <point x="316.6885245901639" y="597.0655737704918" type="qcurve" smooth="yes"/>
      <point x="316.6885245901639" y="563.6065573770492" type="line" smooth="yes"/>
      <point x="316.6885245901639" y="485.0655737704918"/>
      <point x="245.9672131147541" y="471.1803278688525" type="qcurve" smooth="yes"/>
      <point x="128.78688524590163" y="447.8032786885246" type="line" smooth="yes"/>
      <point x="92.80327868852459" y="440.8360655737705"/>
      <point x="92.80327868852459" y="406.40983606557376" type="qcurve" smooth="yes"/>
      <point x="92.80327868852459" y="328.4754098360656" type="line"/>
      <point x="316.6885245901639" y="328.4754098360656" type="line"/>
      <point x="316.6885245901639" y="282.08196721311475" type="line"/>
    </contour>
  </outline>
</glyph>
<glyph name="uni00B3" format="2">
  <advance width="357.91803278688525"/>
  <unicode hex="00B3"/>
  <outline>
    <contour>
      <point x="48.08196721311475" y="302.91803278688525" type="line"/>
      <point x="48.08196721311475" y="328.4754098360656" type="line"/>
      <point x="225.31147540983608" y="328.4754098360656" type="line" smooth="yes"/>
      <point x="265.11475409836066" y="328.4754098360656"/>
      <point x="265.11475409836066" y="368.27868852459017" type="qcurve" smooth="yes"/>
      <point x="265.11475409836066" y="430.08196721311475" type="line" smooth="yes"/>
      <point x="265.11475409836066" y="469.88524590163934"/>
      <point x="225.31147540983608" y="469.88524590163934" type="qcurve" smooth="yes"/>
      <point x="92.08196721311475" y="469.88524590163934" type="line"/>
      <point x="92.08196721311475" y="516.2786885245902" type="line"/>
      <point x="225.31147540983608" y="516.2786885245902" type="line" smooth="yes"/>
      <point x="265.11475409836066" y="516.2786885245902"/>
      <point x="265.11475409836066" y="556.0819672131148" type="qcurve" smooth="yes"/>
      <point x="265.11475409836066" y="603.8032786885246" type="line" smooth="yes"/>
      <point x="265.11475409836066" y="643.6065573770492"/>
      <point x="225.31147540983608" y="643.6065573770492" type="qcurve" smooth="yes"/>
      <point x="54.08196721311475" y="643.6065573770492" type="line"/>
      <point x="54.08196721311475" y="668.311475409836" type="line"/>
      <point x="81.80327868852459" y="690.0" type="line"/>
      <point x="223.75409836065575" y="690.0" type="line" smooth="yes"/>
      <point x="316.6885245901639" y="690.0"/>
      <point x="316.6885245901639" y="597.0655737704918" type="qcurve" smooth="yes"/>
      <point x="316.6885245901639" y="562.4918032786885" type="line" smooth="yes"/>
      <point x="316.6885245901639" y="535.4918032786885"/>
      <point x="299.6885245901639" y="518.4918032786885" type="qcurve" smooth="yes"/>
      <point x="276.6885245901639" y="495.4918032786885" type="line"/>
      <point x="299.6885245901639" y="472.4918032786885" type="line" smooth="yes"/>
      <point x="316.6885245901639" y="455.4918032786885"/>
      <point x="316.6885245901639" y="428.4918032786885" type="qcurve" smooth="yes"/>
      <point x="316.6885245901639" y="374.1639344262295" type="line" smooth="yes"/>
      <point x="316.6885245901639" y="282.08196721311475"/>
      <point x="223.75409836065575" y="282.08196721311475" type="qcurve" smooth="yes"/>
      <point x="75.80327868852459" y="282.08196721311475" type="line"/>
    </contour>
  </outline>
</glyph>
<glyph name="mu" format="2">
  <advance width="583.5081967213115"/>
  <unicode hex="00B5"/>
  <outline>
    <contour>
      <point x="82.49180327868852" y="-200.0" type="line"/>
      <point x="82.49180327868852" y="517.5081967213115" type="line"/>
      <point x="145.49180327868854" y="517.5081967213115" type="line"/>
      <point x="145.49180327868854" y="55.49180327868852" type="line"/>
      <point x="360.8196721311475" y="55.49180327868852" type="line" smooth="yes"/>
      <point x="442.0163934426229" y="55.49180327868852"/>
      <point x="442.0163934426229" y="136.68852459016392" type="qcurve" smooth="yes"/>
      <point x="442.0163934426229" y="517.5081967213115" type="line"/>
      <point x="505.0163934426229" y="517.5081967213115" type="line"/>
      <point x="505.0163934426229" y="146.68852459016392" type="line" smooth="yes"/>
      <point x="505.0163934426229" y="0.0"/>
      <point x="359.1803278688525" y="0.0" type="qcurve" smooth="yes"/>
      <point x="145.49180327868854" y="0.0" type="line"/>
      <point x="145.49180327868854" y="-200.0" type="line"/>
    </contour>
  </outline>
</glyph>
<glyph name="paragraph" format="2">
  <advance width="559.2786885245902"/>
  <unicode hex="00B6"/>
  <outline>
    <contour>
      <point x="72.49180327868852" y="398.7049180327869" type="qcurve" smooth="yes"/>
      <point x="72.49180327868852" y="540.0" type="line" smooth="yes"/>
      <point x="72.49180327868852" y="690.0"/>
      <point x="222.49180327868854" y="690.0" type="qcurve" smooth="yes"/>
      <point x="323.78688524590166" y="690.0" type="line"/>
      <point x="323.78688524590166" y="248.70491803278688" type="line"/>
      <point x="222.49180327868854" y="248.70491803278688" type="line" smooth="yes"/>
      <point x="72.49180327868852" y="248.70491803278688"/>
    </contour>
    <contour>
      <point x="393.78688524590166" y="-170.0" type="line"/>
      <point x="393.78688524590166" y="690.0" type="line"/>
      <point x="456.78688524590166" y="690.0" type="line"/>
      <point x="456.78688524590166" y="-170.0" type="line"/>
    </contour>
  </outline>
</glyph>
<glyph name="uni00B9" format="2">
  <advance width="357.91803278688525"/>
  <unicode hex="00B9"/>
  <outline>
    <contour>
      <point x="60.08196721311475" y="282.08196721311475" type="line"/>
      <point x="60.08196721311475" y="328.4754098360656" type="line"/>
      <point x="164.0983606557377" y="328.4754098360656" type="line"/>
      <point x="164.0983606557377" y="643.6065573770492" type="line"/>
      <point x="82.31147540983606" y="643.6065573770492" type="line"/>
      <point x="82.31147540983606" y="668.311475409836" type="line"/>
      <point x="110.0327868852459" y="690.0" type="line"/>
      <point x="215.672131147541" y="690.0" type="line"/>
      <point x="215.672131147541" y="328.4754098360656" type="line"/>
      <point x="310.6885245901639" y="328.4754098360656" type="line"/>
      <point x="310.6885245901639" y="282.08196721311475" type="line"/>
    </contour>
  </outline>
</glyph>
<glyph name="ordmasculine" format="2">
  <advance width="429.1803278688525"/>
  <unicode hex="00BA"/>
  <outline>
    <contour>
      <point x="52.08196721311475" y="393.75409836065575" type="qcurve" smooth="yes"/>
      <point x="52.08196721311475" y="597.0655737704918" type="line" smooth="yes"/>
      <point x="52.08196721311475" y="690.0"/>
      <point x="145.01639344262296" y="690.0" type="qcurve" smooth="yes"/>
      <point x="284.1639344262295" y="690.0" type="line" smooth="yes"/>
      <point x="377.0983606557377" y="690.0"/>
      <point x="377.0983606557377" y="597.0655737704918" type="qcurve" smooth="yes"/>
      <point x="377.0983606557377" y="393.75409836065575" type="line" smooth="yes"/>
      <point x="377.0983606557377" y="300.8196721311475"/>
      <point x="284.1639344262295" y="300.8196721311475" type="qcurve" smooth="yes"/>
      <point x="145.01639344262296" y="300.8196721311475" type="line" smooth="yes"/>
      <point x="52.08196721311475" y="300.8196721311475"/>
    </contour>
    <contour>
      <point x="102.80327868852459" y="387.0163934426229" type="line" smooth="yes"/>
      <point x="102.80327868852459" y="347.21311475409834"/>
      <point x="142.60655737704917" y="347.21311475409834" type="qcurve" smooth="yes"/>
      <point x="285.72131147540983" y="347.21311475409834" type="line" smooth="yes"/>
      <point x="325.5245901639344" y="347.21311475409834"/>
      <point x="325.5245901639344" y="387.0163934426229" type="qcurve" smooth="yes"/>
      <point x="325.5245901639344" y="603.8032786885246" type="line" smooth="yes"/>
      <point x="325.5245901639344" y="643.6065573770492"/>
      <point x="285.72131147540983" y="643.6065573770492" type="qcurve" smooth="yes"/>
      <point x="142.60655737704917" y="643.6065573770492" type="line" smooth="yes"/>
      <point x="102.80327868852459" y="643.6065573770492"/>
      <point x="102.80327868852459" y="603.8032786885246" type="qcurve" smooth="yes"/>
    </contour>
  </outline>
</glyph>
<glyph name="questiondown" format="2">
  <advance width="473.37704918032784"/>
  <unicode hex="00BF"/>
  <outline>
    <contour>
      <point x="50.0" y="-23.770491803278688" type="qcurve" smooth="yes"/>
      <point x="50.0" y="66.68852459016394" type="line" smooth="yes"/>
      <point x="50.0" y="216.88524590163934"/>
      <point x="197.24590163934425" y="216.88524590163934" type="qcurve" smooth="yes"/>
      <point x="249.8360655737705" y="216.88524590163934" type="line"/>
      <point x="249.8360655737705" y="310.8196721311475" type="line"/>
      <point x="317.9836065573771" y="310.8196721311475" type="line"/>
      <point x="317.9836065573771" y="156.21311475409837" type="line"/>
      <point x="195.78688524590163" y="156.21311475409837" type="line" smooth="yes"/>
      <point x="116.59016393442623" y="156.21311475409837"/>
      <point x="116.59016393442623" y="77.01639344262296" type="qcurve" smooth="yes"/>
      <point x="116.59016393442623" y="-32.622950819672134" type="line" smooth="yes"/>
      <point x="116.59016393442623" y="-111.81967213114754"/>
      <point x="195.78688524590163" y="-111.81967213114754" type="qcurve" smooth="yes"/>
      <point x="453.37704918032784" y="-111.81967213114754" type="line"/>
      <point x="453.37704918032784" y="-142.327868852459" type="line"/>
      <point x="414.59016393442624" y="-172.49180327868854" type="line"/>
      <point x="198.72131147540983" y="-172.49180327868854" type="line" smooth="yes"/>
      <point x="50.0" y="-172.49180327868854"/>
    </contour>
    <contour>
      <point x="243.5737704918033" y="421.2950819672131" type="line"/>
      <point x="243.5737704918033" y="517.5081967213115" type="line"/>
      <point x="325.8032786885246" y="517.5081967213115" type="line"/>
      <point x="325.8032786885246" y="421.2950819672131" type="line"/>
    </contour>
  </outline>
</glyph>
<glyph name="AE" format="2">
  <advance width="878.8032786885246"/>
  <unicode hex="00C6"/>
  <outline>
    <contour>
      <point x="20.40983606557377" y="15.803278688524589" type="line"/>
      <point x="252.91803278688525" y="690.0" type="line"/>
      <point x="828.8032786885246" y="690.0" type="line"/>
      <point x="828.8032786885246" y="629.327868852459" type="line"/>
      <point x="487.0" y="629.327868852459" type="line"/>
      <point x="487.0" y="394.1967213114754" type="line"/>
      <point x="798.8032786885246" y="394.1967213114754" type="line"/>
      <point x="798.8032786885246" y="333.5245901639344" type="line"/>
      <point x="487.0" y="333.5245901639344" type="line"/>
      <point x="487.0" y="60.67213114754098" type="line"/>
      <point x="828.8032786885246" y="60.67213114754098" type="line"/>
      <point x="828.8032786885246" y="0.0" type="line"/>
      <point x="420.40983606557376" y="0.0" type="line"/>
      <point x="420.40983606557376" y="183.52459016393442" type="line"/>
      <point x="146.39344262295083" y="183.52459016393442" type="line"/>
      <point x="85.11475409836066" y="0.0" type="line"/>
      <point x="31.18032786885246" y="0.0" type="line"/>
    </contour>
    <contour>
      <point x="167.672131147541" y="244.19672131147541" type="line"/>
      <point x="420.40983606557376" y="244.19672131147541" type="line"/>
      <point x="420.40983606557376" y="629.327868852459" type="line"/>
      <point x="296.78688524590166" y="629.327868852459" type="line"/>
    </contour>
  </outline>
</glyph>
<glyph name="Eth" format="2">
  <advance width="686.2786885245902"/>
  <unicode hex="00D0"/>
  <outline>
    <contour>
      <point x="20.0" y="318.62295081967216" type="line"/>
      <point x="20.0" y="371.37704918032784" type="line"/>
      <point x="100.40983606557377" y="371.37704918032784" type="line"/>
      <point x="100.40983606557377" y="690.0" type="line"/>
      <point x="398.4918032786885" y="690.0" type="line" smooth="yes"/>
      <point x="613.7868852459017" y="690.0"/>
      <point x="613.7868852459017" y="474.7049180327869" type="qcurve" smooth="yes"/>
      <point x="613.7868852459017" y="215.29508196721312" type="line" smooth="yes"/>
      <point x="613.7868852459017" y="0.0"/>
      <point x="398.4918032786885" y="0.0" type="qcurve" smooth="yes"/>
      <point x="100.40983606557377" y="0.0" type="line"/>
      <point x="100.40983606557377" y="318.62295081967216" type="line"/>
    </contour>
    <contour>
      <point x="167.0" y="60.67213114754098" type="line"/>
      <point x="398.4918032786885" y="60.67213114754098" type="line" smooth="yes"/>
      <point x="547.1967213114754" y="60.67213114754098"/>
      <point x="547.1967213114754" y="209.37704918032787" type="qcurve" smooth="yes"/>
      <point x="547.1967213114754" y="480.62295081967216" type="line" smooth="yes"/>
      <point x="547.1967213114754" y="629.327868852459"/>
      <point x="398.4918032786885" y="629.327868852459" type="qcurve" smooth="yes"/>
      <point x="167.0" y="629.327868852459" type="line"/>
      <point x="167.0" y="371.37704918032784" type="line"/>
      <point x="357.0983606557377" y="371.37704918032784" type="line"/>
      <point x="357.0983606557377" y="318.62295081967216" type="line"/>
      <point x="167.0" y="318.62295081967216" type="line"/>
    </contour>
  </outline>
</glyph>
<glyph name="multiply" format="2">
  <advance width="578.0"/>
  <unicode hex="00D7"/>
  <outline>
    <contour>
      <point x="88.68852459016394" y="175.31147540983608" type="line"/>
      <point x="248.52459016393442" y="335.0" type="line"/>
      <point x="88.68852459016394" y="494.6885245901639" type="line"/>
      <point x="129.31147540983608" y="535.311475409836" type="line"/>
      <point x="289.0" y="375.4754098360656" type="line"/>
      <point x="448.6885245901639" y="535.311475409836" type="line"/>
      <point x="489.3114754098361" y="494.6885245901639" type="line"/>
      <point x="329.4754098360656" y="335.0" type="line"/>
      <point x="489.3114754098361" y="175.31147540983608" type="line"/>
      <point x="448.6885245901639" y="134.68852459016392" type="line"/>
      <point x="289.0" y="294.5245901639344" type="line"/>
      <point x="129.31147540983608" y="134.68852459016392" type="line"/>
    </contour>
  </outline>
</glyph>
<glyph name="Oslash" format="2">
  <advance width="697.5081967213115"/>
  <unicode hex="00D8"/>
  <outline>
    <contour>
      <point x="82.49180327868852" y="148.72131147540983" type="qcurve" smooth="yes"/>
      <point x="82.49180327868852" y="541.2786885245902" type="line" smooth="yes"/>
      <point x="82.49180327868852" y="690.0"/>
      <point x="231.21311475409837" y="690.0" type="qcurve" smooth="yes"/>
      <point x="466.2950819672131" y="690.0" type="line" smooth="yes"/>
      <point x="615.016393442623" y="690.0"/>
      <point x="615.016393442623" y="541.2786885245902" type="qcurve" smooth="yes"/>
      <point x="615.016393442623" y="148.72131147540983" type="line" smooth="yes"/>
      <point x="615.016393442623" y="0.0"/>
      <point x="466.2950819672131" y="0.0" type="qcurve" smooth="yes"/>
      <point x="231.21311475409837" y="0.0" type="line" smooth="yes"/>
      <point x="82.49180327868852" y="0.0"/>
    </contour>
    <contour>
      <point x="149.08196721311475" y="198.59016393442624" type="line"/>
      <point x="547.5737704918033" y="560.0983606557377" type="line"/>
      <point x="543.8688524590164" y="629.327868852459"/>
      <point x="470.08196721311475" y="629.327868852459" type="qcurve" smooth="yes"/>
      <point x="228.27868852459017" y="629.327868852459" type="line" smooth="yes"/>
      <point x="149.08196721311475" y="629.327868852459"/>
      <point x="149.08196721311475" y="550.983606557377" type="qcurve" smooth="yes"/>
    </contour>
    <contour>
      <point x="149.9344262295082" y="129.9016393442623" type="line"/>
      <point x="153.63934426229508" y="60.67213114754098"/>
      <point x="228.27868852459017" y="60.67213114754098" type="qcurve" smooth="yes"/>
      <point x="470.08196721311475" y="60.67213114754098" type="line" smooth="yes"/>
      <point x="548.4262295081967" y="60.67213114754098"/>
      <point x="548.4262295081967" y="139.01639344262296" type="qcurve" smooth="yes"/>
      <point x="548.4262295081967" y="491.40983606557376" type="line"/>
    </contour>
  </outline>
</glyph>
<glyph name="Thorn" format="2">
  <advance width="627.5081967213115"/>
  <unicode hex="00DE"/>
  <outline>
    <contour>
      <point x="92.49180327868852" y="0.0" type="line"/>
      <point x="92.49180327868852" y="690.0" type="line"/>
      <point x="159.08196721311475" y="690.0" type="line"/>
      <point x="159.08196721311475" y="564.1967213114754" type="line"/>
      <point x="416.2950819672131" y="564.1967213114754" type="line" smooth="yes"/>
      <point x="565.016393442623" y="564.1967213114754"/>
      <point x="565.016393442623" y="415.4754098360656" type="qcurve" smooth="yes"/>
      <point x="565.016393442623" y="288.5245901639344" type="line" smooth="yes"/>
      <point x="565.016393442623" y="139.80327868852459"/>
      <point x="416.2950819672131" y="139.80327868852459" type="qcurve" smooth="yes"/>
      <point x="159.08196721311475" y="139.80327868852459" type="line"/>
      <point x="159.08196721311475" y="0.0" type="line"/>
    </contour>
    <contour>
      <point x="159.08196721311475" y="200.47540983606558" type="line"/>
      <point x="420.08196721311475" y="200.47540983606558" type="line" smooth="yes"/>
      <point x="498.42622950819674" y="200.47540983606558"/>
      <point x="498.42622950819674" y="278.8196721311475" type="qcurve" smooth="yes"/>
      <point x="498.42622950819674" y="425.1803278688525" type="line" smooth="yes"/>
      <point x="498.42622950819674" y="503.5245901639344"/>
      <point x="420.08196721311475" y="503.5245901639344" type="qcurve" smooth="yes"/>
      <point x="159.08196721311475" y="503.5245901639344" type="line"/>
    </contour>
  </outline>
</glyph>
<glyph name="germandbls" format="2">
  <advance width="596.6065573770492"/>
  <unicode hex="00DF"/>
  <outline>
    <contour>
      <point x="82.49180327868852" y="0.0" type="line"/>
      <point x="82.49180327868852" y="593.311475409836" type="line" smooth="yes"/>
      <point x="82.49180327868852" y="740.0"/>
      <point x="229.18032786885246" y="740.0" type="qcurve" smooth="yes"/>
      <point x="356.27868852459017" y="740.0" type="line" smooth="yes"/>
      <point x="502.11475409836066" y="740.0"/>
      <point x="502.11475409836066" y="593.311475409836" type="qcurve" smooth="yes"/>
      <point x="502.11475409836066" y="491.0" type="line" smooth="yes"/>
      <point x="502.11475409836066" y="457.0"/>
      <point x="482.11475409836066" y="433.0" type="qcurve" smooth="yes"/>
      <point x="447.11475409836066" y="391.0" type="line"/>
      <point x="489.11475409836066" y="356.0" type="line" smooth="yes"/>
      <point x="522.1147540983607" y="328.0"/>
      <point x="522.1147540983607" y="276.0" type="qcurve" smooth="yes"/>
      <point x="522.1147540983607" y="146.68852459016392" type="line" smooth="yes"/>
      <point x="522.1147540983607" y="0.0"/>
      <point x="376.27868852459017" y="0.0" type="qcurve" smooth="yes"/>
      <point x="277.9836065573771" y="0.0" type="line"/>
      <point x="243.78688524590163" y="25.57377049180328" type="line"/>
      <point x="243.78688524590163" y="55.49180327868852" type="line"/>
      <point x="377.91803278688525" y="55.49180327868852" type="line" smooth="yes"/>
      <point x="459.11475409836066" y="55.49180327868852"/>
      <point x="459.11475409836066" y="136.68852459016392" type="qcurve" smooth="yes"/>
      <point x="459.11475409836066" y="276.1311475409836" type="line" smooth="yes"/>
      <point x="459.11475409836066" y="357.1803278688525"/>
      <point x="377.91803278688525" y="357.1803278688525" type="qcurve" smooth="yes"/>
      <point x="253.78688524590163" y="357.1803278688525" type="line"/>
      <point x="253.78688524590163" y="412.8196721311475" type="line"/>
      <point x="357.91803278688525" y="412.8196721311475" type="line" smooth="yes"/>
      <point x="439.11475409836066" y="412.8196721311475"/>
      <point x="439.11475409836066" y="493.8688524590164" type="qcurve" smooth="yes"/>
      <point x="439.11475409836066" y="603.311475409836" type="line" smooth="yes"/>
      <point x="439.11475409836066" y="684.5081967213115"/>
      <point x="357.91803278688525" y="684.5081967213115" type="qcurve" smooth="yes"/>
      <point x="226.68852459016392" y="684.5081967213115" type="line" smooth="yes"/>
      <point x="145.49180327868854" y="684.5081967213115"/>
      <point x="145.49180327868854" y="603.311475409836" type="qcurve" smooth="yes"/>
      <point x="145.49180327868854" y="0.0" type="line"/>
    </contour>
  </outline>
</glyph>
<glyph name="ae" format="2">
  <advance width="877.311475409836"/>
  <unicode hex="00E6"/>
  <outline>
    <contour>
      <point x="202.0327868852459" y="0.0" type="line" smooth="yes"/>
      <point x="54.49180327868852" y="0.0"/>
      <point x="54.49180327868852" y="297.0163934426229"/>
      <point x="202.0327868852459" y="297.0163934426229" type="qcurve" smooth="yes"/>
      <point x="393.1967213114754" y="297.0163934426229" type="line"/>
      <point x="393.1967213114754" y="380.8196721311475" type="line" smooth="yes"/>
      <point x="393.1967213114754" y="462.0163934426229"/>
      <point x="312.0" y="462.0163934426229" type="qcurve" smooth="yes"/>
      <point x="102.40983606557377" y="462.0163934426229" type="line"/>
      <point x="102.40983606557377" y="491.9344262295082" type="line"/>
      <point x="136.60655737704917" y="517.5081967213115" type="line"/>
      <point x="306.5245901639344" y="517.5081967213115" type="line" smooth="yes"/>
      <point x="389.3114754098361" y="517.5081967213115"/>
      <point x="425.04918032786884" y="467.27868852459017" type="qcurve"/>
      <point x="460.78688524590166" y="517.5081967213115"/>
      <point x="543.8688524590164" y="517.5081967213115" type="qcurve" smooth="yes"/>
      <point x="656.983606557377" y="517.5081967213115" type="line" smooth="yes"/>
      <point x="802.8196721311475" y="517.5081967213115"/>
      <point x="802.8196721311475" y="370.8196721311475" type="qcurve" smooth="yes"/>
      <point x="802.8196721311475" y="233.98360655737704" type="line"/>
      <point x="456.1967213114754" y="233.98360655737704" type="line"/>
      <point x="456.1967213114754" y="136.68852459016392" type="line" smooth="yes"/>
      <point x="456.1967213114754" y="55.49180327868852"/>
      <point x="537.3934426229508" y="55.49180327868852" type="qcurve" smooth="yes"/>
      <point x="782.8196721311475" y="55.49180327868852" type="line"/>
      <point x="782.8196721311475" y="25.57377049180328" type="line"/>
      <point x="748.6229508196722" y="0.0" type="line"/>
      <point x="543.8688524590164" y="0.0" type="line" smooth="yes"/>
      <point x="460.78688524590166" y="0.0"/>
      <point x="425.04918032786884" y="50.22950819672131" type="qcurve"/>
      <point x="389.3114754098361" y="0.0"/>
      <point x="306.5245901639344" y="0.0" type="qcurve" smooth="yes"/>
    </contour>
    <contour>
      <point x="117.49180327868852" y="136.68852459016392" type="line" smooth="yes"/>
      <point x="117.49180327868852" y="55.49180327868852"/>
      <point x="198.68852459016392" y="55.49180327868852" type="qcurve" smooth="yes"/>
      <point x="312.0" y="55.49180327868852" type="line" smooth="yes"/>
      <point x="393.1967213114754" y="55.49180327868852"/>
      <point x="393.1967213114754" y="136.68852459016392" type="qcurve" smooth="yes"/>
      <point x="393.1967213114754" y="244.327868852459" type="line"/>
      <point x="198.68852459016392" y="244.327868852459" type="line" smooth="yes"/>
      <point x="117.49180327868852" y="244.327868852459"/>
      <point x="117.49180327868852" y="163.13114754098362" type="qcurve" smooth="yes"/>
    </contour>
    <contour>
      <point x="456.1967213114754" y="286.672131147541" type="line"/>
      <point x="739.8196721311475" y="286.672131147541" type="line"/>
      <point x="739.8196721311475" y="380.8196721311475" type="line" smooth="yes"/>
      <point x="739.8196721311475" y="462.0163934426229"/>
      <point x="658.6229508196722" y="462.0163934426229" type="qcurve" smooth="yes"/>
      <point x="537.3934426229508" y="462.0163934426229" type="line" smooth="yes"/>
      <point x="456.1967213114754" y="462.0163934426229"/>
      <point x="456.1967213114754" y="380.8196721311475" type="qcurve" smooth="yes"/>
    </contour>
  </outline>
</glyph>
<glyph name="eth" format="2">
  <advance width="581.5081967213115"/>
  <unicode hex="00F0"/>
  <outline>
    <contour>
      <point x="74.49180327868852" y="146.68852459016392" type="qcurve" smooth="yes"/>
      <point x="74.49180327868852" y="303.3114754098361" type="line" smooth="yes"/>
      <point x="74.49180327868852" y="450.0"/>
      <point x="221.18032786885246" y="450.0" type="qcurve" smooth="yes"/>
      <point x="423.9016393442623" y="450.0" type="line"/>
      <point x="340.6885245901639" y="582.2622950819672" type="line"/>
      <point x="231.8360655737705" y="530.2622950819672" type="line"/>
      <point x="211.08196721311475" y="574.5081967213115" type="line"/>
      <point x="314.60655737704917" y="623.9180327868852" type="line"/>
      <point x="257.73770491803276" y="714.7540983606557" type="line"/>
      <point x="309.344262295082" y="746.2786885245902" type="line"/>
      <point x="369.5081967213115" y="650.8524590163935" type="line"/>
      <point x="480.9016393442623" y="703.1967213114754" type="line"/>
      <point x="501.5081967213115" y="658.0983606557377" type="line"/>
      <point x="396.59016393442624" y="607.9344262295082" type="line"/>
      <point x="490.0655737704918" y="456.40983606557376" type="line" smooth="yes"/>
      <point x="507.0163934426229" y="428.5081967213115"/>
      <point x="507.0163934426229" y="384.4590163934426" type="qcurve" smooth="yes"/>
      <point x="507.0163934426229" y="146.68852459016392" type="line" smooth="yes"/>
      <point x="507.0163934426229" y="0.0"/>
      <point x="361.1803278688525" y="0.0" type="qcurve" smooth="yes"/>
      <point x="221.18032786885246" y="0.0" type="line" smooth="yes"/>
      <point x="74.49180327868852" y="0.0"/>
    </contour>
    <contour>
      <point x="137.49180327868854" y="136.68852459016392" type="line" smooth="yes"/>
      <point x="137.49180327868854" y="55.49180327868852"/>
      <point x="218.68852459016392" y="55.49180327868852" type="qcurve" smooth="yes"/>
      <point x="362.8196721311475" y="55.49180327868852" type="line" smooth="yes"/>
      <point x="444.0163934426229" y="55.49180327868852"/>
      <point x="444.0163934426229" y="136.68852459016392" type="qcurve" smooth="yes"/>
      <point x="444.0163934426229" y="394.5081967213115" type="line"/>
      <point x="218.68852459016392" y="394.5081967213115" type="line" smooth="yes"/>
      <point x="137.49180327868854" y="394.5081967213115"/>
      <point x="137.49180327868854" y="313.3114754098361" type="qcurve" smooth="yes"/>
    </contour>
  </outline>
</glyph>
<glyph name="divide" format="2">
  <advance width="578.0"/>
  <unicode hex="00F7"/>
  <outline>
    <contour>
      <point x="64.81967213114754" y="306.62295081967216" type="line"/>
      <point x="64.81967213114754" y="363.37704918032784" type="line"/>
      <point x="513.1803278688525" y="363.37704918032784" type="line"/>
      <point x="513.1803278688525" y="306.62295081967216" type="line"/>
    </contour>
    <contour>
      <point x="248.4262295081967" y="104.42622950819673" type="line"/>
      <point x="248.4262295081967" y="185.5737704918033" type="line"/>
      <point x="329.57377049180326" y="185.5737704918033" type="line"/>
      <point x="329.57377049180326" y="104.42622950819673" type="line"/>
    </contour>
    <contour>
      <point x="248.4262295081967" y="484.42622950819674" type="line"/>
      <point x="248.4262295081967" y="565.5737704918033" type="line"/>
      <point x="329.57377049180326" y="565.5737704918033" type="line"/>
      <point x="329.57377049180326" y="484.42622950819674" type="line"/>
    </contour>
  </outline>
</glyph>
<glyph name="oslash" format="2">
  <advance width="581.5081967213115"/>
  <unicode hex="00F8"/>
  <outline>
    <contour>
      <point x="74.49180327868852" y="146.68852459016392" type="qcurve" smooth="yes"/>
      <point x="74.49180327868852" y="370.8196721311475" type="line" smooth="yes"/>
      <point x="74.49180327868852" y="517.5081967213115"/>
      <point x="221.18032786885246" y="517.5081967213115" type="qcurve" smooth="yes"/>
      <point x="361.1803278688525" y="517.5081967213115" type="line" smooth="yes"/>
      <point x="507.0163934426229" y="517.5081967213115"/>
      <point x="507.0163934426229" y="370.8196721311475" type="qcurve" smooth="yes"/>
      <point x="507.0163934426229" y="146.68852459016392" type="line" smooth="yes"/>
      <point x="507.0163934426229" y="0.0"/>
      <point x="361.1803278688525" y="0.0" type="qcurve" smooth="yes"/>
      <point x="221.18032786885246" y="0.0" type="line" smooth="yes"/>
      <point x="74.49180327868852" y="0.0"/>
    </contour>
    <contour>
      <point x="137.49180327868854" y="152.62295081967213" type="line"/>
      <point x="437.60655737704917" y="419.655737704918" type="line"/>
      <point x="420.9672131147541" y="462.0163934426229"/>
      <point x="362.8196721311475" y="462.0163934426229" type="qcurve" smooth="yes"/>
      <point x="218.68852459016392" y="462.0163934426229" type="line" smooth="yes"/>
      <point x="137.49180327868854" y="462.0163934426229"/>
      <point x="137.49180327868854" y="380.8196721311475" type="qcurve" smooth="yes"/>
    </contour>
    <contour>
      <point x="143.9016393442623" y="97.85245901639344" type="line"/>
      <point x="160.54098360655738" y="55.49180327868852"/>
      <point x="218.68852459016392" y="55.49180327868852" type="qcurve" smooth="yes"/>
      <point x="362.8196721311475" y="55.49180327868852" type="line" smooth="yes"/>
      <point x="444.0163934426229" y="55.49180327868852"/>
      <point x="444.0163934426229" y="136.68852459016392" type="qcurve" smooth="yes"/>
      <point x="444.0163934426229" y="364.88524590163934" type="line"/>
    </contour>
  </outline>
</glyph>
<glyph name="thorn" format="2">
  <advance width="579.5081967213115"/>
  <unicode hex="00FE"/>
  <outline>
    <contour>
      <point x="82.49180327868852" y="-200.0" type="line"/>
      <point x="82.49180327868852" y="740.0" type="line"/>
      <point x="145.49180327868854" y="740.0" type="line"/>
      <point x="145.49180327868854" y="517.5081967213115" type="line"/>
      <point x="359.1803278688525" y="517.5081967213115" type="line" smooth="yes"/>
      <point x="505.0163934426229" y="517.5081967213115"/>
      <point x="505.0163934426229" y="370.8196721311475" type="qcurve" smooth="yes"/>
      <point x="505.0163934426229" y="146.68852459016392" type="line" smooth="yes"/>
      <point x="505.0163934426229" y="0.0"/>
      <point x="359.1803278688525" y="0.0" type="qcurve" smooth="yes"/>
      <point x="145.49180327868854" y="0.0" type="line"/>
      <point x="145.49180327868854" y="-200.0" type="line"/>
    </contour>
    <contour>
      <point x="145.49180327868854" y="55.49180327868852" type="line"/>
      <point x="360.8196721311475" y="55.49180327868852" type="line" smooth="yes"/>
      <point x="442.0163934426229" y="55.49180327868852"/>
      <point x="442.0163934426229" y="136.68852459016392" type="qcurve" smooth="yes"/>
      <point x="442.0163934426229" y="380.8196721311475" type="line" smooth="yes"/>
      <point x="442.0163934426229" y="462.0163934426229"/>
      <point x="360.8196721311475" y="462.0163934426229" type="qcurve" smooth="yes"/>
      <point x="145.49180327868854" y="462.0163934426229" type="line"/>
    </contour>
  </outline>
</glyph>
<glyph name="dotlessi" format="2">
  <advance width="227.98360655737704"/>
  <unicode hex="0131"/>
  <outline>
    <contour>
      <point x="82.49180327868852" y="0.0" type="line"/>
      <point x="82.49180327868852" y="517.5081967213115" type="line"/>
      <point x="145.49180327868854" y="517.5081967213115" type="line"/>
      <point x="145.49180327868854" y="0.0" type="line"/>
    </contour>
  </outline>
</glyph>
<glyph name="Lslash" format="2">
  <advance width="534.327868852459"/>
  <unicode hex="0141"/>
  <outline>
    <contour>
      <point x="10.0" y="277.9016393442623" type="line"/>
      <point x="96.39344262295081" y="327.672131147541" type="line"/>
      <point x="96.39344262295081" y="690.0" type="line"/>
      <point x="162.98360655737704" y="690.0" type="line"/>
      <point x="162.98360655737704" y="365.59016393442624" type="line"/>
      <point x="305.4918032786885" y="447.9016393442623" type="line"/>
      <point x="331.57377049180326" y="402.5081967213115" type="line"/>
      <point x="162.98360655737704" y="305.91803278688525" type="line"/>
      <point x="162.98360655737704" y="60.67213114754098" type="line"/>
      <point x="510.327868852459" y="60.67213114754098" type="line"/>
      <point x="510.327868852459" y="0.0" type="line"/>
      <point x="96.39344262295081" y="0.0" type="line"/>
      <point x="96.39344262295081" y="267.2950819672131" type="line"/>
      <point x="36.22950819672131" y="232.36065573770492" type="line"/>
    </contour>
  </outline>
</glyph>
<glyph name="lslash" format="2">
  <advance width="259.0"/>
  <unicode hex="0142"/>
  <outline>
    <contour>
      <point x="5.344262295081967" y="330.9836065573771" type="line"/>
      <point x="86.0" y="377.60655737704917" type="line"/>
      <point x="86.0" y="740.0" type="line"/>
      <point x="149.0" y="740.0" type="line"/>
      <point x="149.0" y="413.9344262295082" type="line"/>
      <point x="226.45901639344262" y="459.0163934426229" type="line"/>
      <point x="251.0983606557377" y="415.5081967213115" type="line"/>
      <point x="149.0" y="357.59016393442624" type="line"/>
      <point x="149.0" y="121.57377049180327" type="line" smooth="yes"/>
      <point x="149.0" y="49.78688524590164"/>
      <point x="221.08196721311475" y="47.049180327868854" type="qcurve"/>
      <point x="221.08196721311475" y="-7.590163934426229" type="line"/>
      <point x="86.0" y="-7.590163934426229"/>
      <point x="86.0" y="127.49180327868852" type="qcurve" smooth="yes"/>
      <point x="86.0" y="321.11475409836066" type="line"/>
      <point x="30.688524590163933" y="287.62295081967216" type="line"/>
    </contour>
  </outline>
</glyph>
<glyph name="OE" format="2">
  <advance width="958.2786885245902"/>
  <unicode hex="0152"/>
  <outline>
    <contour>
      <point x="82.49180327868852" y="148.72131147540983" type="qcurve" smooth="yes"/>
      <point x="82.49180327868852" y="541.2786885245902" type="line" smooth="yes"/>
      <point x="82.49180327868852" y="690.0"/>
      <point x="231.21311475409837" y="690.0" type="qcurve" smooth="yes"/>
      <point x="908.2786885245902" y="690.0" type="line"/>
      <point x="908.2786885245902" y="629.327868852459" type="line"/>
      <point x="566.4754098360655" y="629.327868852459" type="line"/>
      <point x="566.4754098360655" y="394.1967213114754" type="line"/>
      <point x="878.2786885245902" y="394.1967213114754" type="line"/>
      <point x="878.2786885245902" y="333.5245901639344" type="line"/>
      <point x="566.4754098360655" y="333.5245901639344" type="line"/>
      <point x="566.4754098360655" y="60.67213114754098" type="line"/>
      <point x="908.2786885245902" y="60.67213114754098" type="line"/>
      <point x="908.2786885245902" y="0.0" type="line"/>
      <point x="231.21311475409837" y="0.0" type="line" smooth="yes"/>
      <point x="82.49180327868852" y="0.0"/>
    </contour>
    <contour>
      <point x="149.08196721311475" y="139.01639344262296" type="line" smooth="yes"/>
      <point x="149.08196721311475" y="60.67213114754098"/>
      <point x="228.27868852459017" y="60.67213114754098" type="qcurve" smooth="yes"/>
      <point x="499.88524590163934" y="60.67213114754098" type="line"/>
      <point x="499.88524590163934" y="629.327868852459" type="line"/>
      <point x="228.27868852459017" y="629.327868852459" type="line" smooth="yes"/>
      <point x="149.08196721311475" y="629.327868852459"/>
      <point x="149.08196721311475" y="550.983606557377" type="qcurve" smooth="yes"/>
    </contour>
  </outline>
</glyph>
<glyph name="oe" format="2">
  <advance width="916.0819672131148"/>
  <unicode hex="0153"/>
  <outline>
    <contour>
      <point x="74.49180327868852" y="146.68852459016392" type="qcurve" smooth="yes"/>
      <point x="74.49180327868852" y="370.8196721311475" type="line" smooth="yes"/>
      <point x="74.49180327868852" y="517.5081967213115"/>
      <point x="221.18032786885246" y="517.5081967213115" type="qcurve" smooth="yes"/>
      <point x="344.59016393442624" y="517.5081967213115" type="line" smooth="yes"/>
      <point x="427.37704918032784" y="517.5081967213115"/>
      <point x="463.11475409836066" y="467.27868852459017" type="qcurve"/>
      <point x="498.8524590163934" y="517.5081967213115"/>
      <point x="581.639344262295" y="517.5081967213115" type="qcurve" smooth="yes"/>
      <point x="694.9016393442623" y="517.5081967213115" type="line" smooth="yes"/>
      <point x="841.5901639344262" y="517.5081967213115"/>
      <point x="841.5901639344262" y="370.8196721311475" type="qcurve" smooth="yes"/>
      <point x="841.5901639344262" y="233.98360655737704" type="line"/>
      <point x="494.11475409836066" y="233.98360655737704" type="line"/>
      <point x="494.11475409836066" y="136.68852459016392" type="line" smooth="yes"/>
      <point x="494.11475409836066" y="55.49180327868852"/>
      <point x="575.311475409836" y="55.49180327868852" type="qcurve" smooth="yes"/>
      <point x="821.5901639344262" y="55.49180327868852" type="line"/>
      <point x="821.5901639344262" y="25.57377049180328" type="line"/>
      <point x="787.3934426229508" y="0.0" type="line"/>
      <point x="581.639344262295" y="0.0" type="line" smooth="yes"/>
      <point x="498.8524590163934" y="0.0"/>
      <point x="463.11475409836066" y="50.22950819672131" type="qcurve"/>
      <point x="427.37704918032784" y="0.0"/>
      <point x="344.59016393442624" y="0.0" type="qcurve" smooth="yes"/>
      <point x="221.18032786885246" y="0.0" type="line" smooth="yes"/>
      <point x="74.49180327868852" y="0.0"/>
    </contour>
    <contour>
      <point x="137.49180327868854" y="136.68852459016392" type="line" smooth="yes"/>
      <point x="137.49180327868854" y="55.49180327868852"/>
      <point x="218.68852459016392" y="55.49180327868852" type="qcurve" smooth="yes"/>
      <point x="349.91803278688525" y="55.49180327868852" type="line" smooth="yes"/>
      <point x="431.11475409836066" y="55.49180327868852"/>
      <point x="431.11475409836066" y="136.68852459016392" type="qcurve" smooth="yes"/>
      <point x="431.11475409836066" y="380.8196721311475" type="line" smooth="yes"/>
      <point x="431.11475409836066" y="462.0163934426229"/>
      <point x="349.91803278688525" y="462.0163934426229" type="qcurve" smooth="yes"/>
      <point x="218.68852459016392" y="462.0163934426229" type="line" smooth="yes"/>
      <point x="137.49180327868854" y="462.0163934426229"/>
      <point x="137.49180327868854" y="380.8196721311475" type="qcurve" smooth="yes"/>
    </contour>
    <contour>
      <point x="494.11475409836066" y="286.672131147541" type="line"/>
      <point x="778.5901639344262" y="286.672131147541" type="line"/>
      <point x="778.5901639344262" y="380.8196721311475" type="line" smooth="yes"/>
      <point x="778.5901639344262" y="462.0163934426229"/>
      <point x="697.3934426229508" y="462.0163934426229" type="qcurve" smooth="yes"/>
      <point x="575.311475409836" y="462.0163934426229" type="line" smooth="yes"/>
      <point x="494.11475409836066" y="462.0163934426229"/>
      <point x="494.11475409836066" y="380.8196721311475" type="qcurve" smooth="yes"/>
    </contour>
  </outline>
</glyph>
<glyph name="florin" format="2">
  <advance width="567.5081967213115"/>
  <unicode hex="0192"/>
  <outline>
    <contour>
      <point x="40.0" y="-78.29508196721312" type="line"/>
      <point x="111.29508196721312" y="-78.29508196721312" type="line" smooth="yes"/>
      <point x="192.49180327868854" y="-78.29508196721312"/>
      <point x="192.49180327868854" y="2.901639344262295" type="qcurve" smooth="yes"/>
      <point x="192.49180327868854" y="593.311475409836" type="line" smooth="yes"/>
      <point x="192.49180327868854" y="740.0"/>
      <point x="339.1803278688525" y="740.0" type="qcurve" smooth="yes"/>
      <point x="426.6885245901639" y="740.0" type="line"/>
      <point x="460.88524590163934" y="714.4262295081967" type="line"/>
      <point x="460.88524590163934" y="684.5081967213115" type="line"/>
      <point x="336.6885245901639" y="684.5081967213115" type="line" smooth="yes"/>
      <point x="255.49180327868854" y="684.5081967213115"/>
      <point x="255.49180327868854" y="603.311475409836" type="qcurve" smooth="yes"/>
      <point x="255.49180327868854" y="517.5081967213115" type="line"/>
      <point x="450.88524590163934" y="517.5081967213115" type="line"/>
      <point x="450.88524590163934" y="462.0163934426229" type="line"/>
      <point x="255.49180327868854" y="462.0163934426229" type="line"/>
      <point x="255.49180327868854" y="12.901639344262295" type="line" smooth="yes"/>
      <point x="255.49180327868854" y="-133.78688524590163"/>
      <point x="108.80327868852459" y="-133.78688524590163" type="qcurve" smooth="yes"/>
      <point x="74.19672131147541" y="-133.78688524590163" type="line"/>
      <point x="40.0" y="-108.06557377049181" type="line"/>
    </contour>
  </outline>
</glyph>
<glyph name="uni0237" format="2">
  <advance width="227.98360655737704"/>
  <unicode hex="0237"/>
  <outline>
    <contour>
      <point x="-7.590163934426229" y="-153.54098360655738" type="line"/>
      <point x="82.49180327868852" y="-150.95081967213116"/>
      <point x="82.49180327868852" y="-61.01639344262295" type="qcurve" smooth="yes"/>
      <point x="82.49180327868852" y="517.5081967213115" type="line"/>
      <point x="145.49180327868854" y="517.5081967213115" type="line"/>
      <point x="145.49180327868854" y="-54.50819672131148" type="line" smooth="yes"/>
      <point x="145.49180327868854" y="-207.59016393442624"/>
      <point x="-7.590163934426229" y="-207.59016393442624" type="qcurve"/>
    </contour>
  </outline>
</glyph>
<glyph name="uni0300" format="2">
  <unicode hex="0300"/>
  <outline>
    <contour>
      <point x="-397.0163934426229" y="705.5737704918033" type="line"/>
      <point x="-355.9016393442623" y="745.9508196721312" type="line"/>
      <point x="-229.24590163934425" y="605.1147540983607" type="line"/>
      <point x="-264.4754098360656" y="571.1803278688525" type="line"/>
    </contour>
  </outline>
</glyph>
<glyph name="uni0301" format="2">
  <unicode hex="0301"/>
  <outline>
    <contour>
      <point x="-340.26229508196724" y="605.1147540983607" type="line"/>
      <point x="-213.60655737704917" y="745.9508196721312" type="line"/>
      <point x="-172.49180327868854" y="705.5737704918033" type="line"/>
      <point x="-305.88524590163934" y="572.0327868852459" type="line"/>
    </contour>
  </outline>
</glyph>
<glyph name="uni0302" format="2">
  <unicode hex="0302"/>
  <outline>
    <contour>
      <point x="-417.08196721311475" y="617.9016393442623" type="line"/>
      <point x="-285.1803278688525" y="746.8032786885246" type="line"/>
      <point x="-152.4262295081967" y="617.9016393442623" type="line"/>
      <point x="-185.47540983606558" y="582.4098360655738" type="line"/>
      <point x="-285.1803278688525" y="677.1147540983607" type="line"/>
      <point x="-384.0327868852459" y="582.4098360655738" type="line"/>
    </contour>
  </outline>
</glyph>
<glyph name="uni0303" format="2">
  <unicode hex="0303"/>
  <outline>
    <contour>
      <point x="-433.11475409836066" y="634.2786885245902" type="line"/>
      <point x="-384.1311475409836" y="683.2622950819672" type="line" smooth="yes"/>
      <point x="-360.42622950819674" y="706.1147540983607"/>
      <point x="-304.88524590163934" y="706.1147540983607"/>
      <point x="-282.88524590163934" y="683.2622950819672" type="qcurve" smooth="yes"/>
      <point x="-255.49180327868854" y="655.8688524590164" type="line" smooth="yes"/>
      <point x="-244.81967213114754" y="645.1967213114754"/>
      <point x="-227.18032786885246" y="645.1967213114754"/>
      <point x="-216.50819672131146" y="655.8688524590164" type="qcurve" smooth="yes"/>
      <point x="-169.59016393442624" y="702.7868852459017" type="line"/>
      <point x="-136.39344262295083" y="669.5901639344262" type="line"/>
      <point x="-185.37704918032787" y="620.6065573770492" type="line" smooth="yes"/>
      <point x="-208.2295081967213" y="597.7540983606557"/>
      <point x="-263.7704918032787" y="597.7540983606557"/>
      <point x="-286.62295081967216" y="620.6065573770492" type="qcurve" smooth="yes"/>
      <point x="-314.0163934426229" y="648.0" type="line" smooth="yes"/>
      <point x="-323.8360655737705" y="658.672131147541"/>
      <point x="-341.4754098360656" y="658.672131147541"/>
      <point x="-353.0" y="648.0" type="qcurve" smooth="yes"/>
      <point x="-399.91803278688525" y="601.0819672131148" type="line"/>
    </contour>
  </outline>
</glyph>
<glyph name="uni0304" format="2">
  <unicode hex="0304"/>
  <outline>
    <contour>
      <point x="-410.1967213114754" y="626.7868852459017" type="line"/>
      <point x="-410.1967213114754" y="681.672131147541" type="line"/>
      <point x="-159.31147540983608" y="681.672131147541" type="line"/>
      <point x="-159.31147540983608" y="626.7868852459017" type="line"/>
    </contour>
  </outline>
</glyph>
<glyph name="uni0306" format="2">
  <unicode hex="0306"/>
  <outline>
    <contour>
      <point x="-406.1639344262295" y="666.3934426229508" type="qcurve" smooth="yes"/>
      <point x="-406.1639344262295" y="722.6065573770492" type="line"/>
      <point x="-359.344262295082" y="722.6065573770492" type="line"/>
      <point x="-359.344262295082" y="666.4262295081967" type="line" smooth="yes"/>
      <point x="-359.344262295082" y="645.3770491803278"/>
      <point x="-338.2950819672131" y="645.3770491803278" type="qcurve" smooth="yes"/>
      <point x="-231.21311475409837" y="645.3770491803278" type="line" smooth="yes"/>
      <point x="-210.1639344262295" y="645.3770491803278"/>
      <point x="-210.1639344262295" y="666.4262295081967" type="qcurve" smooth="yes"/>
      <point x="-210.1639344262295" y="722.6065573770492" type="line"/>
      <point x="-163.34426229508196" y="722.6065573770492" type="line"/>
      <point x="-163.34426229508196" y="666.3934426229508" type="line" smooth="yes"/>
      <point x="-163.34426229508196" y="598.4098360655738"/>
      <point x="-232.18032786885246" y="598.4098360655738" type="qcurve" smooth="yes"/>
      <point x="-338.1803278688525" y="598.4098360655738" type="line" smooth="yes"/>
      <point x="-406.1639344262295" y="598.4098360655738"/>
    </contour>
  </outline>
</glyph>
<glyph name="uni0307" format="2">
  <unicode hex="0307"/>
  <outline>
    <contour>
      <point x="-320.88524590163934" y="617.4098360655738" type="line"/>
      <point x="-320.88524590163934" y="699.0983606557377" type="line"/>
      <point x="-248.62295081967213" y="699.0983606557377" type="line"/>
      <point x="-248.62295081967213" y="617.4098360655738" type="line"/>
    </contour>
  </outline>
</glyph>
<glyph name="uni0308" format="2">
  <unicode hex="0308"/>
  <outline>
    <contour>
      <point x="-405.62295081967216" y="616.7540983606557" type="line"/>
      <point x="-405.62295081967216" y="693.9672131147541" type="line"/>
      <point x="-338.08196721311475" y="693.9672131147541" type="line"/>
      <point x="-338.08196721311475" y="616.7540983606557" type="line"/>
    </contour>
    <contour>
      <point x="-232.27868852459017" y="616.7540983606557" type="line"/>
      <point x="-232.27868852459017" y="693.9672131147541" type="line"/>
      <point x="-164.7377049180328" y="693.9672131147541" type="line"/>
      <point x="-164.7377049180328" y="616.7540983606557" type="line"/>
    </contour>
  </outline>
</glyph>
<glyph name="uni030A" format="2">
  <unicode hex="030A"/>
  <outline>
    <contour>
      <point x="-382.60655737704917" y="639.2131147540983" type="qcurve" smooth="yes"/>
      <point x="-382.60655737704917" y="696.655737704918" type="line" smooth="yes"/>
      <point x="-382.60655737704917" y="762.7540983606557"/>
      <point x="-316.3606557377049" y="762.7540983606557" type="qcurve" smooth="yes"/>
      <point x="-253.14754098360655" y="762.7540983606557" type="line" smooth="yes"/>
      <point x="-186.9016393442623" y="762.7540983606557"/>
      <point x="-186.9016393442623" y="696.655737704918" type="qcurve" smooth="yes"/>
      <point x="-186.9016393442623" y="639.2131147540983" type="line" smooth="yes"/>
      <point x="-186.9016393442623" y="573.1147540983607"/>
      <point x="-253.14754098360655" y="573.1147540983607" type="qcurve" smooth="yes"/>
      <point x="-316.3606557377049" y="573.1147540983607" type="line" smooth="yes"/>
      <point x="-382.60655737704917" y="573.1147540983607"/>
    </contour>
    <contour>
      <point x="-338.4918032786885" y="636.360655737705" type="line" smooth="yes"/>
      <point x="-338.4918032786885" y="612.7540983606557"/>
      <point x="-314.88524590163934" y="612.7540983606557" type="qcurve" smooth="yes"/>
      <point x="-255.47540983606558" y="612.7540983606557" type="line" smooth="yes"/>
      <point x="-231.01639344262296" y="612.7540983606557"/>
      <point x="-231.01639344262296" y="636.360655737705" type="qcurve" smooth="yes"/>
      <point x="-231.01639344262296" y="699.5081967213115" type="line" smooth="yes"/>
      <point x="-231.01639344262296" y="723.1147540983607"/>
      <point x="-255.47540983606558" y="723.1147540983607" type="qcurve" smooth="yes"/>
      <point x="-314.88524590163934" y="723.1147540983607" type="line" smooth="yes"/>
      <point x="-338.4918032786885" y="723.1147540983607"/>
      <point x="-338.4918032786885" y="699.5081967213115" type="qcurve" smooth="yes"/>
    </contour>
  </outline>
</glyph>
<glyph name="uni030B" format="2">
  <unicode hex="030B"/>
  <outline>
    <contour>
      <point x="-402.39344262295083" y="602.7868852459017" type="line"/>
      <point x="-291.21311475409834" y="746.8032786885246" type="line"/>
      <point x="-245.80327868852459" y="708.1967213114754" type="line"/>
      <point x="-366.27868852459017" y="571.1803278688525" type="line"/>
    </contour>
    <contour>
      <point x="-243.19672131147541" y="602.7868852459017" type="line"/>
      <point x="-132.01639344262296" y="746.8032786885246" type="line"/>
      <point x="-86.45901639344262" y="708.1967213114754" type="line"/>
      <point x="-207.08196721311475" y="571.1803278688525" type="line"/>
    </contour>
  </outline>
</glyph>
<glyph name="uni030C" format="2">
  <unicode hex="030C"/>
  <outline>
    <contour>
      <point x="-417.08196721311475" y="702.1639344262295" type="line"/>
      <point x="-384.0327868852459" y="736.8032786885246" type="line"/>
      <point x="-285.1803278688525" y="642.9508196721312" type="line"/>
      <point x="-185.47540983606558" y="736.8032786885246" type="line"/>
      <point x="-152.4262295081967" y="702.1639344262295" type="line"/>
      <point x="-285.1803278688525" y="572.4098360655738" type="line"/>
    </contour>
  </outline>
</glyph>
<glyph name="uni0326" format="2">
  <unicode hex="0326"/>
  <outline>
    <contour>
      <point x="-349.78688524590166" y="-185.37704918032787" type="line"/>
      <point x="-313.9672131147541" y="-50.0" type="line"/>
      <point x="-257.04918032786884" y="-50.0" type="line"/>
      <point x="-249.4262295081967" y="-62.0655737704918" type="line"/>
      <point x="-302.72131147540983" y="-198.62295081967213" type="line"/>
    </contour>
  </outline>
</glyph>
<glyph name="uni0327" format="2">
  <unicode hex="0327"/>
  <outline>
    <contour>
      <point x="-393.91803278688525" y="-131.11475409836066" type="line"/>
      <point x="-297.1803278688525" y="-131.11475409836066" type="line" smooth="yes"/>
      <point x="-257.37704918032784" y="-131.11475409836066"/>
      <point x="-257.37704918032784" y="-91.31147540983606" type="qcurve" smooth="yes"/>
      <point x="-257.37704918032784" y="27.672131147540984" type="line"/>
      <point x="-205.39344262295083" y="27.672131147540984" type="line"/>
      <point x="-205.39344262295083" y="-84.98360655737704" type="line" smooth="yes"/>
      <point x="-205.39344262295083" y="-177.91803278688525"/>
      <point x="-298.327868852459" y="-177.91803278688525" type="qcurve" smooth="yes"/>
      <point x="-366.1967213114754" y="-177.91803278688525" type="line"/>
      <point x="-393.91803278688525" y="-157.08196721311475" type="line"/>
    </contour>
  </outline>
</glyph>
<glyph name="uni0328" format="2">
  <unicode hex="0328"/>
  <outline>
    <contour>
      <point x="-352.11475409836066" y="-46.131147540983605" type="line" smooth="yes"/>
      <point x="-352.11475409836066" y="46.803278688524586"/>
      <point x="-259.1803278688525" y="46.803278688524586" type="qcurve" smooth="yes"/>
      <point x="-233.50819672131146" y="46.803278688524586" type="line"/>
      <point x="-233.50819672131146" y="0.0" type="line"/>
      <point x="-262.88524590163934" y="0.0" type="line" smooth="yes"/>
      <point x="-300.9836065573771" y="0.0"/>
      <point x="-300.9836065573771" y="-38.09836065573771" type="qcurve" smooth="yes"/>
      <point x="-300.9836065573771" y="-93.01639344262296" type="line" smooth="yes"/>
      <point x="-300.9836065573771" y="-131.11475409836066"/>
      <point x="-262.88524590163934" y="-131.11475409836066" type="qcurve" smooth="yes"/>
      <point x="-167.59016393442624" y="-131.11475409836066" type="line"/>
      <point x="-167.59016393442624" y="-157.08196721311475" type="line"/>
      <point x="-195.31147540983608" y="-177.91803278688525" type="line"/>
      <point x="-259.1803278688525" y="-177.91803278688525" type="line" smooth="yes"/>
      <point x="-352.11475409836066" y="-177.91803278688525"/>
      <point x="-352.11475409836066" y="-84.98360655737704" type="qcurve" smooth="yes"/>
    </contour>
  </outline>
</glyph>
<glyph name="pi" format="2">
  <advance width="587.5081967213115"/>
  <unicode hex="03C0"/>
  <outline>
    <contour>
      <point x="82.49180327868852" y="0.0" type="line"/>
      <point x="82.49180327868852" y="517.5081967213115" type="line"/>
      <point x="505.0163934426229" y="517.5081967213115" type="line"/>
      <point x="505.0163934426229" y="0.0" type="line"/>
      <point x="442.0163934426229" y="0.0" type="line"/>
      <point x="442.0163934426229" y="462.0163934426229" type="line"/>
      <point x="145.49180327868854" y="462.0163934426229" type="line"/>
      <point x="145.49180327868854" y="0.0" type="line"/>
    </contour>
  </outline>
</glyph>
<glyph name="uni1E9E" format="2">
  <advance width="678.6065573770492"/>
  <unicode hex="1E9E"/>
  <outline>
    <contour>
      <point x="86.49180327868852" y="0.0" type="line"/>
      <point x="86.49180327868852" y="541.2786885245902" type="line" smooth="yes"/>
      <point x="86.49180327868852" y="690.0"/>
      <point x="235.21311475409837" y="690.0" type="qcurve" smooth="yes"/>
      <point x="559.016393442623" y="690.0" type="line"/>
      <point x="559.016393442623" y="636.1311475409836" type="line"/>
      <point x="374.24590163934425" y="394.1967213114754" type="line"/>
      <point x="469.4590163934426" y="394.1967213114754" type="line" smooth="yes"/>
      <point x="616.1147540983607" y="394.1967213114754"/>
      <point x="616.1147540983607" y="244.0" type="qcurve" smooth="yes"/>
      <point x="616.1147540983607" y="148.72131147540983" type="line" smooth="yes"/>
      <point x="616.1147540983607" y="0.0"/>
      <point x="467.5409836065574" y="0.0" type="qcurve" smooth="yes"/>
      <point x="308.21311475409834" y="0.0" type="line"/>
      <point x="270.27868852459017" y="30.16393442622951" type="line"/>
      <point x="270.27868852459017" y="60.67213114754098" type="line"/>
      <point x="471.1803278688525" y="60.67213114754098" type="line" smooth="yes"/>
      <point x="549.5245901639345" y="60.67213114754098"/>
      <point x="549.5245901639345" y="139.01639344262296" type="qcurve" smooth="yes"/>
      <point x="549.5245901639345" y="255.18032786885246" type="line" smooth="yes"/>
      <point x="549.5245901639345" y="333.5245901639344"/>
      <point x="471.1803278688525" y="333.5245901639344" type="qcurve" smooth="yes"/>
      <point x="293.1803278688525" y="333.5245901639344" type="line"/>
      <point x="293.1803278688525" y="387.5409836065574" type="line"/>
      <point x="477.95081967213116" y="629.327868852459" type="line"/>
      <point x="232.27868852459017" y="629.327868852459" type="line" smooth="yes"/>
      <point x="153.08196721311475" y="629.327868852459"/>
      <point x="153.08196721311475" y="550.983606557377" type="qcurve" smooth="yes"/>
      <point x="153.08196721311475" y="0.0" type="line"/>
    </contour>
  </outline>
</glyph>
<glyph name="endash" format="2">
  <advance width="580.0"/>
  <unicode hex="2013"/>
  <outline>
    <contour>
      <point x="40.0" y="276.62295081967216" type="line"/>
      <point x="40.0" y="333.37704918032784" type="line"/>
      <point x="540.0" y="333.37704918032784" type="line"/>
      <point x="540.0" y="276.62295081967216" type="line"/>
    </contour>
  </outline>
</glyph>
<glyph name="emdash" format="2">
  <advance width="1000.0"/>
  <unicode hex="2014"/>
  <outline>
    <contour>
      <point x="40.0" y="276.62295081967216" type="line"/>
      <point x="40.0" y="333.37704918032784" type="line"/>
      <point x="960.0" y="333.37704918032784" type="line"/>
      <point x="960.0" y="276.62295081967216" type="line"/>
    </contour>
  </outline>
</glyph>
<glyph name="quoteleft" format="2">
  <advance width="254.60655737704917"/>
  <unicode hex="2018"/>
  <outline>
    <contour>
      <point x="70.0327868852459" y="525.1475409836065" type="line"/>
      <point x="152.9016393442623" y="747.0983606557377" type="line"/>
      <point x="200.88524590163934" y="735.7049180327868" type="line"/>
      <point x="139.672131147541" y="512.9344262295082" type="line"/>
      <point x="77.50819672131148" y="512.9344262295082" type="line"/>
    </contour>
  </outline>
</glyph>
<glyph name="quoteright" format="2">
  <advance width="254.60655737704917"/>
  <unicode hex="2019"/>
  <outline>
    <contour>
      <point x="62.622950819672134" y="518.2295081967213" type="line"/>
      <point x="123.8360655737705" y="740.0" type="line"/>
      <point x="186.0" y="740.0" type="line"/>
      <point x="193.47540983606558" y="727.9344262295082" type="line"/>
      <point x="110.60655737704919" y="505.8360655737705" type="line"/>
    </contour>
  </outline>
</glyph>
<glyph name="quotesinglbase" format="2">
  <advance width="254.60655737704917"/>
  <unicode hex="201A"/>
  <outline>
    <contour>
      <point x="34.90163934426229" y="-125.70491803278688" type="line"/>
      <point x="96.11475409836065" y="97.0655737704918" type="line"/>
      <point x="157.27868852459017" y="97.0655737704918" type="line"/>
      <point x="164.9016393442623" y="84.85245901639344" type="line"/>
      <point x="82.88524590163934" y="-137.0983606557377" type="line"/>
    </contour>
  </outline>
</glyph>
<glyph name="dagger" format="2">
  <advance width="487.5081967213115"/>
  <unicode hex="2020"/>
  <outline>
    <contour>
      <point x="50.0" y="426.62295081967216" type="line"/>
      <point x="50.0" y="483.37704918032784" type="line"/>
      <point x="214.36065573770492" y="483.37704918032784" type="line"/>
      <point x="214.36065573770492" y="690.0" type="line"/>
      <point x="274.0" y="690.0" type="line"/>
      <point x="274.0" y="483.37704918032784" type="line"/>
      <point x="437.5081967213115" y="483.37704918032784" type="line"/>
      <point x="437.5081967213115" y="426.62295081967216" type="line"/>
      <point x="274.0" y="426.62295081967216" type="line"/>
      <point x="274.0" y="-100.0" type="line"/>
      <point x="214.36065573770492" y="-100.0" type="line"/>
      <point x="214.36065573770492" y="426.62295081967216" type="line"/>
    </contour>
  </outline>
</glyph>
<glyph name="daggerdbl" format="2">
  <advance width="487.5081967213115"/>
  <unicode hex="2021"/>
  <outline>
    <contour>
      <point x="50.0" y="106.62295081967213" type="line"/>
      <point x="50.0" y="163.37704918032787" type="line"/>
      <point x="214.36065573770492" y="163.37704918032787" type="line"/>
      <point x="214.36065573770492" y="426.62295081967216" type="line"/>
      <point x="50.0" y="426.62295081967216" type="line"/>
      <point x="50.0" y="483.37704918032784" type="line"/>
      <point x="214.36065573770492" y="483.37704918032784" type="line"/>
      <point x="214.36065573770492" y="690.0" type="line"/>
      <point x="274.0" y="690.0" type="line"/>
      <point x="274.0" y="483.37704918032784" type="line"/>
      <point x="437.5081967213115" y="483.37704918032784" type="line"/>
      <point x="437.5081967213115" y="426.62295081967216" type="line"/>
      <point x="274.0" y="426.62295081967216" type="line"/>
      <point x="274.0" y="163.37704918032787" type="line"/>
      <point x="437.5081967213115" y="163.37704918032787" type="line"/>
      <point x="437.5081967213115" y="106.62295081967213" type="line"/>
      <point x="274.0" y="106.62295081967213" type="line"/>
      <point x="274.0" y="-100.0" type="line"/>
      <point x="214.36065573770492" y="-100.0" type="line"/>
      <point x="214.36065573770492" y="106.62295081967213" type="line"/>
    </contour>
  </outline>
</glyph>
<glyph name="bullet" format="2">
  <advance width="357.5081967213115"/>
  <unicode hex="2022"/>
  <outline>
    <contour>
      <point x="91.80327868852459" y="269.21311475409834" type="line"/>
      <point x="91.80327868852459" y="450.78688524590166" type="line"/>
      <point x="266.55737704918033" y="450.78688524590166" type="line"/>
      <point x="266.55737704918033" y="269.21311475409834" type="line"/>
    </contour>
  </outline>
</glyph>
<glyph name="guilsinglleft" format="2">
  <advance width="287.0163934426229"/>
  <unicode hex="2039"/>
  <outline>
    <contour>
      <point x="30.0" y="315.0" type="line"/>
      <point x="205.54098360655738" y="536.2786885245902" type="line"/>
      <point x="247.01639344262296" y="501.72131147540983" type="line"/>
      <point x="102.40983606557377" y="315.0" type="line"/>
      <point x="247.01639344262296" y="128.27868852459017" type="line"/>
      <point x="205.54098360655738" y="93.72131147540983" type="line"/>
    </contour>
  </outline>
</glyph>
<glyph name="guilsinglright" format="2">
  <advance width="287.0163934426229"/>
  <unicode hex="203A"/>
  <outline>
    <contour>
      <point x="40.0" y="128.27868852459017" type="line"/>
      <point x="184.45901639344262" y="315.0" type="line"/>
      <point x="40.0" y="501.72131147540983" type="line"/>
      <point x="81.47540983606558" y="536.2786885245902" type="line"/>
      <point x="257.0163934426229" y="315.0" type="line"/>
      <point x="81.47540983606558" y="93.72131147540983" type="line"/>
    </contour>
  </outline>
</glyph>
<glyph name="fraction" format="2">
  <advance width="137.0983606557377"/>
  <unicode hex="2044"/>
  <outline>
    <contour>
      <point x="-120.72131147540983" y="27.098360655737704" type="line"/>
      <point x="209.27868852459017" y="687.0983606557377" type="line"/>
      <point x="257.672131147541" y="662.9016393442623" type="line"/>
      <point x="-72.32786885245902" y="2.901639344262295" type="line"/>
    </contour>
  </outline>
</glyph>
<glyph name="uni2070" format="2">
  <advance width="357.91803278688525"/>
  <unicode hex="2070"/>
  <outline>
    <contour>
      <point x="42.08196721311475" y="375.0163934426229" type="qcurve" smooth="yes"/>
      <point x="42.08196721311475" y="597.0655737704918" type="line" smooth="yes"/>
      <point x="42.08196721311475" y="690.0"/>
      <point x="135.01639344262296" y="690.0" type="qcurve" smooth="yes"/>
      <point x="223.75409836065575" y="690.0" type="line" smooth="yes"/>
      <point x="316.6885245901639" y="690.0"/>
      <point x="316.6885245901639" y="597.0655737704918" type="qcurve" smooth="yes"/>
      <point x="316.6885245901639" y="375.0163934426229" type="line" smooth="yes"/>
      <point x="316.6885245901639" y="282.08196721311475"/>
      <point x="223.75409836065575" y="282.08196721311475" type="qcurve" smooth="yes"/>
      <point x="135.01639344262296" y="282.08196721311475" type="line" smooth="yes"/>
      <point x="42.08196721311475" y="282.08196721311475"/>
    </contour>
    <contour>
      <point x="92.80327868852459" y="368.27868852459017" type="line" smooth="yes"/>
      <point x="92.80327868852459" y="328.4754098360656"/>
      <point x="132.60655737704917" y="328.4754098360656" type="qcurve" smooth="yes"/>
      <point x="225.31147540983608" y="328.4754098360656" type="line" smooth="yes"/>
      <point x="265.11475409836066" y="328.4754098360656"/>
      <point x="265.11475409836066" y="368.27868852459017" type="qcurve" smooth="yes"/>
      <point x="265.11475409836066" y="603.8032786885246" type="line" smooth="yes"/>
      <point x="265.11475409836066" y="643.6065573770492"/>
      <point x="225.31147540983608" y="643.6065573770492" type="qcurve" smooth="yes"/>
      <point x="132.60655737704917" y="643.6065573770492" type="line" smooth="yes"/>
      <point x="92.80327868852459" y="643.6065573770492"/>
      <point x="92.80327868852459" y="603.8032786885246" type="qcurve" smooth="yes"/>
    </contour>
  </outline>
</glyph>
<glyph name="uni2074" format="2">
  <advance width="357.91803278688525"/>
  <unicode hex="2074"/>
  <outline>
    <contour>
      <point x="42.08196721311475" y="359.88524590163934" type="line"/>
      <point x="42.08196721311475" y="401.5409836065574" type="line"/>
      <point x="176.29508196721312" y="690.0" type="line"/>
      <point x="219.95081967213116" y="690.0" type="line"/>
      <point x="227.13114754098362" y="677.9344262295082" type="line"/>
      <point x="101.68852459016394" y="406.27868852459017" type="line"/>
      <point x="265.11475409836066" y="406.27868852459017" type="line"/>
      <point x="265.11475409836066" y="543.5081967213115" type="line"/>
      <point x="316.6885245901639" y="543.5081967213115" type="line"/>
      <point x="316.6885245901639" y="282.08196721311475" type="line"/>
      <point x="265.11475409836066" y="282.08196721311475" type="line"/>
      <point x="265.11475409836066" y="359.88524590163934" type="line"/>
    </contour>
  </outline>
</glyph>
